<svg xmlns="http://www.w3.org/2000/svg" width="567.589" height="511.532" viewBox="0 0 567.589 511.532">
  <g id="Group_27" data-name="Group 27" transform="translate(-651.274 -262.468)">
    <path id="Path_77" data-name="Path 77" d="M687.7,631.87c2.135-7.936,2.9-7.936,5.413-7.936,2.536,0,3.14,0,5.276,7.945l7.221,26.441H680.478l7.222-26.45Zm22.684,44.277,4.583,16.7c1.823,5.91,4.228,7.71,10.3,7.71h1.916c2.581,0,5.169-.262,6.631-2.15,1.524-1.969,1.013-4.6.4-6.951l-16.829-60.62c-2.589-9.264-5.311-15.435-8.287-18.826-3.261-3.879-8.49-5.763-15.984-5.763-7.425,0-12.684,1.871-16.088,5.723-3.012,3.434-5.734,9.6-8.323,18.868L651.864,691.5c-.6,2.309-1.11,4.939.413,6.908,1.462,1.888,4.052,2.15,6.629,2.15h1.919c6.069,0,8.474-1.8,10.316-7.785l4.565-16.624Z" fill="#562e0e" fill-rule="evenodd"/>
    <path id="Path_78" data-name="Path 78" d="M782.319,651.539H762.352V628.516c0-1.779.445-2.683,2.865-2.683h17.1c9.937,0,13.126,3.124,13.126,12.856s-3.189,12.85-13.126,12.85Zm32.434-12.85c0-20.719-10.91-31.223-32.434-31.223H761.112c-12.328,0-18.069,5.7-18.069,17.931v66.447c0,6.352,2.376,8.713,8.767,8.713h1.778c6.39,0,8.764-2.361,8.764-8.713V669.907h19.967C803.539,669.907,814.753,659.111,814.753,638.689Z" fill="#562e0e" fill-rule="evenodd"/>
    <path id="Path_79" data-name="Path 79" d="M844.033,628.516c0-1.779.443-2.683,2.864-2.683H864.41c10.813,0,12.716,3.667,12.716,11.362,0,7.281-2.028,11.226-12.716,11.226H844.033V628.516Zm-8.764,72.042c6.388,0,8.764-2.364,8.764-8.714V666.79h13.833l17.208,26.694c3.637,5.485,6.554,7.074,13.005,7.074h2.326c2.786,0,5.865-.2,7.119-2.537s-.257-4.978-1.766-7.255l-16.981-25.982c11.873-3.616,17.658-12.677,17.658-27.589,0-20.005-10.476-29.729-32.025-29.729H842.793c-12.328,0-18.069,5.7-18.069,17.932v66.446c0,6.35,2.376,8.714,8.766,8.714Z" fill="#562e0e" fill-rule="evenodd"/>
    <path id="Path_80" data-name="Path 80" d="M964.553,663.91c0,7.067-1.294,12.3-3.821,15.526-2.368,2.907-7.568,4.38-15.462,4.38s-13.093-1.473-15.432-4.342c-2.555-3.259-3.851-8.494-3.851-15.564V644.517c0-7.206,1.312-12.562,3.822-15.525,2.368-2.907,7.572-4.377,15.461-4.377s13.093,1.47,15.491,4.414c2.481,2.927,3.792,8.283,3.792,15.488V663.91ZM945.27,606.246c-14.187,0-24.342,3.385-30.185,10.065-5.745,6.579-8.543,15.8-8.543,28.206V663.91c0,12.494,2.8,21.767,8.543,28.341,5.845,6.683,15.718,9.934,30.185,9.934,14.375,0,24.2-3.251,30.048-9.934,5.761-6.587,8.682-16.123,8.682-28.341V644.517c0-12.4-2.8-21.629-8.546-28.206C969.614,609.631,959.457,606.246,945.27,606.246Z" fill="#562e0e" fill-rule="evenodd"/>
    <path id="Path_81" data-name="Path 81" d="M1051.507,699.171c4.558-1.748,7.2-3.841,7.2-9.36v-2.032c0-5.434-3.212-7.359-5.961-7.359a8.086,8.086,0,0,0-2.942.605c-4.19,1.763-9.807,2.654-16.691,2.654-14.085,0-19.832-5.218-19.832-18v-21.7c0-13.851,5.588-19.5,19.284-19.5a47.067,47.067,0,0,1,16.875,2.995,12.291,12.291,0,0,0,3.811.766c5.046,0,5.046-5.513,5.046-7.587v-2.037c0-5.71-1.878-7.023-7.284-9.339-4.928-2.012-11.039-3.032-18.173-3.032-25.694,0-39.276,13.049-39.276,37.733v21.7c0,24.475,12.849,36.372,39.276,36.372A55.46,55.46,0,0,0,1051.507,699.171Z" fill="#faac18" fill-rule="evenodd"/>
    <path id="Path_82" data-name="Path 82" d="M1134.091,691.982v-1.221c0-6.25-2.34-8.574-8.63-8.574h-34.614c-2.421,0-2.863-.9-2.863-2.682V661.772h32c6.291,0,8.628-2.324,8.628-8.577v-1.217c0-6.252-2.337-8.573-8.628-8.573h-32V628.516c0-1.778.442-2.681,2.863-2.681h34.614c6.29,0,8.63-2.323,8.63-8.575v-1.219c0-6.25-2.34-8.574-8.63-8.574h-38.719c-12.327,0-18.068,5.7-18.068,17.93v57.226c0,12.235,5.741,17.932,18.068,17.932h38.719C1131.751,700.555,1134.091,698.231,1134.091,691.982Z" fill="#faac18" fill-rule="evenodd"/>
    <path id="Path_83" data-name="Path 83" d="M1185.252,648.419h-20.375v-19.9c0-1.777.44-2.682,2.862-2.682h17.513c10.813,0,12.715,3.664,12.715,11.36,0,7.281-2.026,11.225-12.715,11.225Zm31.347,42.345-16.977-25.97c12.025-3.606,17.654-12.463,17.654-27.6,0-20-10.475-29.728-32.024-29.728h-21.616c-12.326,0-18.068,5.7-18.068,17.931v66.45c0,6.349,2.373,8.709,8.765,8.709h1.777c6.392,0,8.767-2.36,8.767-8.709V666.788h13.831l17.209,26.695c3.637,5.486,6.555,7.073,13.005,7.073h2.327c2.788,0,5.861-.2,7.119-2.535S1218.109,693.041,1216.6,690.764Z" fill="#faac18" fill-rule="evenodd"/>
    <path id="Path_84" data-name="Path 84" d="M656.476,729.747l2.316-8.432c.505-1.862.909-2.3,2.084-2.3,1.109,0,1.543.442,2.048,2.3l2.318,8.432Zm9.1-8.129a9.628,9.628,0,0,0-1.712-3.928,3.747,3.747,0,0,0-2.991-1.049,3.861,3.861,0,0,0-3.023,1.049,10.619,10.619,0,0,0-1.714,3.928l-4.5,16.222c-.236.849-.068,1.118.838,1.118h.37c.942,0,1.21-.2,1.444-1.118l1.547-5.691h10.043l1.579,5.691c.234.916.5,1.118,1.441,1.118h.339c.905,0,1.074-.269.839-1.118Z" fill="#562e0e" fill-rule="evenodd"/>
    <path id="Path_85" data-name="Path 85" d="M679.641,739.3c4.334,0,6.35-1.353,6.35-4.365,0-2.305-.94-3.425-3.357-4.542l-4.269-1.963c-1.176-.541-1.778-1.287-1.778-2.235,0-1.355.941-1.9,3.39-1.9a12.885,12.885,0,0,1,4.2.643c.773.237,1.075.035,1.075-.811v-.3c0-.782-.2-.983-1.006-1.254a12.273,12.273,0,0,0-4.2-.643c-4.063,0-5.946,1.319-5.946,4.265,0,2.271.874,3.318,3.125,4.4l4.1,1.964c1.644.811,2.18,1.354,2.18,2.438,0,1.455-1.007,1.931-3.659,1.931a18.581,18.581,0,0,1-4.936-.676c-.809-.172-1.077.035-1.077.881v.271c0,.709.236,1.014,1.077,1.252A17.219,17.219,0,0,0,679.641,739.3Z" fill="#562e0e" fill-rule="evenodd"/>
    <path id="Path_86" data-name="Path 86" d="M696.564,736.926a18.722,18.722,0,0,1-4.937-.676c-.806-.169-1.074.033-1.074.879v.27c0,.713.233,1.018,1.074,1.255a17.218,17.218,0,0,0,4.735.642c4.333,0,6.35-1.353,6.35-4.366,0-2.3-.942-3.423-3.356-4.54l-4.272-1.964a2.519,2.519,0,0,1-1.776-2.237c0-1.353.938-1.894,3.391-1.894a12.957,12.957,0,0,1,4.2.641c.772.239,1.075.035,1.075-.812v-.3c0-.779-.2-.983-1.008-1.253a12.265,12.265,0,0,0-4.2-.642c-4.065,0-5.946,1.318-5.946,4.264,0,2.272.872,3.321,3.122,4.4l4.1,1.966c1.645.81,2.181,1.352,2.181,2.436C700.226,736.452,699.217,736.926,696.564,736.926Z" fill="#562e0e" fill-rule="evenodd"/>
    <path id="Path_87" data-name="Path 87" d="M719.532,732.185c0,3.353-1.208,4.709-4.8,4.709s-4.875-1.356-4.875-4.709v-3.149c0-3.354,1.247-4.707,4.875-4.707,3.592,0,4.8,1.353,4.8,4.707v3.149Zm2.521,0v-3.149c0-4.741-2.217-7.11-7.321-7.11-4.94,0-7.391,2.369-7.391,7.11v3.149c0,4.741,2.25,7.111,7.391,7.111C719.6,739.3,722.053,736.926,722.053,732.185Z" fill="#562e0e" fill-rule="evenodd"/>
    <path id="Path_88" data-name="Path 88" d="M738.468,737.638V737.3c0-.849-.232-1.116-1.008-.849a8.912,8.912,0,0,1-3.021.44c-3.763,0-5.239-1.25-5.239-4.64v-3.282c0-3.25,1.376-4.64,5.037-4.64a8.755,8.755,0,0,1,2.889.473c.806.272,1.008.034,1.008-.812v-.337c0-.779-.2-1.019-1.008-1.288a8.8,8.8,0,0,0-2.954-.439c-5.009,0-7.492,2.506-7.492,7.008v3.352c0,4.776,2.451,7.01,7.591,7.01a9.847,9.847,0,0,0,3.123-.439C738.236,738.62,738.468,738.349,738.468,737.638Z" fill="#562e0e" fill-rule="evenodd"/>
    <path id="Path_89" data-name="Path 89" d="M744.106,715.388a1.661,1.661,0,0,0-1.679,1.66,1.633,1.633,0,0,0,1.679,1.625,1.6,1.6,0,0,0,1.613-1.625A1.628,1.628,0,0,0,744.106,715.388Z" fill="#562e0e" fill-rule="evenodd"/>
    <path id="Path_90" data-name="Path 90" d="M744.274,722.262H743.9c-.908,0-1.074.239-1.074,1.084v14.527c0,.914.166,1.084,1.074,1.084h.371c.84,0,1.074-.17,1.074-1.084V723.346C745.348,722.5,745.114,722.262,744.274,722.262Z" fill="#562e0e" fill-rule="evenodd"/>
    <path id="Path_91" data-name="Path 91" d="M752.834,734.217c0-2.132,1.312-2.944,4.368-2.944h3.932v2.571c0,2.44-1.313,3.252-4.536,3.252-2.521,0-3.764-.947-3.764-2.879Zm10.816-.27v-6.708c0-3.552-2.351-5.312-7.052-5.312a16.634,16.634,0,0,0-3.628.335c-.806.172-1.007.373-1.007,1.154v.271c0,.813.268,1.016,1.074.846a16.638,16.638,0,0,1,3.7-.375c2.954,0,4.4.882,4.4,3.081v2.035h-3.966c-4.668,0-6.852,1.456-6.852,4.943,0,3.422,2.317,5.079,6.315,5.079C761.5,739.3,763.65,737.7,763.65,733.947Z" fill="#562e0e" fill-rule="evenodd"/>
    <path id="Path_92" data-name="Path 92" d="M774.022,740.955c-.134.578-.067.677.571.578a3.849,3.849,0,0,1,.708-.036c1.106,0,1.508.307,1.508,1.151,0,.952-.436,1.254-1.645,1.254a5.708,5.708,0,0,1-1.074-.1c-.436-.1-.641.1-.641.541v.206c0,.506.1.64.608.74a5.938,5.938,0,0,0,1.344.173c2.283,0,3.324-.815,3.324-2.814,0-1.727-1.006-2.506-3.023-2.269l.267-1.082a11.974,11.974,0,0,0,3.025-.44c.842-.237,1.075-.508,1.075-1.219V737.3c0-.849-.233-1.115-1.008-.849a8.882,8.882,0,0,1-3.023.441c-3.761,0-5.239-1.251-5.239-4.64v-3.283c0-3.248,1.377-4.641,5.037-4.641a8.734,8.734,0,0,1,2.889.476c.808.271,1.006.032,1.006-.813v-.337c0-.78-.2-1.019-1.006-1.289a8.8,8.8,0,0,0-2.958-.438c-5,0-7.488,2.505-7.488,7.008v3.353c0,4.334,1.981,6.57,6.183,6.941Z" fill="#562e0e" fill-rule="evenodd"/>
    <path id="Path_93" data-name="Path 93" d="M794.671,716.336c-.569,0-.735.135-.772.643-.1.848-.5,1.289-1.141,1.289a4.823,4.823,0,0,1-2.016-1.086,4.654,4.654,0,0,0-2.585-1.081q-2.67,0-2.922,3.043c-.035.513.134.649.706.649h.235c.57,0,.737-.136.772-.649.1-.844.5-1.283,1.142-1.283a4.69,4.69,0,0,1,1.981,1.084,4.664,4.664,0,0,0,2.589,1.084q2.718,0,2.92-3.05c.033-.508-.135-.643-.707-.643Z" fill="#562e0e" fill-rule="evenodd"/>
    <path id="Path_94" data-name="Path 94" d="M794.435,733.845c0,2.44-1.306,3.252-4.532,3.252-2.518,0-3.762-.949-3.762-2.879,0-2.132,1.309-2.948,4.368-2.948h3.926v2.575ZM789.9,721.926a16.541,16.541,0,0,0-3.627.336c-.806.173-1.009.374-1.009,1.154v.27c0,.813.269,1.016,1.076.846a16.721,16.721,0,0,1,3.7-.374c2.953,0,4.4.882,4.4,3.082v2.035h-3.961c-4.668,0-6.851,1.456-6.851,4.943,0,3.42,2.317,5.078,6.313,5.078,4.871,0,7.022-1.593,7.022-5.35V727.24C796.958,723.686,794.6,721.926,789.9,721.926Z" fill="#562e0e" fill-rule="evenodd"/>
    <path id="Path_95" data-name="Path 95" d="M813.777,732.185c0,3.353-1.21,4.709-4.8,4.709s-4.872-1.356-4.872-4.709v-3.149c0-3.354,1.245-4.707,4.872-4.707,3.591,0,4.8,1.353,4.8,4.707v3.149Zm2.521,0v-3.149c0-4.741-2.216-7.11-7.322-7.11-4.939,0-7.388,2.369-7.388,7.11v3.149c0,4.741,2.249,7.111,7.388,7.111C813.846,739.3,816.3,736.926,816.3,732.185Z" fill="#562e0e" fill-rule="evenodd"/>
    <path id="Path_96" data-name="Path 96" d="M843.456,732.185c0,3.353-1.242,4.709-4.836,4.709-3.628,0-4.838-1.356-4.838-4.709v-3.149c0-3.354,1.246-4.707,4.838-4.707s4.836,1.353,4.836,4.707v3.149Zm1.447-16.932h-.371c-.907,0-1.076.17-1.076,1.085V724.4c-.906-1.658-2.651-2.469-5.238-2.469-4.633,0-6.951,2.369-6.951,7.144v3.149c0,4.741,2.349,7.077,7.353,7.077,4.908,0,7.358-2.37,7.358-7.077V716.338C845.978,715.423,845.74,715.253,844.9,715.253Z" fill="#562e0e" fill-rule="evenodd"/>
    <path id="Path_97" data-name="Path 97" d="M862.93,732.185c0,3.353-1.21,4.709-4.8,4.709s-4.872-1.356-4.872-4.709v-3.149c0-3.354,1.243-4.707,4.872-4.707,3.589,0,4.8,1.353,4.8,4.707v3.149Zm2.521,0v-3.149c0-4.741-2.216-7.11-7.32-7.11-4.941,0-7.391,2.369-7.391,7.11v3.149c0,4.741,2.25,7.111,7.391,7.111C863,739.3,865.451,736.926,865.451,732.185Z" fill="#562e0e" fill-rule="evenodd"/>
    <path id="Path_98" data-name="Path 98" d="M882.169,734.929c0-2.3-.939-3.419-3.358-4.539l-4.268-1.964a2.521,2.521,0,0,1-1.778-2.238c0-1.353.941-1.892,3.39-1.892a12.91,12.91,0,0,1,4.2.64c.776.24,1.077.034,1.077-.81v-.307c0-.776-.2-.978-1.006-1.251a12.271,12.271,0,0,0-4.2-.641c-4.062,0-5.944,1.318-5.944,4.261,0,2.272.874,3.323,3.126,4.407l4.094,1.964c1.649.811,2.187,1.353,2.187,2.437,0,1.457-1.008,1.929-3.661,1.929a18.767,18.767,0,0,1-4.938-.675c-.808-.17-1.075.034-1.075.879v.273c0,.709.231,1.013,1.075,1.251a17.179,17.179,0,0,0,4.734.642C880.152,739.295,882.169,737.942,882.169,734.929Z" fill="#562e0e" fill-rule="evenodd"/>
    <path id="Path_99" data-name="Path 99" d="M906.647,728.461h-5.982v-7.45c0-1.117.473-1.594,1.579-1.594h4.4c3.457,0,4.666,1.289,4.666,4.5,0,3.288-1.14,4.541-4.666,4.541Zm7.29-4.541c0-4.74-2.152-6.974-7.29-6.974h-4.974c-2.553,0-3.626,1.118-3.626,3.659v17.2c0,.917.234,1.151,1.144,1.151h.334c.906,0,1.14-.234,1.14-1.151V730.9h5.982C911.75,730.9,913.937,728.629,913.937,723.92Z" fill="#562e0e" fill-rule="evenodd"/>
    <path id="Path_100" data-name="Path 100" d="M919.837,738.957c.906,0,1.074-.17,1.074-1.081v-9.957c0-2.541.842-3.591,3.224-3.591.17,0,.507.034,1.044.069.837.135,1.04-.035,1.04-.881v-.339c0-.846-.167-1.084-1.007-1.186-.4-.032-.776-.065-1.077-.065-3.828,0-5.742,1.962-5.742,5.857v10.093c0,.911.238,1.081,1.075,1.081Z" fill="#562e0e" fill-rule="evenodd"/>
    <path id="Path_101" data-name="Path 101" d="M932.293,732.185v-3.149c0-3.354,1.242-4.707,4.871-4.707,3.593,0,4.8,1.353,4.8,4.707v3.149c0,3.353-1.212,4.709-4.8,4.709s-4.871-1.356-4.871-4.709Zm12.19,0v-3.149c0-4.741-2.215-7.11-7.319-7.11-4.937,0-7.392,2.369-7.392,7.11v3.149c0,4.741,2.249,7.111,7.392,7.111C942.033,739.3,944.483,736.926,944.483,732.185Z" fill="#562e0e" fill-rule="evenodd"/>
    <path id="Path_102" data-name="Path 102" d="M951.634,732.185v-3.149c0-3.354,1.244-4.707,4.835-4.707s4.839,1.353,4.839,4.707v3.149c0,3.353-1.243,4.709-4.839,4.709-3.628,0-4.835-1.356-4.835-4.709Zm12.19.034V716.338c0-.915-.233-1.085-1.073-1.085h-.367c-.908,0-1.076.17-1.076,1.085V724.4c-.907-1.658-2.653-2.469-5.242-2.469-4.635,0-6.953,2.369-6.953,7.144v3.149c0,4.741,2.352,7.077,7.356,7.077C961.374,739.3,963.824,736.926,963.824,732.219Z" fill="#562e0e" fill-rule="evenodd"/>
    <path id="Path_103" data-name="Path 103" d="M981.653,722.262h-.369c-.837,0-1.074.239-1.074,1.084v9.617c0,2.812-1.144,3.93-4.468,3.93s-4.5-1.186-4.5-3.93v-9.617c0-.845-.168-1.084-1.073-1.084H969.8c-.84,0-1.076.239-1.076,1.084v9.617c0,4.234,2.35,6.333,7.018,6.333,4.837,0,6.988-2.133,6.988-6.333v-9.617C982.73,722.5,982.561,722.262,981.653,722.262Z" fill="#562e0e" fill-rule="evenodd"/>
    <path id="Path_104" data-name="Path 104" d="M990.751,717.86h-.238c-.775,0-.974.205-1.007.915l-.366,3.487-1.916.27c-.707.1-.91.27-.91,1.052v.167c0,.781.138.916.91.916h1.916v8.6q0,6,5.641,6a11.171,11.171,0,0,0,2.921-.341c.806-.237,1.039-.541,1.039-1.218v-.3c0-.847-.233-1.052-1.005-.882a10.45,10.45,0,0,1-2.986.34c-2.055,0-3.092-1.052-3.092-3.591v-8.6h5.437c.844,0,1.042-.2,1.042-1.049v-.3c0-.848-.2-1.052-1.042-1.052h-5.437v-3.487C991.658,718.065,991.453,717.86,990.751,717.86Z" fill="#562e0e" fill-rule="evenodd"/>
    <path id="Path_105" data-name="Path 105" d="M1004.849,732.185v-3.149c0-3.354,1.243-4.707,4.872-4.707,3.593,0,4.8,1.353,4.8,4.707v3.149c0,3.353-1.209,4.709-4.8,4.709s-4.872-1.356-4.872-4.709Zm12.191,0v-3.149c0-4.741-2.216-7.11-7.319-7.11-4.938,0-7.392,2.369-7.392,7.11v3.149c0,4.741,2.249,7.111,7.392,7.111C1014.59,739.3,1017.04,736.926,1017.04,732.185Z" fill="#562e0e" fill-rule="evenodd"/>
    <path id="Path_106" data-name="Path 106" d="M1028.823,721.992c-.4-.034-.775-.066-1.073-.066-3.832,0-5.744,1.963-5.744,5.857v10.093c0,.911.235,1.081,1.074,1.081h.37c.906,0,1.074-.17,1.074-1.081v-9.957c0-2.539.84-3.59,3.226-3.59.167,0,.5.033,1.04.066.836.137,1.042-.033,1.042-.878v-.34C1029.832,722.332,1029.663,722.093,1028.823,721.992Z" fill="#562e0e" fill-rule="evenodd"/>
    <path id="Path_107" data-name="Path 107" d="M1035.907,728.324c0-2.742,1.513-4.13,4.531-4.13s4.533,1.388,4.533,4.13v1.119h-9.064v-1.119Zm10.141,3.254c.909,0,1.109-.2,1.212-1.054a12.858,12.858,0,0,0,.1-1.827c0-4.436-2.416-6.77-6.885-6.77-4.737,0-7.087,2.369-7.087,7.142v3.151c0,4.977,2.417,7.077,7.76,7.077a15.435,15.435,0,0,0,4.6-.644c.906-.269,1.041-.509,1.041-1.218v-.3c0-.846-.27-1.118-1.076-.88a16.57,16.57,0,0,1-4.566.643c-3.727,0-5.24-1.222-5.24-4.3v-1.014Z" fill="#562e0e" fill-rule="evenodd"/>
    <path id="Path_108" data-name="Path 108" d="M1064.082,734.929c0-2.3-.942-3.419-3.361-4.539l-4.267-1.964a2.523,2.523,0,0,1-1.778-2.238c0-1.353.939-1.892,3.392-1.892a12.942,12.942,0,0,1,4.2.64c.775.24,1.074.034,1.074-.81v-.307c0-.776-.2-.978-1.006-1.251a12.253,12.253,0,0,0-4.2-.641c-4.068,0-5.943,1.318-5.943,4.261,0,2.272.87,3.323,3.122,4.407l4.1,1.964c1.645.811,2.183,1.353,2.183,2.437,0,1.457-1.01,1.929-3.66,1.929a18.8,18.8,0,0,1-4.941-.675c-.8-.17-1.075.034-1.075.879v.273c0,.709.236,1.013,1.075,1.251a17.219,17.219,0,0,0,4.739.642C1062.063,739.295,1064.082,737.942,1064.082,734.929Z" fill="#562e0e" fill-rule="evenodd"/>
    <path id="Path_109" data-name="Path 109" d="M1091.242,732.185c0,3.353-1.242,4.709-4.836,4.709-3.629,0-4.836-1.356-4.836-4.709v-3.149c0-3.354,1.242-4.707,4.836-4.707s4.836,1.353,4.836,4.707v3.149Zm2.519.034V716.338c0-.915-.238-1.085-1.075-1.085h-.37c-.905,0-1.074.17-1.074,1.085V724.4c-.907-1.658-2.651-2.469-5.242-2.469-4.633,0-6.951,2.369-6.951,7.144v3.149c0,4.741,2.351,7.077,7.357,7.077C1091.306,739.3,1093.761,736.926,1093.761,732.219Z" fill="#562e0e" fill-rule="evenodd"/>
    <path id="Path_110" data-name="Path 110" d="M1101.042,728.324c0-2.742,1.513-4.13,4.535-4.13s4.533,1.388,4.533,4.13v1.119h-9.068v-1.119Zm10.143,3.254c.906,0,1.108-.2,1.21-1.054a12.713,12.713,0,0,0,.1-1.827c0-4.436-2.416-6.77-6.884-6.77-4.737,0-7.087,2.369-7.087,7.142v3.151c0,4.977,2.417,7.077,7.759,7.077a15.452,15.452,0,0,0,4.6-.644c.907-.269,1.038-.509,1.038-1.218v-.3c0-.846-.268-1.118-1.073-.88a16.583,16.583,0,0,1-4.568.643c-3.727,0-5.24-1.222-5.24-4.3v-1.014Z" fill="#562e0e" fill-rule="evenodd"/>
    <path id="Path_111" data-name="Path 111" d="M1131.528,735.335a7.9,7.9,0,0,1-1.209-4.876v-4.945c0-2.27.407-3.894,1.209-4.878q1.212-1.521,4.735-1.523c2.356,0,3.93.509,4.737,1.523q1.212,1.476,1.21,4.878v4.945q0,3.35-1.21,4.876c-.807.982-2.381,1.49-4.737,1.49s-3.927-.508-4.735-1.49Zm5.108,3.928,2.719,3.015a2.831,2.831,0,0,0,2.485,1.08h.436c1.179,0,1.278-.2.437-1.048l-3.389-3.317c3.924-.812,5.5-3.522,5.5-8.534v-4.945c0-2.945-.636-5.18-1.879-6.638s-3.5-2.2-6.685-2.2-5.437.744-6.68,2.2-1.884,3.693-1.884,6.638v4.945c0,5.453,1.845,8.091,6.787,8.6A10.336,10.336,0,0,0,1136.636,739.263Z" fill="#562e0e" fill-rule="evenodd"/>
    <path id="Path_112" data-name="Path 112" d="M1163.832,732.963v-9.617c0-.845-.165-1.084-1.074-1.084h-.372c-.834,0-1.072.239-1.072,1.084v9.617c0,2.812-1.143,3.93-4.468,3.93s-4.5-1.186-4.5-3.93v-9.617c0-.845-.17-1.084-1.074-1.084h-.369c-.84,0-1.077.239-1.077,1.084v9.617c0,4.234,2.35,6.333,7.019,6.333C1161.683,739.3,1163.832,737.163,1163.832,732.963Z" fill="#562e0e" fill-rule="evenodd"/>
    <path id="Path_113" data-name="Path 113" d="M1180.185,729.442h-9.07v-1.118c0-2.742,1.512-4.13,4.532-4.13s4.538,1.388,4.538,4.13v1.118Zm-4.5-7.516c-4.737,0-7.089,2.369-7.089,7.143v3.151c0,4.977,2.42,7.077,7.759,7.077a15.382,15.382,0,0,0,4.6-.644c.908-.269,1.042-.508,1.042-1.218v-.3c0-.846-.271-1.118-1.074-.88a16.569,16.569,0,0,1-4.57.642c-3.726,0-5.238-1.22-5.238-4.3v-1.015h10.146c.905,0,1.1-.2,1.2-1.052a12.787,12.787,0,0,0,.1-1.828C1182.568,724.261,1180.149,721.926,1175.683,721.926Z" fill="#562e0e" fill-rule="evenodd"/>
    <path id="Path_114" data-name="Path 114" d="M1189.248,715.388a1.662,1.662,0,0,0-1.682,1.66,1.634,1.634,0,0,0,1.682,1.625,1.6,1.6,0,0,0,1.61-1.625A1.627,1.627,0,0,0,1189.248,715.388Z" fill="#562e0e" fill-rule="evenodd"/>
    <path id="Path_115" data-name="Path 115" d="M1189.414,722.262h-.373c-.9,0-1.073.239-1.073,1.084v14.527c0,.914.169,1.084,1.073,1.084h.373c.839,0,1.073-.17,1.073-1.084V723.346C1190.487,722.5,1190.253,722.262,1189.414,722.262Z" fill="#562e0e" fill-rule="evenodd"/>
    <path id="Path_116" data-name="Path 116" d="M1197.74,715.388a1.656,1.656,0,0,0-1.645,1.66,1.627,1.627,0,0,0,1.645,1.625,1.606,1.606,0,0,0,1.645-1.625A1.634,1.634,0,0,0,1197.74,715.388Z" fill="#562e0e" fill-rule="evenodd"/>
    <path id="Path_117" data-name="Path 117" d="M1197.91,722.262h-.372c-.908,0-1.075.239-1.075,1.084v12.293a12.432,12.432,0,0,1-1.442,6.469,8.7,8.7,0,0,1-1.312,1.424c-.572.506-.606.743-.169,1.455l.2.3c.505.711.709.779,1.281.34a10.3,10.3,0,0,0,2.889-3.658,15.728,15.728,0,0,0,1.074-6.5V723.346C1198.984,722.5,1198.745,722.262,1197.91,722.262Z" fill="#562e0e" fill-rule="evenodd"/>
    <path id="Path_118" data-name="Path 118" d="M1216.346,732.185c0,3.353-1.211,4.709-4.806,4.709s-4.87-1.356-4.87-4.709v-3.149c0-3.354,1.243-4.707,4.87-4.707,3.595,0,4.806,1.353,4.806,4.707v3.149Zm-4.806-10.259c-4.934,0-7.387,2.369-7.387,7.11v3.149c0,4.741,2.247,7.111,7.387,7.111,4.869,0,7.323-2.37,7.323-7.111v-3.149C1218.863,724.295,1216.644,721.926,1211.54,721.926Z" fill="#562e0e" fill-rule="evenodd"/>
    <path id="Path_119" data-name="Path 119" d="M824.948,764.449l2.31-8.433c.5-1.861.9-2.3,2.074-2.3,1.106,0,1.54.439,2.044,2.3l2.31,8.433Zm9.073-8.128a9.662,9.662,0,0,0-1.707-3.93,3.734,3.734,0,0,0-2.982-1.048,3.839,3.839,0,0,0-3.009,1.048,10.577,10.577,0,0,0-1.709,3.93l-4.485,16.222c-.234.847-.069,1.116.835,1.116h.37c.937,0,1.205-.2,1.44-1.116l1.539-5.689H834.32l1.574,5.689c.233.914.5,1.116,1.439,1.116h.334c.905,0,1.072-.269.838-1.116Z" fill="#562e0e" fill-rule="evenodd"/>
    <path id="Path_120" data-name="Path 120" d="M849.442,756.694c-.4-.036-.771-.071-1.071-.071-3.815,0-5.724,1.968-5.724,5.862v10.09c0,.917.233,1.085,1.071,1.085h.368c.905,0,1.072-.168,1.072-1.085V762.62c0-2.538.837-3.59,3.213-3.59.166,0,.5.034,1.037.067.837.138,1.039-.033,1.039-.878v-.34C850.447,757.03,850.277,756.8,849.442,756.694Z" fill="#562e0e" fill-rule="evenodd"/>
    <path id="Path_121" data-name="Path 121" d="M864.2,771.222a10.33,10.33,0,0,1-2.981.338c-2.04,0-3.076-1.049-3.076-3.591v-8.6h5.42c.836,0,1.037-.2,1.037-1.047v-.306c0-.85-.2-1.052-1.037-1.052h-5.42v-3.486c0-.711-.2-.915-.906-.915H857c-.77,0-.969.2-1,.915l-.367,3.486-1.909.272c-.7.1-.9.272-.9,1.05v.169c0,.778.132.914.9.914h1.909v8.6q0,6,5.621,5.994a11.1,11.1,0,0,0,2.915-.337c.8-.237,1.035-.54,1.035-1.218V772.1C865.2,771.255,864.971,771.052,864.2,771.222Z" fill="#562e0e" fill-rule="evenodd"/>
    <path id="Path_122" data-name="Path 122" d="M880.327,764.144h-9.038v-1.119c0-2.742,1.508-4.133,4.52-4.133s4.518,1.391,4.518,4.133v1.119Zm-4.485-7.519c-4.721,0-7.061,2.373-7.061,7.147v3.149c0,4.977,2.411,7.077,7.731,7.077a15.276,15.276,0,0,0,4.586-.642c.9-.272,1.037-.509,1.037-1.218v-.307c0-.847-.267-1.118-1.071-.882a16.345,16.345,0,0,1-4.552.646c-3.715,0-5.223-1.219-5.223-4.3v-1.02H881.4c.9,0,1.1-.2,1.2-1.048a12.559,12.559,0,0,0,.1-1.831C882.7,758.962,880.293,756.625,875.842,756.625Z" fill="#562e0e" fill-rule="evenodd"/>
    <path id="Path_123" data-name="Path 123" d="M896.021,765.092l-4.253-1.965c-1.172-.542-1.774-1.286-1.774-2.234,0-1.355.939-1.9,3.381-1.9a12.73,12.73,0,0,1,4.183.643c.771.233,1.07.032,1.07-.812v-.308c0-.776-.2-.981-1-1.252a12.277,12.277,0,0,0-4.188-.644c-4.05,0-5.925,1.322-5.925,4.268,0,2.267.872,3.317,3.114,4.4l4.085,1.961c1.637.815,2.171,1.357,2.171,2.44,0,1.455-1,1.93-3.646,1.93a18.485,18.485,0,0,1-4.921-.679c-.8-.168-1.07.034-1.07.881v.275c0,.709.236,1.013,1.07,1.251a17.093,17.093,0,0,0,4.721.644c4.318,0,6.325-1.356,6.325-4.373C899.366,767.327,898.432,766.209,896.021,765.092Z" fill="#562e0e" fill-rule="evenodd"/>
    <path id="Path_124" data-name="Path 124" d="M914.355,768.546c0,2.439-1.3,3.25-4.52,3.25-2.507,0-3.747-.948-3.747-2.878,0-2.135,1.3-2.946,4.351-2.946h3.916v2.574Zm-4.52-11.921a16.521,16.521,0,0,0-3.615.338c-.8.17-1,.375-1,1.155v.267c0,.815.267,1.019,1.071.85a16.479,16.479,0,0,1,3.683-.375c2.945,0,4.383.88,4.383,3.085v2.031h-3.95c-4.651,0-6.829,1.455-6.829,4.942,0,3.42,2.312,5.08,6.294,5.08,4.856,0,7-1.59,7-5.349v-6.7C916.866,758.385,914.524,756.625,909.835,756.625Z" fill="#562e0e" fill-rule="evenodd"/>
    <path id="Path_125" data-name="Path 125" d="M928.808,756.625c-4.65,0-6.995,2.1-6.995,6.334v9.618c0,.915.233,1.082,1.07,1.082h.371c.9,0,1.069-.167,1.069-1.082v-9.618c0-2.741,1.173-3.93,4.485-3.93s4.419,1.119,4.419,3.93v9.618c0,.915.169,1.082,1.072,1.082h.4c.9,0,1.071-.167,1.071-1.082v-9.618C935.772,758.759,933.63,756.625,928.808,756.625Z" fill="#562e0e" fill-rule="evenodd"/>
    <path id="Path_126" data-name="Path 126" d="M951.095,768.546c0,2.439-1.3,3.25-4.518,3.25-2.513,0-3.75-.948-3.75-2.878,0-2.135,1.308-2.946,4.352-2.946h3.916v2.574Zm-4.518-11.921a16.508,16.508,0,0,0-3.617.338c-.8.17-1,.375-1,1.155v.267c0,.815.268,1.019,1.07.85a16.466,16.466,0,0,1,3.683-.375c2.945,0,4.384.88,4.384,3.085v2.031h-3.949c-4.654,0-6.83,1.455-6.83,4.942,0,3.42,2.311,5.08,6.294,5.08,4.856,0,6.995-1.59,6.995-5.349v-6.7C953.6,758.385,951.264,756.625,946.577,756.625Z" fill="#562e0e" fill-rule="evenodd"/>
    <path id="Path_127" data-name="Path 127" d="M963.039,771.459h-.168c-1.14,0-1.708-.846-1.708-2.573V751.04c0-.916-.235-1.086-1.069-1.086h-.367c-.906,0-1.073.17-1.073,1.086v18.284c0,3.014,1.472,4.54,3.881,4.54a2.4,2.4,0,0,0,.6-.036c.767-.135.935-.406.935-1.253v-.237C964.074,771.561,963.943,771.459,963.039,771.459Z" fill="#562e0e" fill-rule="evenodd"/>
    <path id="Path_128" data-name="Path 128" d="M992.381,766.886c0,3.355-1.238,4.711-4.815,4.711-3.618,0-4.824-1.356-4.824-4.711v-3.149c0-3.354,1.24-4.707,4.824-4.707s4.815,1.353,4.815,4.707v3.149Zm1.439-16.932h-.365c-.9,0-1.074.17-1.074,1.086V759.1c-.9-1.661-2.641-2.472-5.22-2.472-4.621,0-6.929,2.373-6.929,7.146v3.15c0,4.738,2.341,7.077,7.334,7.077,4.883,0,7.325-2.371,7.325-7.077V751.04C994.891,750.124,994.657,749.954,993.82,749.954Z" fill="#562e0e" fill-rule="evenodd"/>
    <path id="Path_129" data-name="Path 129" d="M1011.79,766.886c0,3.355-1.206,4.711-4.787,4.711s-4.852-1.356-4.852-4.711v-3.149c0-3.354,1.237-4.707,4.852-4.707,3.581,0,4.787,1.353,4.787,4.707v3.149ZM1007,756.625c-4.919,0-7.363,2.373-7.363,7.112v3.149c0,4.741,2.241,7.112,7.363,7.112,4.852,0,7.3-2.371,7.3-7.112v-3.149C1014.3,759,1012.091,756.625,1007,756.625Z" fill="#562e0e" fill-rule="evenodd"/>
    <path id="Path_130" data-name="Path 130" d="M1042.805,770.645a13.34,13.34,0,0,1-4.818.881c-4.151,0-5.891-1.929-5.891-5.959v-5.419c0-4.367,1.774-6.334,5.789-6.334a11.755,11.755,0,0,1,4.688.913c.7.308,1.035.035,1.035-.776v-.441c0-.71-.2-.982-.967-1.287a12.643,12.643,0,0,0-4.654-.88c-5.689,0-8.537,2.947-8.537,8.8v5.419c0,5.79,2.713,8.433,8.6,8.433a11.037,11.037,0,0,0,4.752-.85c.8-.371,1.005-.64,1.005-1.354v-.405C1043.81,770.544,1043.575,770.342,1042.805,770.645Z" fill="#562e0e" fill-rule="evenodd"/>
    <path id="Path_131" data-name="Path 131" d="M1059.637,764.144H1050.6v-1.119c0-2.742,1.507-4.133,4.518-4.133s4.521,1.391,4.521,4.133v1.119Zm-4.487-7.519c-4.72,0-7.059,2.373-7.059,7.147v3.149c0,4.977,2.407,7.077,7.728,7.077a15.269,15.269,0,0,0,4.587-.642c.906-.272,1.035-.509,1.035-1.218v-.307c0-.847-.265-1.118-1.067-.882a16.361,16.361,0,0,1-4.555.646c-3.714,0-5.221-1.219-5.221-4.3v-1.02h10.111c.905,0,1.1-.2,1.2-1.048a12.88,12.88,0,0,0,.1-1.831C1062.013,758.962,1059.6,756.625,1055.15,756.625Z" fill="#562e0e" fill-rule="evenodd"/>
    <path id="Path_132" data-name="Path 132" d="M1073.757,756.694c-.4-.036-.773-.071-1.071-.071-3.821,0-5.726,1.968-5.726,5.862v10.09c0,.917.231,1.085,1.07,1.085h.373c.9,0,1.069-.168,1.069-1.085V762.62c0-2.538.836-3.59,3.214-3.59.167,0,.5.034,1.035.067.839.138,1.039-.033,1.039-.878v-.34C1074.76,757.03,1074.592,756.8,1073.757,756.694Z" fill="#562e0e" fill-rule="evenodd"/>
    <path id="Path_133" data-name="Path 133" d="M1085.432,756.694c-.4-.036-.771-.071-1.069-.071-3.817,0-5.726,1.968-5.726,5.862v10.09c0,.917.235,1.085,1.069,1.085h.371c.905,0,1.07-.168,1.07-1.085V762.62c0-2.538.84-3.59,3.216-3.59.168,0,.5.034,1.035.067.836.138,1.041-.033,1.041-.878v-.34C1086.439,757.03,1086.269,756.8,1085.432,756.694Z" fill="#562e0e" fill-rule="evenodd"/>
    <path id="Path_134" data-name="Path 134" d="M1099.554,768.546c0,2.439-1.3,3.25-4.517,3.25-2.513,0-3.752-.948-3.752-2.878,0-2.135,1.3-2.946,4.351-2.946h3.918v2.574Zm-4.517-11.921a16.51,16.51,0,0,0-3.619.338c-.8.17-1,.375-1,1.155v.267c0,.815.269,1.019,1.073.85a16.426,16.426,0,0,1,3.68-.375c2.945,0,4.383.88,4.383,3.085v2.031H1095.6c-4.653,0-6.828,1.455-6.828,4.942,0,3.42,2.311,5.08,6.29,5.08,4.856,0,7-1.59,7-5.349v-6.7C1102.064,758.385,1099.723,756.625,1095.037,756.625Z" fill="#562e0e" fill-rule="evenodd"/>
    <path id="Path_135" data-name="Path 135" d="M1118.83,766.886c0,3.355-1.237,4.711-4.819,4.711-3.616,0-4.82-1.356-4.82-4.711v-3.149c0-3.354,1.238-4.707,4.82-4.707s4.819,1.353,4.819,4.707v3.149Zm1.439-16.932h-.368c-.9,0-1.071.17-1.071,1.086V759.1c-.9-1.661-2.645-2.472-5.222-2.472-4.619,0-6.93,2.373-6.93,7.146v3.15c0,4.738,2.344,7.077,7.333,7.077,4.885,0,7.329-2.371,7.329-7.077V751.04C1121.34,750.124,1121.1,749.954,1120.269,749.954Z" fill="#562e0e" fill-rule="evenodd"/>
    <path id="Path_136" data-name="Path 136" d="M1138.237,766.886c0,3.355-1.2,4.711-4.783,4.711s-4.858-1.356-4.858-4.711v-3.149c0-3.354,1.24-4.707,4.858-4.707,3.581,0,4.783,1.353,4.783,4.707v3.149Zm-4.783-10.261c-4.923,0-7.365,2.373-7.365,7.112v3.149c0,4.741,2.241,7.112,7.365,7.112,4.847,0,7.294-2.371,7.294-7.112v-3.149C1140.748,759,1138.539,756.625,1133.454,756.625Z" fill="#562e0e" fill-rule="evenodd"/>
    <path id="Path_137" data-name="Path 137" d="M736.705,755.981c-.229-3.285-1.47-4.536-4.115-4.536-2.411,0-3.584,1.251-4.014,4.536l-1.878,14.19c-.131,1.051-.336,1.322-.869,1.322-.57,0-.736-.238-.871-1.322l-1.875-14.19c-.436-3.352-1.6-4.536-4.014-4.536-2.648,0-3.882,1.251-4.117,4.536l-1.21,16.53c-.026.911.17,1.149,1.072,1.149h.335c.9,0,1.107-.2,1.209-1.149l1.2-16.764c.1-1.456.536-1.932,1.508-1.932.834,0,1.269.441,1.506,1.932l2.109,14.764c.3,2.267,1.236,3.149,3.145,3.149,2.04,0,2.844-.847,3.146-3.149l2.108-14.764c.233-1.456.638-1.932,1.471-1.932,1.039,0,1.443.441,1.541,1.932l1.174,16.764c.1.947.3,1.149,1.207,1.149h.366c.9,0,1.1-.238,1.071-1.149Z" fill="#562e0e" fill-rule="evenodd"/>
    <path id="Path_138" data-name="Path 138" d="M744.294,756.964h-.369c-.9,0-1.069.239-1.069,1.084v14.527c0,.915.167,1.085,1.069,1.085h.369c.84,0,1.073-.17,1.073-1.085V758.048C745.367,757.2,745.134,756.964,744.294,756.964Z" fill="#562e0e" fill-rule="evenodd"/>
    <path id="Path_139" data-name="Path 139" d="M744.13,750.09a1.66,1.66,0,0,0-1.676,1.659,1.629,1.629,0,0,0,1.676,1.624,1.6,1.6,0,0,0,1.608-1.624A1.627,1.627,0,0,0,744.13,750.09Z" fill="#562e0e" fill-rule="evenodd"/>
    <path id="Path_140" data-name="Path 140" d="M758.049,756.625c-4.653,0-6.995,2.1-6.995,6.334v9.618c0,.915.233,1.082,1.073,1.082h.368c.9,0,1.07-.167,1.07-1.082v-9.618c0-2.741,1.175-3.93,4.484-3.93s4.417,1.119,4.417,3.93v9.618c0,.915.17,1.082,1.072,1.082h.4c.9,0,1.073-.167,1.073-1.082v-9.618C765.014,758.759,762.868,756.625,758.049,756.625Z" fill="#562e0e" fill-rule="evenodd"/>
    <path id="Path_141" data-name="Path 141" d="M780.335,768.546c0,2.439-1.3,3.25-4.518,3.25-2.512,0-3.752-.948-3.752-2.878,0-2.135,1.3-2.946,4.354-2.946h3.916v2.574Zm-4.518-11.921a16.549,16.549,0,0,0-3.62.338c-.8.17-1,.375-1,1.155v.267c0,.815.265,1.019,1.071.85a16.485,16.485,0,0,1,3.683-.375c2.943,0,4.385.88,4.385,3.085v2.031h-3.95c-4.655,0-6.829,1.455-6.829,4.942,0,3.42,2.311,5.08,6.293,5.08,4.857,0,7-1.59,7-5.349v-6.7C782.847,758.385,780.5,756.625,775.817,756.625Z" fill="#562e0e" fill-rule="evenodd"/>
    <path id="Path_142" data-name="Path 142" d="M796.161,765.092l-4.251-1.965a2.514,2.514,0,0,1-1.771-2.234c0-1.355.936-1.9,3.381-1.9a12.716,12.716,0,0,1,4.18.643c.772.233,1.07.032,1.07-.812v-.308c0-.776-.2-.981-1-1.252a12.285,12.285,0,0,0-4.186-.644c-4.054,0-5.924,1.322-5.924,4.268,0,2.267.869,3.317,3.111,4.4l4.086,1.961c1.638.815,2.171,1.357,2.171,2.44,0,1.455-1,1.93-3.645,1.93a18.509,18.509,0,0,1-4.922-.679c-.8-.168-1.07.034-1.07.881v.275c0,.709.235,1.013,1.07,1.251a17.107,17.107,0,0,0,4.72.644c4.32,0,6.328-1.356,6.328-4.373C799.509,767.327,798.571,766.209,796.161,765.092Z" fill="#562e0e" fill-rule="evenodd"/>
    <circle id="Ellipse_3" data-name="Ellipse 3" cx="105.329" cy="105.329" r="105.329" transform="matrix(0.956, -0.292, 0.292, 0.956, 785.572, 356.912)" fill="#faac18"/>
    <path id="Path_143" data-name="Path 143" d="M936.476,477.155c-6.4,17.482,1.658,30.186,12.984,44.564,6.232,7.911-19.953,21,17.94,44.04l14.337,8.72c1.784,1.082-8.066.224-16.618.228-11.406.007-25.1.434-28.01.613-1.567.1-19.367.032-20.077-.383-.091-2.673-.775-6.067.337-7.96-1.229-2.967,8-19.826,6.156-29.783-1.157-6.249,4.226-13.809-4.485-25.569-3.648-4.926-8.47-15.524-14.823-20.049-6.266-4.462-15.75-17.5-24.677-20-8.864-2.486-18.551-13.511-23.21-21.133-.809-1.323-6.77-5.88-7.061-6.382-.474-.065-15.9-11.257-20.222-11.874-5.138-.732,2.088-4.215-13.07-1.666-9.551,1.606-19.322-1.021-22.659-10.408-2.131-6-2.862-5.826-8.686-6.629a14.545,14.545,0,0,0-1.353-.858,28.444,28.444,0,0,0-2.446,3.162c-1.165,2.493-7.257,6.716-9.017,6.308a11.965,11.965,0,0,0-9.322,1.558c6.445-6.245,15.8-3.605,19.685-13.144-.858-.3-1.826-2.355-7.916-3.681-2.511-.547-10.665-.527-14.25,1.354-4.815,2.526-8.457-5.637-20.373-3.551-7.573,1.326-14.125.446-17.922,7.506-3.3,6.142-23.185-1.591-30.352-2.582-2.432-.335,4.9-1.029,9.567-.385,4.174.576,15.042,4.226,16.752,3.143,6.817-4.312-3.619-4.454,15.044-9.329,15.1-3.943,9.723-6.1,24.019.023-2.042-3.049-5.91-9.4-6.421-10.315a13.527,13.527,0,0,0-.77-1.226c-4.117,1.5-7.686,3.168-13.227,4.954-5.673,1.826-27.645-3.435-12.211-.964,2.274.365,18.229-2.867,19.91-3.887,1.453-.883,2.534-1.69,3.477-2.373-5.563-4.846-13.746-3.635-13.827-6.464a11.216,11.216,0,0,0-2.534-6.567,14.292,14.292,0,0,1-3.133.726c-3.972.148-5.915,5.1-9.253,5.714-.321,1.367-.289.343-.973,1.387-8.723,13.336-17.968,4.413-19.848,7.737-4.843,8.567-16.734,10.461-25.388,12.354-3.247.711,20.845-10.926,20.971-11.11,5.718-8.239,13.525-1.642,14.385-3.9,3.379.217,10.24-11.869,21.874-14.487a42.834,42.834,0,0,0-8.205-6.218c-.015.1-.038.215-.069.342-5.036.1-12.384,11.751-20.157,6.727-6.993-4.521-11.109.372-13.406-2-6.139-6.343,3.1-13.726-5.414-14.9-5.188-.717-5.576-9.666-5.528-9.586,3.256,5.576,12.976,7.721,12.766,10.941-1.2,18.409,1.477,3.84,10.088,9.834,6.995,4.868,12.8,1.009,19.077-2.97a67.432,67.432,0,0,1-6.57-4.278c-6.665-5.26-19.629-9.862-18.942-22.177.67-12.006,1.162-8.127-.336-20.061-.312-2.5-13.312-8.966-9.33-8.662,4.3,2.024,2.279-1.166,8.33,3.02,8.78,6.073,4.182,15.825,6.82,24.25,6.713,21.429,16.491,17.434,29.956,27.73,3.373-1.761.636-2.868,7.39-1.765,3.44.562,5.1-9.834,7.281-10.055,5.8-.587,2.346-4.2,2.991-8.871-.131.949,1.505,6.753,1.978,6.817,3.422.474,5.056-1.384,8.106,1.641,3.593,3.564,12.635-2.374,17.064-1.138-4.67,3.947-13.83,7.083-19.271,2.613-.653-.536-6.069-2.233-7.205-.63-1.018,1.437-5.031,8.635-6.377,8.4-3.033-.519-.029,5.117-7.293,4.114-.795-.109-1.161.649-2.217.87.745.621.658.571,1.425,1.291,8.323,7.826,3.383,12.139,15.255,14.864a8.744,8.744,0,0,1,3.037,2.5c1.637-.48,3.739-.452,7.4.3,1.625.332,11.244-.8,14.952-.626,10.613.494,6.247,4.926,21.621.97,3.794-.977,15.817-.494,18.186,3.129,2.568,3.931,5.185,5.866,7.986,11.1,2.158,4.031,11.476,4.621,15.074,2.521,4.842-2.825,9.245,2.652,12.272,5.736,3.088,3.144,1.64,3.838,5.8,7.607,2.337,2.115-3.121,5.066-4.732,5.772-3.889,1.708-3.6,3.947-4.106,7.275a20.44,20.44,0,0,0,3.315.83c9.609,1.645,7.626,17.618,21.595,18.941,4.788.455,10.578,8.684,16.569,10.541,3.872,1.2,2.629-1.21,3.565-7.97,1.126-8.164-5.375-15.158-14.209-14.914-12.866.357-19.746-15.558-12.088-22.368,1.8-1.6-.048-7.918,12.86-13.947,8.486-3.964.394-13.89,13.522-15.133,3.788-.358,16.26-16.982,1.562-13.02-14.972,4.039-13.358,7.245-19.48,9.717-8.863,3.579-16.207-9.081-25.6-2.114-1.014.751-5.738-.215-7.7-2.82-2.142-2.843-5.977-11.044-8.97-11.458-5.482-.758-9.7-7.467-8.931-13.445,1.124-8.776-16.5,2.081-24.309.885-8.918-1.364-22.039-4.29-23.181-15.339-.707-6.831-1.1,4.723,3.925,6.419,3.451,1.167,4.107,2.213,8.568,2.906a3,3,0,0,0,1.152-1.746c.379-3.015-1.272-3.253-2.549-6.222a23.325,23.325,0,0,1-2.118-11.273l.07-.763.335.607c.1.187.006.451,0,.7a3.3,3.3,0,0,0,.282,1.68c.446.789,1.127,4.278,2.566,7.3.989,2.077,2.622,3.565,2.789,4.1.741,2.392,1.482,4.1.1,5.83l1.318.031c13.566.322,9.349,6.168,23.963-3.539,1.1-.732,15.407-.471,14.009,9.643-1.5,10.858,10.911,7.647,10.789,14.6-.057,3.127,9.316,7.6,15.737,3.841,6.147-3.6,10.612,2.922,18.533-.456,4.324-1.845,8.723-1.933,16.041-5.59,10.557-5.274,30.984,12.584,5.316,21.6-6.508,2.287-11.347,16.79-18.249,24.819-1.779,2.072-6.191,13.088.3,14.953,12.351,3.551,16.215,6.347,19.972,19.213.358,1.227-.574,6.922-.8,8.55,10.209,7.552,2.787-4.8,7.4-9.3,5.207-5.077,7.181-18.757,2.563-25.395-2.258-3.247-6.23-18.005-.16-18.256,4.527-.186,5.132-17.087,2.434-21.6-2.248-3.765,4.733-14.015-6.945-17.488-12.865-3.826-5.55-.528-13.544-10.6-2.832-3.564-8.387.827-11.02-4.863-1.738-3.758-8.965-14.061-13.344-13.632-8.02.786-11.829,15.188-27.454-3.247-5.32-6.277-12.792,5.892-20.99-6.363-2.611-3.9-2.2-8.885-8.346-10.8-5.252-1.64-26.7-34.9-23.442-30.27,4.017,5.728,22.735,27.959,27.813,29.711,6.069,2.1,3.092,11.551,13.314,12.962,6.21.857,10.055.534,15.681,1.312,5.233,5.467,8.578,8.181,17.207,4.677,15.458-6.275,20.482,14.472,27.021,15.376,10.966,1.514,7.692,2.571,10.432,7.241a1.47,1.47,0,0,1,.378-.33c.374-.234,1.947-1.355,1.817-1.74.261-1.888,2.424-9.626,1.24-10.691-9.485-8.528-3.19-7.74-5.283-17.185-2.539-11.454-15.748-9.108-16.057-14.072-.6-9.562,2.02-5.625-4.44-11.644-5.491-5.117-10.4-.4-8.685-12.819,1.4-10.106-15.8-6.118,2.9-25.134,7.912,5.2-6.638,2.922-2.314,14.338,3.6,9.5-.476,9.786,6.246,18.481,1.968,2.547,6.01-3.36,10.609,13.011a5.426,5.426,0,0,0,2.623,3.221c.166-7.115,5.961-2.606,5.913-10.908-.013-2.315-3.257-5.226-3.047-12.373.2-6.854.1-3.718,1.625.688,1.068,3.079-1.736,1.182,2.5,7.837,1.763,2.77.56,5.231,5.3-1.7,2.537-3.711-1.6-6.837,5.7-8.163,3.539-.643-1.8-2.409-2.844,7.469-.34,3.2-3.82,7-6.648,8.224-3.374,1.463-2.719,8.742-4.036,11.171a18.416,18.416,0,0,1,7.841,7.122c2.867,4.7,1.475,4.23,2.1,9.68-.061.381.89,4.224,1.6,4.625,4.821,2.732,1.818,9.455,2.953,11.8,2.582,5.322,1.883,5.353,2.312,11.257a16.433,16.433,0,0,1-.162,2.517,7.91,7.91,0,0,1,3.93,3.983c.233.464.136.505.483.636,6.242-.1,2.076,2.281,5.048,6.176,1.2,1.581-.54,5.011,2.282,9.737,1.716-.4,2.682-1.313,5.684-.767,2.026.371,3.722-4.012,3.991-6.229a3.943,3.943,0,0,1,2.19-2.919c-.638-6.319-5.569-10.758-3.978-15.447,1.577-4.654,5.515-6.733,4.552-9.415-2.928-8.147,1.1-10.631,1.934-16.685.628-4.54-3.542-7.847-.712-11.907,3.971-5.7,3.743-4.813,4.795-11.472.832-5.271-10.608-13.957-14.126-15.24-4.092-1.491-9.355-15.71-10.409-19.314.691.181,3.713,7.468,4.467,8.868,3.182,5.915,9.91,7.62,15,13.7,4.7,5.612,8.089,6.407,9.065,10.857,1.4-.183,3.494,1.329,6.675.775,6.883-1.2-.167-17.421,6.633-16.5,7.312.989.529-9.53,14.067-10.7,2.138-.183,6.552-.516,8.14-2.016,1.057.375-6.924,5.8-11.464,5.659-5.353-.168-1.594,9.162-8.712,9.338-7.14.175,3.889,15.191-6.737,17.28-3.527.695-7.7.478-8.558,5.22l-.192.259A10.549,10.549,0,0,0,937.8,316.1c-2.418,3.505-7.586,5.443-3.885,11.087.624.956,2.147,5.635,1.888,7.505-1.264,9.165-1.8,6.287-4.325,13.809a103.109,103.109,0,0,0-2.342,10.774c.492.115-.37,2.492.553,4.6a16.312,16.312,0,0,1,1.529,5.961c2.319-1.374,4.418-3.416,3.693-8.708-.756-5.539,6.835-2.815,4.595-13.606-2.768-13.341,4.755-5.566,15.669-15.084,2.484-2.166-1.115.409-2.61,3.12-5.55,10.064-16.478,1.951-10.8,16.187,2.073,5.2-4.839,7.9-5.316,11.346-1.678,12.161-3.54,7.354-7.891,14.041-2.071,3.187,1.837,9.5-9.793,7.9l-1.894-.263c-.872,3.251-3.617,7.726-1.466,14.811.985,3.246-3.263,11.78,3.9,23.538.047.077-1.046,19.586-3.1,21.79-16.137,17.331,3.031,2.459,4.767.155,9.2-12.211,1.409-11.811,12.867-21.051,8.483-6.838-8.42-16.021,8.449-26.857,7.891-5.069,9.083-16.233,7.4-24.71-1.409-7.089,5.182-30.718,12.756-32.789a61.022,61.022,0,0,0,14.85-6.03c3.1,2.246-21.776,7.866-20.854,20.358.587,7.942-5.878,5.782-3.066,17.028,1.816,7.257-1.766,27.583-7.908,32.524-2.828,2.279-3.487,15.705-4.08,15.827,3.336-7.935,16.042-.232,22.447-5.956,9.766-8.725,18.166-8.351,23.629-15.378,6.5-8.362,6.268-10.093,14.506-13.37a1.22,1.22,0,0,0-.15-.164c-1.006-.929-.255-6.154.13-6.381a14.826,14.826,0,0,1,2.334-6.247c7.053-9.787,2.72-24.443,7.06-27.1,7.111-4.35,5.168-1.833,10.963-8.973a35.5,35.5,0,0,1,4.278-4.515h0c-.56-.078-.053-1.551.125-1.9a4.608,4.608,0,0,0-.068-4.478,3.9,3.9,0,0,0-1.531-1.5c-1.252-4.031-12.812,2.535-9.55-15.14,4.733-25.657-2.178,8.465,7.282,9.421,12.141,1.226,4.095,7.473,7.35,11.148,6.061-3.007,10.881.311,19.122-.719,16.41-2.052,13.634-4.548,6.1.436-12.88,8.521-17.337-2.931-26.5,6.064l-.31.3c2.106.135,2.476-.671,7.032,3.295,1.468,1.278,11.525.263,14.4,1.334.442.162,10.433,3.042,10.477,3.047,5.686.786,6.261-1.249,8.567-1.245.015,0,1.419,1.281-1.31,1.24-1.883-.027-.211,2.544-10.609,1.108-3.191-.44-9.338-.765-11.924-2.334-2.643-1.6-7.671,1.9-13.04,1.162-4.814-.666-1.643-3.394-6.726-4.679-9.32,8.323-10.559,6.168-12.886,23.019-1.6,11.564-8.239,15.4-7.1,22.488l.066-.024c6.792-2.426,2.248-4.609,11.745-1.271,3.345,1.174,9.494.209,15.695-1.7-.226-.589-.455-1.208-.686-1.865-.931-2.649-5.286-11.328-3.342-13.9,1.5-1.988,1,4.622,1.222,5.3a48.9,48.9,0,0,0,2.25,5.432,15.335,15.335,0,0,0,1.969,4.583c7.1-2.351,13.988-5.834,16.514-8.655.754,2.939-5.777,8.785-12.945,13.231,3,3.273,6.537,6.275,8.986,9.283.505,0-.038-3.412,1.609-3.408a9.288,9.288,0,0,0,6.454-3.983c1.08-1.484,9.908-9.6,10.452-8.194,1.684,4.366-.511.244-4.126,3.946-1.723,1.766-.964,2.4-3.631,5.1-3.838,3.873-2.81,5-8.337,7.847-3.12,1.6-2.347,11.18,1.905,13.552,2.431,1.356-4.533,4.106-5.439,4.444-2.535.946-4.314,4.556-6.869,7.4,3.839.364,8.512-.07,14.695-3.05,5.7-2.75,12.365-4,17.524-7.915-7.751,5.865-15.094,14.82-27.15,15.973-22.492,2.155-9.581-2.806-29.99,9.419-7.151,4.283-13.539-4.936-23.483,4.494-1.463,1.389-40.073,22.457-42.457,22.917-1.425.275-4.482,7.421-5.355,8.6-1.635-.084-5.845,5.808-6.29,6.273Zm-182.966-87c3.569,4.471,7.613,10.558,8.953,13.683,5.5-.734,15.252-3.128,19.794-2.5,10.892,1.5.382,10.8,12.525,11.974,4.582.442,3.229,6.705,11.787,7.888,3.97.548,13.924-1.49,23.105-.223,6.032.833,7.928,2.9,9.592,5.054.12-3.207-.522-.823,5.22-5.115,1.692-1.263.58-5.778-1.376-7.731-5.624-5.614-2.194-9.1-14.069-2.916-6.078,3.166-10.675-7-13.446-10.986-3.112-4.474-2.435-4.3-8.32-7.4-3.922-2.062-5.569-4.738-10.984-.227-6.529,5.438-24.205-5.556-36.769-2.99-2.283.465-4.241.963-6.012,1.489Zm282.029-4.249c-4.518,2.548-8.991,4.357-11.791,4.375-5.2.032-6.68,2.248-13.576-1.778-6.362-3.715-14.178,11.827-25.449,16.849-9.765,4.354,1.724,12.7-20.34,16.3-11.973,1.958-27.025,6.982-35.089,16.592-2.608,3.11-2.765,9.358-12.079,18.932-8.9,9.149-8.121,1.822-10.189,16.8-.027.187,19.337,17.292,19.635,14.4,1.828-17.634,7.467-34.7,26.467-39.165,11.675-2.739,18.055-19.431,27.937-17.863,8.04,1.275,9.093-3.045,19.887-2.35,7.949.511,14.6-1.469,20.219-7.005,4.889-4.81,8.631-3.346,13.783-2.224a20.886,20.886,0,0,1,4.843-2.308c.049-.018,8.486-8.856,7.671-10.124-2.363-3.668-.064-9.605-1.867-12.407C1042.84,390.655,1039.672,393.221,1035.539,385.908Z" fill="#562e0e" fill-rule="evenodd"/>
    <path id="Path_144" data-name="Path 144" d="M1009.64,298.112c-2.359.424-5.509-1.259-4.106,2.651.5,1.4,2.714-2.1.752,2.445-.445,1.024-2.4,1.072-.815,5.542.476,1.334,2.132-1.219,2.487,1.653.155,1.256,3.38-2.259,3.38.054,0,2.27,1.474.008,4.421,1.455s5.21.668,8.862,1.271c1.188.2.1-6.037.9-6.978,1.481-1.736,7.689-2.734,7.411-7.556a4.711,4.711,0,0,1-3.555-3.355c-2.3-6.558,1.085-2.972-8.013-3.611-3.646-.259-2.717.777-5.549-1.24-.808-.576-9.633-3.087-7.02.7.181.263-4.034.806-.746,4.251,2.255,2.361.9,1.426,1.441,2.519Z" fill="#fcb614" fill-rule="evenodd"/>
  </g>
</svg>
