<svg xmlns="http://www.w3.org/2000/svg" width="108.002" height="81.802" viewBox="0 0 108.002 81.802">
  <path id="Caminho_209" data-name="Caminho 209" d="M554.148,1510.736H543.6V1503.1a1.1,1.1,0,0,0-1.1-1.1H449.34a1.1,1.1,0,0,0-1.1,1.1v72.571a7.143,7.143,0,0,0,7.136,7.135h92.946a6.927,6.927,0,0,0,6.92-6.919v-64.051A1.1,1.1,0,0,0,554.148,1510.736Zm-1.1,65.147a4.726,4.726,0,1,1-9.452,0v-3.037a1.1,1.1,0,0,0-2.193,0v3.037a6.892,6.892,0,0,0,1.873,4.726h-87.9a4.948,4.948,0,0,1-4.942-4.943v-71.473h90.97V1562.6a1.1,1.1,0,1,0,2.193,0v-49.676h9.452v62.954Zm-60.041-59.325H458.074a1.1,1.1,0,0,0-1.1,1.1v26.2a1.1,1.1,0,0,0,1.1,1.1H493.01a1.1,1.1,0,0,0,1.1-1.1v-26.2A1.1,1.1,0,0,0,493.01,1516.558Zm-1.1,26.2H459.171v-24.007h32.743Zm5.822-25.1a1.1,1.1,0,0,1,1.1-1.1h34.936a1.1,1.1,0,0,1,0,2.194H498.832A1.1,1.1,0,0,1,497.736,1517.655Zm0,8.736a1.1,1.1,0,0,1,1.1-1.1h34.936a1.1,1.1,0,1,1,0,2.193H498.832A1.1,1.1,0,0,1,497.736,1526.391Zm0,8.736a1.1,1.1,0,0,1,1.1-1.1h34.936a1.1,1.1,0,1,1,0,2.193H498.832A1.1,1.1,0,0,1,497.736,1535.127Zm1.1,9.833a1.1,1.1,0,0,1,0-2.194h34.936a1.1,1.1,0,0,1,0,2.194Zm-4.726,7.639a1.1,1.1,0,0,1-1.1,1.1H458.074a1.1,1.1,0,1,1,0-2.193H493.01A1.1,1.1,0,0,1,494.107,1552.6Zm0,8.729a1.1,1.1,0,0,1-1.1,1.1H458.074a1.1,1.1,0,1,1,0-2.193H493.01A1.1,1.1,0,0,1,494.107,1561.328Zm0,8.729a1.1,1.1,0,0,1-1.1,1.1H458.074a1.1,1.1,0,0,1,0-2.194H493.01A1.1,1.1,0,0,1,494.107,1570.057Zm41.175-17.458a1.1,1.1,0,0,1-1.1,1.1H499.248a1.1,1.1,0,1,1,0-2.193h34.936A1.1,1.1,0,0,1,535.281,1552.6Zm0,8.729a1.1,1.1,0,0,1-1.1,1.1H499.248a1.1,1.1,0,1,1,0-2.193h34.936A1.1,1.1,0,0,1,535.281,1561.328Zm0,8.729a1.1,1.1,0,0,1-1.1,1.1H499.248a1.1,1.1,0,0,1,0-2.194h34.936A1.1,1.1,0,0,1,535.281,1570.057Z" transform="translate(-447.743 -1501.5)" fill="#fff" stroke="#fff" stroke-miterlimit="10" stroke-width="1"/>
</svg>
