<svg xmlns="http://www.w3.org/2000/svg" xmlns:xlink="http://www.w3.org/1999/xlink" viewBox="0 0 32.36 30.89">
  <defs>
    <linearGradient id="linear-gradient" y1="15.44" x2="32.36" y2="15.44" gradientUnits="userSpaceOnUse">
      <stop offset="0" stop-color="#ffb922"/>
      <stop offset="1" stop-color="#f7941d"/>
    </linearGradient>
    <linearGradient id="linear-gradient-2" x1="7.3" y1="15.44" x2="25.06" y2="15.44" xlink:href="#linear-gradient"/>
    <linearGradient id="linear-gradient-3" x1="23.09" y1="6.83" x2="26.77" y2="6.83" xlink:href="#linear-gradient"/>
  </defs>
  <title>Asset 9</title>
  <g id="Layer_2" data-name="Layer 2">
    <g id="Camada_1" data-name="Camada 1">
      <g>
        <path d="M22.38,30.89H10a10,10,0,0,1-10-10V10A10,10,0,0,1,10,0h12.4a10,10,0,0,1,10,10V20.91A10,10,0,0,1,22.38,30.89ZM10,2.22A7.77,7.77,0,0,0,2.22,10V20.91A7.77,7.77,0,0,0,10,28.67h12.4a7.77,7.77,0,0,0,7.76-7.76V10a7.77,7.77,0,0,0-7.76-7.76Z" fill="url(#linear-gradient)"/>
        <path d="M16.18,24.33a8.89,8.89,0,1,1,8.88-8.89A8.89,8.89,0,0,1,16.18,24.33Zm0-15.55a6.67,6.67,0,1,0,6.67,6.66A6.67,6.67,0,0,0,16.18,8.78Z" fill="url(#linear-gradient-2)"/>
        <path d="M26.77,6.83A1.84,1.84,0,1,1,24.93,5,1.84,1.84,0,0,1,26.77,6.83Z" fill="url(#linear-gradient-3)"/>
      </g>
    </g>
  </g>
</svg>
