<svg xmlns="http://www.w3.org/2000/svg" width="91.46" height="56.7" viewBox="0 0 91.46 56.7">
  <path id="Path_190" data-name="Path 190" d="M1056.345,4854.762c6.8.528,23.531.374,28.692-2.184.2-5.161,2.042-18.349.388-22.352-1.442-3.487-12.4-8.439-11.676-12.79,4.554-1.179,26.471-.237,33.589-.174,4.185.037,6.731.083,8.516,2.984,1.313-9.943-10.673-15.987-18.334-17.934-4.835-1.229-9.52-2.954-14.748-3.575-11.5-1.366-22.158.633-32.708,4.315-7.986,2.788-17.021,7.511-22.861,13.749-1.785,1.906-2.1,4.485-1.938,7.42.18,3.237-.463,5.922-.378,9.381.063.55-1.9,9.058,2.382,14.164,3.79,4.523,12.692,5.646,29.077,6.994Zm30.738-19.637c.023-7.205-7.772-12.342-10.23-14.095-1.229-.876-1.406-.8-1.609-2.407,7.16-.806,12.589-.121,19.572.117,3.661.124,14.946-.331,18.249.688,2.059.637,2.356,8.063,1.664,10.236-3.041,9.548-7.619,6.11-14.281,8.369-2.508.851-7.079,1.088-10.059,1.006l-3.37.283Z" transform="translate(-1024.494 -4798.307)" fill="#faac18" fill-rule="evenodd"/>
</svg>
