<svg xmlns="http://www.w3.org/2000/svg" width="111.005" height="107.706" viewBox="0 0 111.005 107.706">
  <g id="surface1" transform="translate(0 0)">
    <path id="Caminho_204" data-name="Caminho 204" d="M1396.3,1492.121l-61.561.055,51.317-20.474a2.306,2.306,0,0,0-1.708-4.283l-62.022,24.769h-1.75c-8.13.008-17.615,4.622-17.6,17.635l.043,47.535c.012,13.013,9.505,17.61,17.635,17.6l75.725-.068c8.129-.008,17.615-4.622,17.6-17.635l-.042-47.512C1413.949,1496.734,1404.5,1492.114,1396.3,1492.121Zm13.094,65.142c.011,11.745-9.2,13.021-13,13.024l-75.747.069c-3.916,0-13.014-1.255-13.025-13l-.043-47.512c-.01-11.745,9.2-13.021,13-13.024l75.724-.068c3.915,0,13.014,1.255,13.024,13Z" transform="translate(-1302.976 -1467.255)" fill="#fff"/>
    <path id="Caminho_205" data-name="Caminho 205" d="M1337.6,1543.152l65.36-.059a2.3,2.3,0,0,0,2.3-2.306l-.012-13.289a2.3,2.3,0,0,0-2.306-2.3l-65.361.059a2.3,2.3,0,0,0-2.3,2.306l.012,13.288A2.3,2.3,0,0,0,1337.6,1543.152Zm63.054-4.664-16.282.015-.008-8.683,16.283-.015Zm-60.763-8.628,39.867-.036.008,8.683-39.867.036Z" transform="translate(-1314.79 -1488.443)" fill="#fff"/>
    <path id="Caminho_206" data-name="Caminho 206" d="M1422.67,1565.725a17.089,17.089,0,1,0,17.1,17.073A17.089,17.089,0,0,0,1422.67,1565.725Zm.027,29.572a12.483,12.483,0,1,1,12.472-12.494A12.484,12.484,0,0,1,1422.7,1595.3Z" transform="translate(-1340.502 -1503.263)" fill="#fff"/>
    <path id="Caminho_207" data-name="Caminho 207" d="M1375.136,1590.933a8.821,8.821,0,1,0,8.829,8.813A8.822,8.822,0,0,0,1375.136,1590.933Zm.012,13.013a4.215,4.215,0,1,1,4.21-4.218A4.213,4.213,0,0,1,1375.148,1603.946Z" transform="translate(-1326.14 -1512.481)" fill="#fff"/>
    <path id="Caminho_208" data-name="Caminho 208" d="M1339.119,1590.965a8.821,8.821,0,1,0,8.828,8.813A8.822,8.822,0,0,0,1339.119,1590.965Zm.012,13.013a4.215,4.215,0,1,1,4.21-4.218A4.214,4.214,0,0,1,1339.131,1603.978Z" transform="translate(-1312.97 -1512.493)" fill="#fff"/>
  </g>
</svg>
