<svg id="Group_38" data-name="Group 38" xmlns="http://www.w3.org/2000/svg" width="106.482" height="105.011" viewBox="0 0 106.482 105.011">
  <path id="Path_191" data-name="Path 191" d="M311.683,4798.71a2.277,2.277,0,0,1,2.175,1.764l.041.141a5.953,5.953,0,0,0,2.852,3.254l9.266,4.131a3.389,3.389,0,0,1,1.916,1.845,1.42,1.42,0,0,1-.091,1.182,3.219,3.219,0,0,0-.253,2.267,4.5,4.5,0,0,0,2.667,1.73l.486.134a4.786,4.786,0,0,1,3.2,3.634l1.357,9.627a6.2,6.2,0,0,0,2.315,3.7l4.97,3.347a6.578,6.578,0,0,1,2.581,4.37l.3,3.354a6.715,6.715,0,0,1-1.736,4.78l-5.037,5.039a1.523,1.523,0,0,0,.281,2.5l5.261,3.3a13.668,13.668,0,0,1,3.47,3.216c.439.657,1.3.437,1.92-.405l7.342-10.009a9.386,9.386,0,0,0,1.517-4.428l.043-1.439a8.633,8.633,0,0,1,1.937-4.8l.293-.325a10.914,10.914,0,0,1,4.471-2.726l8.429-2.252a7.492,7.492,0,0,0,3.661-2.651l6.81-10.42a11.591,11.591,0,0,0,1.548-4.541l.54-6.94a8.546,8.546,0,0,1,2.188-4.693l7.655-7.527a6.524,6.524,0,0,0,1.675-4.08l-.114-7.114a2.181,2.181,0,0,0-2.174-2.145h-.107a14.005,14.005,0,0,1-5.13-1.171l-12.172-5.884a40.637,40.637,0,0,0-4.751-1.866l-10.372-3.2a25.945,25.945,0,0,1-4.084-1.656,6.872,6.872,0,0,1-2.482-3.575,23.619,23.619,0,0,0-2.073-4.56l-1.245-2.024a1.491,1.491,0,0,0-2.439-.256l-.58.606a8.9,8.9,0,0,1-4.643,2.313l-2.8.337c-1.419.168-3.732.454-5.146.633l-3.746.479a3.541,3.541,0,0,1-3.753-2.508l-1.1-4.077a2.371,2.371,0,0,0-2.693-1.675,81.006,81.006,0,0,0-9.308,2.225c.3.776.958,2.375.968,2.392a2.856,2.856,0,0,1-1.73,3.839l-4.552,1.546a3.688,3.688,0,0,1-1.173.2,2.257,2.257,0,0,1-2.348-1.577.87.87,0,0,0-.923-.65,2.262,2.262,0,0,0-1.119.346l-3.653,2.121a4.656,4.656,0,0,0-2.052,3.506l-.112,7.5a4.845,4.845,0,0,1-2.7,4.031l-1.854.8a6.054,6.054,0,0,0-2.923,3.209l-1.26,3.953a4.232,4.232,0,0,0,.933,3.837l2.769,2.77c1.03,1.023,2.569,2.523,3.433,3.335a5.828,5.828,0,0,0,3.835,1.177l1.648-.134a11.76,11.76,0,0,0,4.541-1.567l1.719-1.126A2.567,2.567,0,0,1,311.683,4798.71Z" transform="translate(-291.246 -4757.393)" fill="#faac18" fill-rule="evenodd"/>
  <path id="Path_192" data-name="Path 192" d="M396.76,4854.04l.046.038.042.079.167-.011.053-.03.074-.01.065-.027a3.086,3.086,0,0,1,.585-.357l.079-.039.079-.038a1.833,1.833,0,0,1,.347-.376l.227-.158.2-.167.081-.188-.066-.081-.082-.118a1.425,1.425,0,0,1-.118-.555l.084-.175.059-.167.015-.154-.052-.105-.1-.062-.09-.018H398.2l-.126-.024-.012-.077-.013-.179v-.1l.1-.115.118-.028.113-.086.06-.116.041-.024.139-.163.067-.128.069-.132.088-.1.045-.088.1-.142.073-.16-.085-.042v-.064l0-.122-.016-.1-.008-.067-.016-.1-.056-.121-.123-.089-.069-.027-.063-.048-.063-.051-.156-.089v-.075l.037-.233.055-.051.048-.047.142-.22.01-.037.014-.042.2-.1h.395l.1-.011.056-.176.052-.051.075-.04.031-.081.008-.185-.013-.04-.037-.142v-.034l.024-.181.075-.049.037-.015.1-.037.064-.025.038-.077-.043-.267-.059-.176-.092-.124-.2-.07v-.155l.124-.189.026-.109.06-.263-.074-.039c-.078-.039-.366-.109-.315-.247l.052-.141.055-.2a3.047,3.047,0,0,0,.056-.558l.013-.333a.514.514,0,0,1,.5-.488l.578-.009a.545.545,0,0,1,.533.473l.041.362a.515.515,0,0,0,.535.445l1.169-.067a1.9,1.9,0,0,0,.865-.321l2.438-1.865a.273.273,0,0,1,.471.181l.117.629a.635.635,0,0,0,.566.492l2.243.094a2.024,2.024,0,0,1,.879.3l1.47,1.017a1.677,1.677,0,0,0,.877.254l.787-.027a1.342,1.342,0,0,1,.84.31l1.978,1.8a2.334,2.334,0,0,1,.527.776l.017.053a.814.814,0,0,1-.169.792l-1.443,1.433a3.607,3.607,0,0,0-.562.769l-.374.73a8.858,8.858,0,0,0-.386.88l-.021.054a3.88,3.88,0,0,0-.178.937l-.064,2.285a3.6,3.6,0,0,1-.177.937l-.148.42c-.089.251-.252.655-.358.9l-.307.691a.951.951,0,0,1-.677.5l-.53.065a.545.545,0,0,0-.467.539l.014.636a1.792,1.792,0,0,1-.249.888l-.422.649c-.146.221-.4.58-.559.787l-.334.432a3.008,3.008,0,0,1-.709.625l-.275.163a4.741,4.741,0,0,1-.879.386l-.6.176a4.893,4.893,0,0,1-.944.176l-1.294.089c-.266.021-.691.059-.942.094a3.781,3.781,0,0,0-.9.243l-1.137.484c-.241.106-.635.29-.875.41l-.349.173a1.83,1.83,0,0,1-.909.156l-.067-.009a.584.584,0,0,1-.5-.54l-.082-2.894a3.212,3.212,0,0,0-.192-.93l-1.261-3.113a.774.774,0,0,0-.664-.448l-3.228-.028a1.738,1.738,0,0,1-.871-.285l-1.709-1.243a2.1,2.1,0,0,0-.872-.324l-1.581-.138c-.263-.026-.327-.2-.137-.383l2.444-2.378a2.207,2.207,0,0,1,.809-.46l.467-.1h.169c.265,0,.6,0,.746-.014s.333-.016.417-.018l.095-.03.1-.03.52-.021.06.011.053.022.056.025.129.149.133.142H395l.187-.024c.142-.015.093.186.142.2l.1-.188.11.147c.054.013-.084-.123.069-.123s.028.164.119.164h.088l.18-.029h.1c.045.142.057.159.031.045l.116.049.113.05.04-.127.062-.036Z" transform="translate(-327.378 -4788.969)" fill="#fff" fill-rule="evenodd"/>
</svg>
