<svg xmlns="http://www.w3.org/2000/svg" width="109.4" height="65.131" viewBox="0 0 109.4 65.131">
  <path id="Path_198" data-name="Path 198" d="M300.7,5061.049c.268-2.626,3.653-34.894,8.691-38.815,3.908-3.039,9.806-.255,15.157,2.269l.654.314c7.231,3.4,10.983,2.407,17.98-.86a39.385,39.385,0,0,1,6.778-2.64c2.731-.682,5.233-.612,7.2.917,2.747,2.142,5,12.705,6.533,22.289,2.415.662,4.688,1.395,6.794,2.2,10.506,4.025,17,9.887,17,16.646,0,18.691-41.555,22.663-54.7,22.663-14.675,0-28.012-2.291-37.706-6.007-10.5-4.024-17-9.894-17-16.656s6.5-12.621,17-16.646q1.689-.651,3.518-1.233c-.332,2.169-.632,4.279-.892,6.205-.214.082-.429.165-.643.241-8.283,3.171-13.405,7.238-13.405,11.433s5.122,8.272,13.405,11.435c9.1,3.488,21.722,5.638,35.719,5.638,9.192,0,45.007-4.468,45.007-18.05,0-4.208-4.654-8.549-12.937-11.712l-.283-.115c.738,5.376,1.185,9.6,1.269,10.48.9,4.019-2.674,6.772-8.788,8.448-6.02,1.636-14.935,2.456-23.783,2.456s-17.772-.82-23.793-2.456c-6.114-1.675-9.687-4.429-8.786-8.448Zm6.671-9.318c13.015,5.977,34.723,5.191,48.063,1.674-1.238-9.774-3.3-23.256-5.426-24.9-.371-.291-1.271-.2-2.427.094-14.609,3.652-12.156,7.083-27.084.164-3.352-1.561-6.647-2.925-7.685-2.122C310.682,5028.3,308.606,5041.953,307.369,5051.731Z" transform="translate(-278.088 -5020.904)" fill="#faac18" fill-rule="evenodd"/>
</svg>
