<svg id="Group_39" data-name="Group 39" xmlns="http://www.w3.org/2000/svg" width="78.623" height="87.052" viewBox="0 0 78.623 87.052">
  <path id="Path_193" data-name="Path 193" d="M1101.5,5047.866c-.266,1.779-.527,3.7-.843,5.612s-.153,3.594,1.519,4.957a10.618,10.618,0,0,1,2.393,2.808c1.857,3.171.386,5.906-3.3,5.946a19.717,19.717,0,0,1-6.082-.851,7.512,7.512,0,0,0-5.962.363,38.355,38.355,0,0,1-14.432,3.719,127.589,127.589,0,0,1-14.718.324,43.372,43.372,0,0,1-16.931-3.935,7.637,7.637,0,0,0-6.28-.417,11.677,11.677,0,0,1-7.466.51c-2.356-.733-3.23-2.4-2.259-4.641a7.212,7.212,0,0,1,1.674-2.665,6.564,6.564,0,0,0,2.485-7.292c-1.209-5.106-.244-10.217,1.178-15.192a61.448,61.448,0,0,1,16.044-27.511c.126-.125.254-.249.381-.374,1.934-1.894,3.667-2.863,6.862-1.914a36.726,36.726,0,0,0,20.819.026,5.52,5.52,0,0,1,6.129,1.383,56.7,56.7,0,0,1,12.019,15.9,57.891,57.891,0,0,1,6,17.089C1101.074,5043.685,1101.234,5045.687,1101.5,5047.866Z" transform="translate(-1026.75 -4983.79)" fill="#faac18" fill-rule="evenodd"/>
  <path id="Path_194" data-name="Path 194" d="M1081.274,5002.216c-3.819-.717-7.584-1.341-11.3-2.162a2.73,2.73,0,0,1-2.084-3.518,2.9,2.9,0,0,1,3.68-1.432,33.259,33.259,0,0,0,19.474.04c1.906-.559,3.3.027,3.732,1.5a2.646,2.646,0,0,1-2.2,3.433C1088.849,5000.905,1085.077,5001.511,1081.274,5002.216Z" transform="translate(-1041.986 -4979.326)" fill="#faac18" fill-rule="evenodd"/>
  <path id="Path_195" data-name="Path 195" d="M1095.974,4971.283a3.206,3.206,0,0,0-2.709-.2,55.8,55.8,0,0,0-5.122,2.388,16.185,16.185,0,0,1-13.341.551c-3.827-1.479-7.767-2.683-11.7-3.849a3.181,3.181,0,0,0-2.515.571c-.386.311-.38,1.563-.092,2.177,1.546,3.307,3.212,6.559,4.847,9.823.716.161,1.531.328,2.436.491a8.94,8.94,0,0,1,1.781.293,61.944,61.944,0,0,0,17.955.073c1.022-.247,2.076-.377,3.12-.545.347-.07.694-.144,1.043-.222,1.532-2.954,3.111-5.888,4.508-8.9A2.9,2.9,0,0,0,1095.974,4971.283Z" transform="translate(-1039.212 -4970.094)" fill="#faac18" fill-rule="evenodd"/>
  <path id="Path_196" data-name="Path 196" d="M1080.381,5061.091c-.178,0-.267-.06-.357-.269l-4.256-8.778h-5.505a.158.158,0,0,0-.179.178v8.571a.281.281,0,0,1-.3.3h-1.1a.281.281,0,0,1-.3-.3v-19.642a.28.28,0,0,1,.3-.3h6.786c3.81,0,6.161,2.142,6.161,5.594a5.155,5.155,0,0,1-4.137,5.357l4.405,8.958c.118.178.028.327-.15.327Zm-.446-14.643c0-2.529-1.607-3.987-4.493-3.987h-5.179a.158.158,0,0,0-.179.179v7.618a.158.158,0,0,0,.179.178h5.179C1078.328,5050.436,1079.935,5049.007,1079.935,5046.448Z" transform="translate(-1042.224 -4996.392)" fill="#fff" fill-rule="evenodd"/>
  <path id="Path_197" data-name="Path 197" d="M1091.312,5057.936l.625-.833c.121-.148.268-.12.417-.03a9.167,9.167,0,0,0,4.553,1.518v-8.243c-3.572-.565-5.208-2.589-5.208-5.387a5.369,5.369,0,0,1,5.208-5.625v-1.548a.281.281,0,0,1,.3-.3h.565a.281.281,0,0,1,.3.3v1.548a9.226,9.226,0,0,1,4.315,1.34.272.272,0,0,1,.089.416l-.505.8a.3.3,0,0,1-.417.089,8.342,8.342,0,0,0-3.482-1.1v7.976c3.661.536,5.387,2.47,5.387,5.417a5.493,5.493,0,0,1-5.387,5.8v1.576a.281.281,0,0,1-.3.3h-.565a.281.281,0,0,1-.3-.3v-1.517a10.389,10.389,0,0,1-5.566-1.786.289.289,0,0,1-.029-.417Zm5.595-17.052a3.768,3.768,0,0,0-3.631,3.928c0,1.994.894,3.363,3.631,3.9v-7.828Zm4.97,13.48c0-2.022-.982-3.391-3.81-3.838v8.035A3.945,3.945,0,0,0,1101.877,5054.364Z" transform="translate(-1050.716 -4995.141)" fill="#fff" fill-rule="evenodd"/>
</svg>
