<?xml version="1.0" encoding="utf-8"?>
<!-- Generator: Adobe Illustrator 16.0.0, SVG Export Plug-In . SVG Version: 6.00 Build 0)  -->
<!DOCTYPE svg PUBLIC "-//W3C//DTD SVG 1.1//EN" "http://www.w3.org/Graphics/SVG/1.1/DTD/svg11.dtd">
<svg version="1.1" id="Layer_1" xmlns="http://www.w3.org/2000/svg" xmlns:xlink="http://www.w3.org/1999/xlink" x="0px" y="0px"
	 width="128.644px" height="100.894px" viewBox="0 0 128.644 100.894" enable-background="new 0 0 128.644 100.894"
	 xml:space="preserve">
<g>
	<circle fill-rule="evenodd" clip-rule="evenodd" fill="#E5B100" cx="78.951" cy="53.006" r="33.964"/>
	<path fill-rule="evenodd" clip-rule="evenodd" fill="#523703" d="M85.202,69.228c-2.063,5.637,0.534,9.732,4.187,14.369
		c2.01,2.551-6.434,6.773,5.785,14.201l4.623,2.812c0.575,0.349-2.602,0.072-5.358,0.073c-3.679,0.003-8.095,0.141-9.032,0.198
		c-0.506,0.031-6.245,0.01-6.475-0.124c-0.029-0.861-0.25-1.956,0.109-2.566c-0.396-0.956,2.578-6.393,1.984-9.604
		c-0.373-2.016,1.363-4.453-1.445-8.245c-1.177-1.588-2.732-5.006-4.78-6.465c-2.021-1.438-5.079-5.643-7.957-6.449
		c-2.858-0.802-5.981-4.356-7.484-6.814c-0.261-0.427-2.183-1.896-2.276-2.058c-0.153-0.021-5.129-3.63-6.521-3.829
		c-1.656-0.236,0.674-1.359-4.214-0.537c-3.08,0.518-6.23-0.329-7.307-3.356c-0.687-1.934-0.923-1.879-2.801-2.138
		c-0.171-0.12-0.314-0.21-0.437-0.276c-0.301,0.367-0.701,0.832-0.789,1.02c-0.375,0.804-2.34,2.166-2.907,2.034
		c-1.78-0.414-3.015,0.511-3.006,0.502c2.079-2.014,5.097-1.162,6.348-4.238c-0.276-0.095-0.589-0.759-2.553-1.187
		c-0.81-0.177-3.438-0.17-4.595,0.437c-1.553,0.814-2.727-1.818-6.569-1.145c-2.442,0.427-4.555,0.144-5.779,2.42
		c-1.065,1.98-7.476-0.514-9.787-0.833c-0.784-0.107,1.581-0.331,3.085-0.124c1.346,0.187,4.851,1.362,5.402,1.014
		c2.197-1.391-1.168-1.437,4.851-3.008c4.869-1.272,3.136-1.968,7.745,0.007c-0.658-0.983-1.906-3.03-2.07-3.326
		c-0.078-0.141-0.162-0.271-0.249-0.396c-1.327,0.482-2.478,1.021-4.265,1.598c-1.829,0.588-8.914-1.108-3.938-0.311
		c0.732,0.118,5.878-0.924,6.42-1.253c0.469-0.285,0.817-0.545,1.121-0.765c-1.794-1.563-4.432-1.172-4.459-2.084
		c-0.022-0.788-0.332-1.487-0.816-2.117c-0.357,0.129-0.852,0.229-1.01,0.234c-1.281,0.048-1.908,1.643-2.984,1.843
		c-0.104,0.44-0.094,0.11-0.313,0.447c-2.813,4.3-5.794,1.423-6.4,2.495c-1.562,2.763-5.396,3.374-8.187,3.984
		c-1.047,0.229,6.722-3.523,6.762-3.583c1.844-2.657,4.361-0.529,4.639-1.257c1.09,0.07,3.303-3.827,7.054-4.671
		c-0.727-0.754-1.685-1.408-2.646-2.005c-0.005,0.033-0.012,0.07-0.022,0.11c-1.624,0.031-3.993,3.789-6.499,2.169
		c-2.256-1.458-3.583,0.12-4.323-0.644c-1.98-2.046,1.001-4.426-1.746-4.806c-1.673-0.231-1.798-3.117-1.782-3.091
		c1.05,1.798,4.184,2.49,4.116,3.528c-0.388,5.936,0.476,1.238,3.253,3.171c2.256,1.57,4.129,0.326,6.151-0.958
		c-0.8-0.482-1.552-0.933-2.118-1.379c-2.149-1.696-6.33-3.18-6.107-7.151c0.215-3.872,0.374-2.621-0.109-6.469
		c-0.1-0.805-4.292-2.891-3.008-2.793c1.388,0.653,0.735-0.376,2.686,0.974c2.832,1.958,1.349,5.103,2.199,7.82
		c2.165,6.91,5.317,5.622,9.66,8.941c1.088-0.567,0.205-0.924,2.383-0.569c1.109,0.181,1.645-3.171,2.348-3.242
		c1.869-0.189,0.756-1.354,0.964-2.861c-0.042,0.306,0.485,2.178,0.638,2.198c1.104,0.153,1.631-0.446,2.614,0.529
		c1.158,1.149,4.074-0.766,5.502-0.367c-1.505,1.272-4.459,2.284-6.214,0.842c-0.211-0.173-1.957-0.72-2.323-0.203
		c-0.328,0.463-1.622,2.784-2.056,2.71c-0.979-0.167-0.01,1.65-2.352,1.327c-0.257-0.035-0.375,0.209-0.715,0.28
		c0.24,0.2,0.211,0.184,0.459,0.417c2.684,2.523,1.091,3.914,4.919,4.792c0.21,0.048,0.56,0.352,0.979,0.806
		c0.527-0.155,1.205-0.146,2.386,0.096c0.524,0.107,3.626-0.258,4.821-0.202c3.422,0.159,2.015,1.588,6.973,0.312
		c1.223-0.314,5.1-0.159,5.863,1.009c0.828,1.268,1.672,1.892,2.576,3.579c0.695,1.3,3.699,1.49,4.859,0.813
		c1.562-0.911,2.981,0.855,3.957,1.85c0.996,1.014,0.529,1.237,1.873,2.453c0.753,0.682-1.008,1.634-1.527,1.861
		c-1.254,0.551-1.162,1.272-1.323,2.346c0.3,0.105,0.651,0.196,1.069,0.268c3.098,0.53,2.459,5.681,6.963,6.107
		c1.544,0.146,3.411,2.801,5.343,3.399c1.249,0.387,0.848-0.391,1.149-2.57c0.363-2.633-1.732-4.888-4.582-4.809
		c-4.148,0.114-6.367-5.018-3.897-7.213c0.581-0.518-0.015-2.554,4.147-4.498c2.736-1.278,0.127-4.479,4.359-4.879
		c1.222-0.116,5.244-5.476,0.504-4.198c-4.828,1.302-4.307,2.336-6.281,3.133c-2.858,1.154-5.227-2.928-8.256-0.682
		c-0.326,0.242-1.85-0.069-2.482-0.909c-0.69-0.917-1.928-3.562-2.893-3.695c-1.768-0.244-3.127-2.408-2.879-4.335
		c0.361-2.83-5.322,0.671-7.84,0.286c-2.875-0.44-7.105-1.383-7.475-4.946c-0.228-2.203-0.354,1.523,1.266,2.07
		c1.113,0.376,1.324,0.713,2.764,0.937c0.186-0.158,0.344-0.354,0.371-0.562c0.122-0.973-0.41-1.049-0.822-2.007
		c-0.491-1.143-0.799-2.389-0.684-3.635l0.023-0.246l0.107,0.196c0.033,0.06,0.002,0.145,0.001,0.225
		c-0.003,0.183,0.001,0.382,0.091,0.542c0.145,0.254,0.363,1.379,0.828,2.353c0.318,0.67,0.846,1.15,0.898,1.323
		c0.239,0.771,0.479,1.323,0.031,1.88l0.426,0.01c4.375,0.104,3.015,1.989,7.727-1.141c0.355-0.236,4.969-0.152,4.518,3.109
		c-0.482,3.501,3.519,2.466,3.479,4.708c-0.018,1.008,3.004,2.449,5.075,1.238c1.981-1.16,3.422,0.942,5.976-0.146
		c1.395-0.595,2.812-0.624,5.173-1.803c3.404-1.701,9.991,4.058,1.714,6.966c-2.098,0.738-3.658,5.414-5.885,8.003
		c-0.573,0.668-1.996,4.221,0.098,4.822c3.982,1.145,5.229,2.046,6.439,6.195c0.115,0.396-0.186,2.231-0.258,2.757
		c3.293,2.435,0.899-1.549,2.387-2.998c1.68-1.637,2.315-6.048,0.826-8.188c-0.729-1.047-2.009-5.806-0.051-5.887
		c1.459-0.06,1.654-5.51,0.784-6.964c-0.726-1.214,1.526-4.519-2.239-5.639c-4.148-1.233-1.79-0.17-4.367-3.416
		c-0.914-1.149-2.705,0.267-3.554-1.568c-0.561-1.211-2.892-4.534-4.303-4.396c-2.586,0.254-3.814,4.898-8.853-1.046
		c-1.716-2.024-4.125,1.899-6.769-2.052c-0.842-1.258-0.71-2.865-2.691-3.484c-1.693-0.529-8.608-11.255-7.56-9.761
		c1.296,1.847,7.332,9.016,8.969,9.581c1.957,0.676,0.998,3.724,4.294,4.18c2.002,0.276,3.241,0.172,5.056,0.423
		c1.688,1.763,2.767,2.638,5.549,1.508c4.984-2.024,6.604,4.667,8.713,4.958c3.536,0.489,2.48,0.83,3.364,2.335
		c0.029-0.038,0.069-0.073,0.122-0.106c0.12-0.075,0.627-0.437,0.586-0.561c0.084-0.608,0.781-3.104,0.399-3.447
		c-3.059-2.75-1.028-2.496-1.704-5.542c-0.818-3.693-5.078-2.937-5.178-4.537c-0.191-3.083,0.652-1.814-1.432-3.755
		c-1.77-1.65-3.353-0.129-2.8-4.134C62.166,4.846,56.62,6.132,62.651,0c2.552,1.675-2.14,0.942-0.746,4.624
		c1.161,3.063-0.153,3.155,2.015,5.959c0.634,0.821,1.938-1.083,3.42,4.195c0.137,0.483,0.44,0.786,0.846,1.039
		c0.055-2.294,1.923-0.84,1.907-3.518c-0.005-0.746-1.05-1.685-0.982-3.99c0.065-2.21,0.03-1.199,0.524,0.222
		c0.344,0.993-0.561,0.381,0.805,2.527c0.568,0.894,0.181,1.687,1.708-0.548c0.817-1.196-0.515-2.205,1.84-2.632
		c1.142-0.207-0.58-0.776-0.917,2.409c-0.109,1.032-1.232,2.256-2.145,2.652c-1.088,0.472-0.877,2.819-1.301,3.602
		c0.836,0.428,1.76,1.038,2.528,2.296c0.925,1.514,0.476,1.364,0.678,3.122c-0.021,0.123,0.287,1.362,0.515,1.491
		c1.555,0.881,0.586,3.049,0.952,3.804c0.833,1.716,0.607,1.726,0.745,3.63c0.008,0.116-0.008,0.52-0.052,0.812
		c0.469,0.206,0.915,0.579,1.267,1.285c0.076,0.149,0.045,0.163,0.156,0.205c2.013-0.031,0.67,0.736,1.628,1.992
		c0.388,0.51-0.175,1.616,0.735,3.14c0.554-0.13,0.865-0.423,1.833-0.247c0.653,0.119,1.2-1.294,1.287-2.009
		c0.054-0.449,0.337-0.715,0.706-0.941c-0.205-2.038-1.795-3.469-1.283-4.98c0.509-1.501,1.779-2.171,1.469-3.036
		c-0.944-2.627,0.354-3.428,0.623-5.38c0.203-1.464-1.143-2.531-0.229-3.84c1.28-1.838,1.207-1.552,1.546-3.699
		c0.27-1.7-3.42-4.5-4.555-4.914c-1.319-0.481-3.017-5.066-3.356-6.228c0.223,0.059,1.197,2.408,1.44,2.86
		c1.026,1.907,3.195,2.457,4.838,4.418c1.516,1.81,2.607,2.066,2.923,3.501c0.45-0.059,1.126,0.429,2.152,0.25
		c2.219-0.387-0.055-5.618,2.139-5.321c2.357,0.319,0.17-3.073,4.536-3.449c0.689-0.059,2.112-0.167,2.624-0.65
		c0.341,0.121-2.232,1.872-3.696,1.825c-1.726-0.054-0.514,2.955-2.809,3.011c-2.303,0.056,1.254,4.898-2.173,5.572
		c-1.138,0.224-2.483,0.154-2.76,1.684l-0.062,0.083c-0.147,0.124-0.22,0.322-0.342,0.469c-0.779,1.13-2.446,1.755-1.252,3.575
		c0.201,0.309,0.691,1.817,0.608,2.42c-0.407,2.955-0.581,2.027-1.396,4.453c-0.211,0.63-0.658,2.773-0.754,3.474
		c0.158,0.037-0.12,0.804,0.178,1.484c0.223,0.511,0.488,1.25,0.493,1.922c0.747-0.443,1.425-1.102,1.19-2.808
		c-0.244-1.786,2.204-0.908,1.481-4.387c-0.892-4.302,1.533-1.795,5.053-4.864c0.801-0.699-0.359,0.132-0.842,1.006
		c-1.789,3.245-5.313,0.629-3.48,5.22c0.668,1.675-1.561,2.547-1.714,3.659c-0.542,3.921-1.143,2.371-2.545,4.527
		c-0.668,1.028,0.592,3.064-3.158,2.546l-0.61-0.085c-0.281,1.048-1.167,2.491-0.474,4.776c0.318,1.047-1.052,3.799,1.259,7.59
		c0.015,0.024-0.337,6.315-0.999,7.026c-5.203,5.589,0.978,0.793,1.537,0.05c2.967-3.938,0.455-3.809,4.148-6.788
		c2.736-2.205-2.715-5.166,2.725-8.66c2.545-1.634,2.93-5.234,2.386-7.967c-0.454-2.286,1.671-9.906,4.113-10.573
		c1.648-0.451,3.313-1.074,4.788-1.944c0.999,0.724-7.021,2.536-6.724,6.564c0.188,2.561-1.896,1.865-0.989,5.491
		c0.586,2.34-0.569,8.895-2.55,10.487c-0.912,0.735-1.125,5.064-1.315,5.104c1.075-2.559,5.173-0.074,7.238-1.92
		c3.148-2.814,5.857-2.693,7.619-4.959c2.097-2.696,2.021-3.255,4.678-4.312c-0.015-0.019-0.031-0.037-0.049-0.053
		c-0.324-0.3-0.082-1.984,0.042-2.058c0.094-0.678,0.36-1.471,0.753-2.014c2.273-3.156,0.877-7.882,2.276-8.738
		c2.293-1.403,1.666-0.591,3.535-2.894c0.494-0.61,0.95-1.085,1.379-1.456l0,0c-0.181-0.025-0.018-0.5,0.04-0.614
		c0.229-0.45,0.249-1.009-0.022-1.444c-0.167-0.269-0.26-0.333-0.493-0.485c-0.404-1.299-4.132,0.818-3.079-4.882
		c1.525-8.273-0.703,2.729,2.348,3.038c3.915,0.396,1.32,2.41,2.37,3.595c1.954-0.97,3.509,0.1,6.166-0.232
		c5.291-0.662,4.396-1.466,1.968,0.141c-4.153,2.748-5.591-0.945-8.544,1.955l-0.1,0.097c0.679,0.044,0.798-0.216,2.267,1.062
		c0.474,0.412,3.717,0.085,4.643,0.43c0.143,0.052,3.364,0.981,3.379,0.983c1.833,0.253,2.019-0.403,2.762-0.402
		c0.005,0,0.458,0.414-0.422,0.4c-0.607-0.009-0.068,0.82-3.421,0.357c-1.029-0.142-3.012-0.247-3.845-0.753
		c-0.853-0.517-2.475,0.614-4.205,0.375c-1.553-0.215-0.53-1.095-2.169-1.509c-3.006,2.684-3.405,1.989-4.155,7.423
		c-0.516,3.729-2.657,4.967-2.289,7.251l0.021-0.007c2.189-0.783,0.725-1.486,3.787-0.41c1.078,0.379,3.062,0.067,5.061-0.549
		c-0.073-0.19-0.146-0.39-0.221-0.602c-0.301-0.854-1.705-3.653-1.078-4.483c0.482-0.641,0.322,1.49,0.395,1.71
		c0.244,0.756,0.481,1.194,0.726,1.751c0.12,0.518,0.344,1.008,0.635,1.478c2.289-0.758,4.51-1.881,5.325-2.791
		c0.243,0.947-1.863,2.833-4.175,4.266c0.969,1.056,2.107,2.023,2.897,2.994c0.163,0-0.012-1.101,0.52-1.099
		c0.041-0.074,1.133,0.019,2.081-1.284c0.348-0.479,3.194-3.097,3.37-2.643c0.543,1.408-0.165,0.079-1.331,1.272
		c-0.556,0.57-0.311,0.775-1.17,1.644c-1.238,1.249-0.906,1.613-2.688,2.53c-1.007,0.517-0.757,3.605,0.614,4.37
		c0.783,0.438-1.462,1.324-1.754,1.433c-0.817,0.306-1.392,1.47-2.215,2.386c1.237,0.117,2.744-0.022,4.738-0.983
		c1.839-0.887,3.987-1.291,5.65-2.553c-2.499,1.892-4.867,4.779-8.754,5.15c-7.253,0.695-3.09-0.904-9.671,3.038
		c-2.306,1.381-4.366-1.592-7.572,1.449c-0.472,0.447-12.922,7.241-13.69,7.389c-0.46,0.089-1.445,2.394-1.727,2.773
		C86.703,67.177,85.345,69.077,85.202,69.228L85.202,69.228z M26.203,41.174c1.151,1.442,2.455,3.405,2.887,4.412
		c1.775-0.236,4.919-1.008,6.383-0.806c3.513,0.485,0.124,3.483,4.039,3.861c1.479,0.143,1.041,2.162,3.801,2.544
		c1.28,0.177,4.49-0.48,7.451-0.072c1.944,0.269,2.557,0.936,3.093,1.63c0.038-1.034-0.169-0.266,1.683-1.649
		c0.546-0.407,0.188-1.863-0.443-2.493c-1.813-1.81-0.707-2.935-4.537-0.939c-1.959,1.021-3.441-2.259-4.336-3.543
		c-1.003-1.443-0.785-1.388-2.682-2.386c-1.266-0.665-1.797-1.528-3.543-0.074c-2.104,1.754-7.805-1.792-11.855-0.964
		C27.406,40.844,26.775,41.004,26.203,41.174L26.203,41.174z M117.145,39.804c-1.457,0.821-2.899,1.405-3.802,1.41
		c-1.678,0.011-2.154,0.725-4.378-0.573c-2.052-1.198-4.572,3.813-8.206,5.433c-3.149,1.404,0.556,4.094-6.56,5.257
		c-3.86,0.631-8.714,2.252-11.313,5.351c-0.842,1.002-0.893,3.018-3.896,6.104c-2.87,2.95-2.618,0.587-3.286,5.418
		c-0.008,0.061,6.236,5.576,6.332,4.645c0.59-5.686,2.408-11.19,8.534-12.629c3.765-0.883,5.822-6.266,9.009-5.76
		c2.593,0.411,2.932-0.982,6.413-0.758c2.562,0.165,4.706-0.474,6.52-2.259c1.576-1.551,2.783-1.079,4.444-0.718
		c0.298-0.214,0.79-0.462,1.562-0.743c0.016-0.007,2.736-2.856,2.474-3.265c-0.762-1.183-0.021-3.098-0.603-4.001
		C119.5,41.335,118.477,42.162,117.145,39.804z"/>
	<path fill-rule="evenodd" clip-rule="evenodd" fill="#E8BA00" d="M108.793,11.494c-0.761,0.137-1.776-0.406-1.324,0.855
		c0.162,0.451,0.876-0.678,0.243,0.788c-0.144,0.33-0.774,0.346-0.263,1.787c0.153,0.43,0.687-0.393,0.802,0.533
		c0.05,0.405,1.09-0.729,1.09,0.018c0,0.731,0.476,0.002,1.426,0.469c0.95,0.467,1.68,0.216,2.857,0.41
		c0.383,0.063,0.031-1.947,0.289-2.25c0.478-0.56,2.479-0.882,2.39-2.437c-0.002-0.045-0.78-0.041-1.146-1.082
		c-0.743-2.115,0.35-0.958-2.584-1.165c-1.176-0.083-0.877,0.251-1.789-0.399c-0.261-0.186-3.106-0.996-2.265,0.225
		c0.059,0.085-1.301,0.26-0.24,1.371c0.728,0.761,0.291,0.459,0.465,0.812L108.793,11.494z"/>
</g>
</svg>
