<svg id="Layer_1" data-name="Layer 1" xmlns="http://www.w3.org/2000/svg" viewBox="0 0 50 50.11">
  <title>logo</title>
  <g>
    <path d="M18.12,22.88c-1.7,0-2.27.39-2.65,2.13A46.56,46.56,0,0,1,10,39.49c5.09-.8,9.8-.83,14.42.66.87.27,1.31-.43,1.8-1A9.61,9.61,0,0,0,28,28.66c-.43-1.13-1.16-2.24.57-2.84s1.54,1.15,2,1.91c1.16,2.07.89,4.44,1,6.86,4.22-.94,8-.27,11.07,2.66.57.53,1.7,1.12.5,2.2-.87.78-1.49.64-2.31-.15-2.85-2.73-6.12-3.07-9.67-1.51a4.87,4.87,0,0,0-2.65,3.35c-.26,1.07,1.47,1.39,2.34,2a25.79,25.79,0,0,1,5.38,4.41A24.88,24.88,0,0,0,43.5,42,24.58,24.58,0,0,0,50,27.46a1.57,1.57,0,0,0-1.44-1.94,6.23,6.23,0,0,0-.67-.09l-1.07-.11L43.7,25l-1.26-.13c-.79-.08-1.59-.17-2.41-.2a1.82,1.82,0,0,0-.54-.09h-.14l-.44-.05-1.3-.13h-.09l-.16,0-.13,0-.19,0-1.56-.15H35.3l-.52,0h-.22l-.17,0-2.59-.25h-.33a.58.58,0,0,0-.19,0l-.13,0h0l-.88-.1H30a7.08,7.08,0,0,1-.89-.07l3.2-3.14A21.8,21.8,0,0,0,34,18.85l1.44-1.39c1.16-1.12,2.35-2.27,3.5-3.42.63-.63,1.23-1.29,1.82-1.93l.52-.57h0l.1-.11v0a.44.44,0,0,0,.11-.09l2-2a.87.87,0,0,0,.1-1.15A1.33,1.33,0,0,0,43.46,8a28.13,28.13,0,0,0-2.75-2.54A24.52,24.52,0,0,0,25.28,0a26.93,26.93,0,0,0-4.43.37A24.55,24.55,0,0,0,15.5,1.85a11.6,11.6,0,0,0,.08,1.25,45.67,45.67,0,0,1,.92,15.06c-.18,1.72.28,2.27,2,2.09,4.95-.51,8.73-2.74,10.8-7.36.57-1.28,1.2-1.76,2.44-1.21,1.45.65.37,1.6.06,2.25C29.09,19.68,24.5,22.77,18.12,22.88Z" transform="translate(0 0)" fill="#fff"/>
    <path d="M5.59,40.91A5.72,5.72,0,0,0,7,39.26,48.7,48.7,0,0,0,11.29,30c1.14-3.44-.36-6-3.92-6.41-1.38-.15-2.5-.35-2.2-1.89s1.73-.86,2.72-.79c1.89.13,3.39,1.2,5,2.46A35.15,35.15,0,0,0,14,14.06c0-1.29-1-1.07-1.69-1.36A12.7,12.7,0,0,1,6.51,8.25a1.88,1.88,0,0,1-.19.2l-.56.66A24.18,24.18,0,0,0,.5,29.81,24.41,24.41,0,0,0,5.59,40.91Z" transform="translate(0 0)" fill="#fff"/>
    <path d="M42,13.56l-7.82,7.79a.6.6,0,0,0-.27.22.59.59,0,0,0-.06.49.4.4,0,0,0,.34.28l1.3.13,1.32.13,1.92.19h0a.39.39,0,0,0,.28-.11l1.16-1.13,4.5-4.41c.18-.08.4-.3.42-.88v-.15c0-.29,0-.85.07-1.49s.06-1.37.09-2l0-.42h0c0-.91-.07-1.13-.12-1.18h0a.48.48,0,0,0-.32-.12.57.57,0,0,0-.43.21s-.22.24-1.28,1.3Z" transform="translate(0 0)" fill="#fff"/>
    <path d="M13.52,10.31c.57-2.46-.33-4.61-.57-6.81a1.93,1.93,0,0,0-.08-.39A23.71,23.71,0,0,0,8.45,6.28,10.78,10.78,0,0,0,13.52,10.31Z" transform="translate(0 0)" fill="#fff"/>
    <path d="M32.75,48.9Q23.36,40.25,10.8,43a20,20,0,0,0-2.47.69,27.8,27.8,0,0,0,5.4,3.66,23.8,23.8,0,0,0,11.11,2.73,26.83,26.83,0,0,0,4.75-.44A25.12,25.12,0,0,0,32.75,48.9Z" transform="translate(0 0)" fill="#fff"/>
  </g>
</svg>
