<svg xmlns="http://www.w3.org/2000/svg" width="191" height="172.136" viewBox="0 0 191 172.136">
  <g id="Group_23" data-name="Group 23" transform="translate(-708.274 922.532)">
    <path id="Path_9" data-name="Path 9" d="M720.532-570.131c.719-2.671.975-2.671,1.822-2.671s1.057,0,1.775,2.674l2.43,8.9H718.1l2.43-8.9Zm7.633,14.9,1.542,5.619c.613,1.989,1.423,2.594,3.465,2.594h.645a2.674,2.674,0,0,0,2.231-.724,2.659,2.659,0,0,0,.135-2.339l-5.663-20.4c-.871-3.117-1.787-5.194-2.789-6.335-1.1-1.305-2.857-1.939-5.379-1.939-2.5,0-4.268.63-5.414,1.926-1.014,1.156-1.93,3.232-2.8,6.349l-5.666,20.413a2.646,2.646,0,0,0,.139,2.325,2.675,2.675,0,0,0,2.231.724h.646c2.042,0,2.852-.606,3.471-2.62l1.536-5.594Z" transform="translate(0 -228.093)" fill="#fff" fill-rule="evenodd"/>
    <path id="Path_10" data-name="Path 10" d="M813.26-562.7h-6.719v-7.747c0-.6.15-.9.964-.9h5.755c3.344,0,4.417,1.051,4.417,4.326S816.6-562.7,813.26-562.7Zm10.914-4.324c0-6.972-3.671-10.507-10.914-10.507h-7.136c-4.149,0-6.08,1.917-6.08,6.034v22.36c0,2.138.8,2.932,2.95,2.932h.6c2.15,0,2.949-.794,2.949-2.932v-7.382h6.719C820.4-556.522,824.174-560.155,824.174-567.027Z" transform="translate(-60.887 -228.902)" fill="#fff" fill-rule="evenodd"/>
    <path id="Path_11" data-name="Path 11" d="M888.222-570.45c0-.6.149-.9.964-.9h5.893c3.639,0,4.279,1.234,4.279,3.823,0,2.45-.682,3.778-4.279,3.778h-6.857v-6.7Zm-2.949,24.243c2.15,0,2.949-.8,2.949-2.932v-8.431h4.655l5.791,8.983a4.378,4.378,0,0,0,4.376,2.38h.783c.938,0,1.974-.066,2.4-.854s-.086-1.675-.594-2.441l-5.714-8.743c4-1.217,5.942-4.266,5.942-9.284,0-6.732-3.525-10-10.777-10H887.8c-4.148,0-6.08,1.917-6.08,6.034v22.36c0,2.137.8,2.932,2.95,2.932Z" transform="translate(-115.082 -228.902)" fill="#fff" fill-rule="evenodd"/>
    <path id="Path_12" data-name="Path 12" d="M983.063-559.349c0,2.378-.436,4.14-1.286,5.225-.8.978-2.547,1.474-5.2,1.474s-4.406-.5-5.193-1.461c-.86-1.1-1.3-2.858-1.3-5.237v-6.526c0-2.425.442-4.227,1.286-5.224.8-.978,2.548-1.473,5.2-1.473s4.406.495,5.213,1.485c.835.985,1.276,2.787,1.276,5.212v6.526Zm-6.489-19.4c-4.774,0-8.191,1.139-10.157,3.387-1.933,2.214-2.875,5.318-2.875,9.492v6.526c0,4.2.942,7.325,2.875,9.537,1.967,2.249,5.289,3.343,10.157,3.343,4.837,0,8.145-1.094,10.112-3.343,1.939-2.217,2.922-5.426,2.922-9.537v-6.526c0-4.174-.942-7.278-2.876-9.492C984.766-577.615,981.349-578.754,976.574-578.754Z" transform="translate(-169.367 -228.093)" fill="#fff" fill-rule="evenodd"/>
    <path id="Path_13" data-name="Path 13" d="M1070.06-547.485c1.534-.588,2.421-1.293,2.421-3.15v-.684c0-1.829-1.081-2.476-2.006-2.476a2.72,2.72,0,0,0-.99.2,14.779,14.779,0,0,1-5.617.893c-4.74,0-6.674-1.756-6.674-6.059v-7.3c0-4.661,1.88-6.562,6.489-6.562a15.839,15.839,0,0,1,5.679,1.008,4.136,4.136,0,0,0,1.282.258c1.7,0,1.7-1.855,1.7-2.553v-.685c0-1.921-.632-2.363-2.451-3.143a16.277,16.277,0,0,0-6.115-1.02c-8.646,0-13.217,4.391-13.217,12.7v7.3c0,8.236,4.324,12.24,13.217,12.24A18.663,18.663,0,0,0,1070.06-547.485Z" transform="translate(-227.103 -228.092)" fill="#faac18" fill-rule="evenodd"/>
    <path id="Path_14" data-name="Path 14" d="M1147.687-549.093v-.411c0-2.1-.787-2.885-2.9-2.885h-11.648c-.815,0-.964-.3-.964-.9v-5.967h10.77c2.117,0,2.9-.782,2.9-2.886v-.41c0-2.1-.786-2.885-2.9-2.885h-10.77v-5.01c0-.6.149-.9.964-.9h11.648c2.117,0,2.9-.782,2.9-2.886v-.41c0-2.1-.787-2.885-2.9-2.885h-13.029c-4.148,0-6.08,1.917-6.08,6.034v19.257c0,4.117,1.932,6.034,6.08,6.034h13.029C1146.9-546.208,1147.687-546.99,1147.687-549.093Z" transform="translate(-276.94 -228.903)" fill="#faac18" fill-rule="evenodd"/>
    <path id="Path_15" data-name="Path 15" d="M1215.922-563.753h-6.856v-6.7c0-.6.148-.9.963-.9h5.893c3.639,0,4.279,1.233,4.279,3.823,0,2.45-.682,3.777-4.279,3.777Zm10.549,14.25-5.713-8.739c4.047-1.214,5.941-4.194,5.941-9.288,0-6.731-3.525-10-10.776-10h-7.274c-4.148,0-6.08,1.918-6.08,6.034v22.361c0,2.137.8,2.931,2.95,2.931h.6c2.151,0,2.95-.794,2.95-2.931v-8.433h4.654l5.791,8.983a4.377,4.377,0,0,0,4.376,2.38h.783c.938,0,1.972-.066,2.4-.853S1226.979-548.737,1226.471-549.5Z" transform="translate(-327.958 -228.902)" fill="#faac18" fill-rule="evenodd"/>
    <path id="Path_16" data-name="Path 16" d="M710.2-463.949l.779-2.837c.17-.627.306-.775.7-.775.373,0,.519.149.689.775l.78,2.837Zm3.063-2.736a3.239,3.239,0,0,0-.576-1.322,1.261,1.261,0,0,0-1.007-.353,1.3,1.3,0,0,0-1.017.353,3.573,3.573,0,0,0-.577,1.322l-1.514,5.459c-.079.286-.023.376.282.376h.125c.317,0,.407-.068.486-.376l.521-1.915h3.38l.531,1.915c.079.308.169.376.485.376h.114c.3,0,.361-.091.282-.376Z" transform="translate(-0.178 -301.339)" fill="#fff" fill-rule="evenodd"/>
    <path id="Path_17" data-name="Path 17" d="M732.786-457.229c1.458,0,2.137-.455,2.137-1.469,0-.776-.316-1.153-1.13-1.528l-1.437-.661c-.4-.182-.6-.433-.6-.752,0-.456.317-.638,1.141-.638a4.334,4.334,0,0,1,1.413.216c.26.08.362.012.362-.273v-.1c0-.263-.067-.331-.339-.422a4.131,4.131,0,0,0-1.413-.216c-1.367,0-2,.444-2,1.435,0,.764.294,1.117,1.052,1.481l1.379.661c.553.273.734.456.734.82,0,.49-.339.65-1.231.65a6.255,6.255,0,0,1-1.661-.227c-.272-.058-.362.012-.362.3v.091c0,.239.079.341.362.421A5.8,5.8,0,0,0,732.786-457.229Z" transform="translate(-14.966 -304.845)" fill="#fff" fill-rule="evenodd"/>
    <path id="Path_18" data-name="Path 18" d="M749.576-458.027a6.3,6.3,0,0,1-1.661-.228c-.271-.057-.361.011-.361.3v.091c0,.24.078.343.361.422a5.794,5.794,0,0,0,1.593.216c1.458,0,2.137-.455,2.137-1.469,0-.776-.317-1.152-1.129-1.528l-1.437-.661a.848.848,0,0,1-.6-.753c0-.455.316-.637,1.141-.637a4.36,4.36,0,0,1,1.413.216c.26.08.362.012.362-.273v-.1c0-.262-.068-.331-.339-.422a4.127,4.127,0,0,0-1.413-.216c-1.368,0-2,.444-2,1.435,0,.765.293,1.118,1.051,1.482l1.38.662c.554.273.734.455.734.82C750.808-458.186,750.469-458.027,749.576-458.027Z" transform="translate(-26.061 -304.845)" fill="#fff" fill-rule="evenodd"/>
    <path id="Path_19" data-name="Path 19" d="M768.443-459.622c0,1.128-.407,1.585-1.615,1.585s-1.641-.456-1.641-1.585v-1.06c0-1.129.42-1.584,1.641-1.584s1.615.455,1.615,1.584v1.06Zm.848,0v-1.06c0-1.6-.746-2.393-2.464-2.393-1.662,0-2.487.8-2.487,2.393v1.06c0,1.6.757,2.393,2.487,2.393A2.148,2.148,0,0,0,769.292-459.622Z" transform="translate(-37.2 -304.845)" fill="#fff" fill-rule="evenodd"/>
    <path id="Path_20" data-name="Path 20" d="M787.647-457.787v-.114c0-.286-.078-.376-.339-.286a3,3,0,0,1-1.017.148c-1.266,0-1.763-.421-1.763-1.561v-1.1c0-1.094.463-1.561,1.7-1.561a2.948,2.948,0,0,1,.972.159c.271.092.339.011.339-.273v-.113c0-.262-.068-.343-.339-.433a2.961,2.961,0,0,0-.994-.148c-1.686,0-2.521.843-2.521,2.358v1.128c0,1.607.825,2.359,2.554,2.359a3.314,3.314,0,0,0,1.051-.148C787.569-457.456,787.647-457.547,787.647-457.787Z" transform="translate(-50.031 -304.845)" fill="#fff" fill-rule="evenodd"/>
    <path id="Path_21" data-name="Path 21" d="M799.992-469.612a.559.559,0,0,0-.565.559.55.55,0,0,0,.565.547.538.538,0,0,0,.543-.547A.548.548,0,0,0,799.992-469.612Z" transform="translate(-60.479 -300.507)" fill="#fff" fill-rule="evenodd"/>
    <path id="Path_22" data-name="Path 22" d="M800.315-462.738h-.125c-.306,0-.361.08-.361.365v4.888c0,.308.056.365.361.365h.125c.283,0,.361-.057.361-.365v-4.888C800.677-462.658,800.6-462.738,800.315-462.738Z" transform="translate(-60.745 -305.068)" fill="#fff" fill-rule="evenodd"/>
    <path id="Path_23" data-name="Path 23" d="M808.163-458.937c0-.717.441-.991,1.47-.991h1.323v.865c0,.821-.442,1.094-1.526,1.094-.848,0-1.267-.319-1.267-.969Zm3.64-.091v-2.257c0-1.2-.791-1.788-2.373-1.788a5.6,5.6,0,0,0-1.221.113c-.271.058-.339.126-.339.388v.091c0,.274.09.342.361.285a5.6,5.6,0,0,1,1.243-.126c.994,0,1.481.3,1.481,1.037v.685h-1.335c-1.571,0-2.306.49-2.306,1.663,0,1.152.78,1.709,2.125,1.709C811.08-457.228,811.8-457.764,811.8-459.028Z" transform="translate(-65.713 -304.846)" fill="#fff" fill-rule="evenodd"/>
    <path id="Path_24" data-name="Path 24" d="M827.212-456.671c-.045.195-.023.228.192.195a1.292,1.292,0,0,1,.238-.012c.372,0,.507.1.507.387,0,.32-.147.422-.553.422a1.923,1.923,0,0,1-.361-.034c-.147-.035-.216.034-.216.182v.069c0,.17.035.215.2.249a2,2,0,0,0,.452.058c.768,0,1.119-.274,1.119-.947,0-.581-.339-.843-1.017-.764l.09-.364a4.027,4.027,0,0,0,1.018-.148c.283-.08.362-.171.362-.41v-.114c0-.286-.078-.375-.339-.286a2.989,2.989,0,0,1-1.017.148c-1.266,0-1.763-.421-1.763-1.561v-1.1c0-1.093.463-1.562,1.7-1.562a2.939,2.939,0,0,1,.972.16c.272.091.339.011.339-.274v-.113c0-.262-.067-.343-.339-.434a2.961,2.961,0,0,0-1-.147c-1.684,0-2.52.843-2.52,2.358v1.128a2.043,2.043,0,0,0,2.081,2.336Z" transform="translate(-77.631 -304.845)" fill="#fff" fill-rule="evenodd"/>
    <path id="Path_25" data-name="Path 25" d="M845.407-468.82c-.191,0-.247.045-.26.216-.033.285-.17.434-.384.434a1.623,1.623,0,0,1-.678-.365,1.566,1.566,0,0,0-.87-.364q-.9,0-.983,1.024c-.012.173.045.218.238.218h.079c.192,0,.248-.046.26-.218.034-.284.169-.432.384-.432a1.578,1.578,0,0,1,.667.365,1.57,1.57,0,0,0,.871.365q.915,0,.983-1.026c.011-.171-.045-.216-.238-.216Z" transform="translate(-88.878 -300.98)" fill="#fff" fill-rule="evenodd"/>
    <path id="Path_26" data-name="Path 26" d="M844.261-459.063c0,.821-.439,1.094-1.525,1.094-.847,0-1.266-.319-1.266-.969,0-.717.44-.992,1.47-.992h1.321v.867Zm-1.525-4.011a5.564,5.564,0,0,0-1.221.113c-.271.058-.34.126-.34.388v.091c0,.274.09.342.362.285a5.626,5.626,0,0,1,1.244-.126c.994,0,1.479.3,1.479,1.037v.685h-1.333c-1.571,0-2.305.49-2.305,1.663,0,1.151.78,1.709,2.124,1.709,1.639,0,2.363-.536,2.363-1.8v-2.257C845.11-462.482,844.319-463.074,842.736-463.074Z" transform="translate(-87.812 -304.845)" fill="#fff" fill-rule="evenodd"/>
    <path id="Path_27" data-name="Path 27" d="M862.69-459.622c0,1.128-.407,1.585-1.616,1.585s-1.639-.456-1.639-1.585v-1.06c0-1.129.419-1.584,1.639-1.584s1.616.455,1.616,1.584v1.06Zm.848,0v-1.06c0-1.6-.746-2.393-2.464-2.393-1.662,0-2.486.8-2.486,2.393v1.06c0,1.6.757,2.393,2.486,2.393A2.148,2.148,0,0,0,863.538-459.622Z" transform="translate(-99.731 -304.845)" fill="#fff" fill-rule="evenodd"/>
    <path id="Path_28" data-name="Path 28" d="M892.369-464.049c0,1.128-.418,1.585-1.627,1.585s-1.628-.456-1.628-1.585v-1.06c0-1.129.419-1.584,1.628-1.584s1.627.455,1.627,1.584v1.06Zm.487-5.7h-.125c-.305,0-.362.057-.362.365v2.711a1.821,1.821,0,0,0-1.763-.831,2.1,2.1,0,0,0-2.339,2.4v1.06c0,1.6.79,2.381,2.474,2.381,1.652,0,2.476-.8,2.476-2.381v-5.344C893.217-469.69,893.137-469.747,892.856-469.747Z" transform="translate(-119.423 -300.418)" fill="#fff" fill-rule="evenodd"/>
    <path id="Path_29" data-name="Path 29" d="M911.842-459.622c0,1.128-.407,1.585-1.615,1.585s-1.639-.456-1.639-1.585v-1.06c0-1.129.418-1.584,1.639-1.584s1.615.455,1.615,1.584v1.06Zm.848,0v-1.06c0-1.6-.746-2.393-2.463-2.393-1.663,0-2.487.8-2.487,2.393v1.06c0,1.6.757,2.393,2.487,2.393A2.148,2.148,0,0,0,912.69-459.622Z" transform="translate(-132.343 -304.845)" fill="#fff" fill-rule="evenodd"/>
    <path id="Path_30" data-name="Path 30" d="M931.1-458.7c0-.775-.316-1.151-1.13-1.527l-1.436-.661a.848.848,0,0,1-.6-.753c0-.455.317-.637,1.141-.637a4.345,4.345,0,0,1,1.412.215c.261.081.362.011.362-.273v-.1c0-.261-.067-.329-.339-.421a4.13,4.13,0,0,0-1.414-.216c-1.367,0-2,.444-2,1.434,0,.765.294,1.118,1.052,1.483l1.378.661c.555.273.736.455.736.82,0,.49-.339.649-1.232.649a6.316,6.316,0,0,1-1.662-.227c-.272-.057-.362.011-.362.3v.092c0,.239.078.341.362.421a5.782,5.782,0,0,0,1.593.216C930.424-457.228,931.1-457.684,931.1-458.7Z" transform="translate(-145.129 -304.846)" fill="#fff" fill-rule="evenodd"/>
    <path id="Path_31" data-name="Path 31" d="M957.941-464.179h-2.013v-2.507c0-.376.159-.536.531-.536h1.482c1.163,0,1.57.434,1.57,1.515,0,1.106-.384,1.528-1.57,1.528Zm2.453-1.528c0-1.6-.724-2.347-2.453-2.347h-1.674c-.859,0-1.22.376-1.22,1.231v5.788c0,.309.079.387.385.387h.112c.3,0,.384-.079.384-.387v-2.324h2.013C959.658-463.358,960.394-464.123,960.394-465.707Z" transform="translate(-163.731 -301.541)" fill="#fff" fill-rule="evenodd"/>
    <path id="Path_32" data-name="Path 32" d="M975.879-457.343c.3,0,.361-.057.361-.364v-3.351c0-.855.283-1.208,1.085-1.208.057,0,.171.011.351.023.282.045.35-.012.35-.3v-.114c0-.285-.056-.365-.339-.4-.135-.011-.261-.022-.362-.022a1.727,1.727,0,0,0-1.932,1.971v3.4c0,.307.08.364.362.364Z" transform="translate(-177.23 -304.845)" fill="#fff" fill-rule="evenodd"/>
    <path id="Path_33" data-name="Path 33" d="M987.62-459.622v-1.06c0-1.129.418-1.584,1.639-1.584s1.617.455,1.617,1.584v1.06c0,1.128-.408,1.585-1.617,1.585s-1.639-.456-1.639-1.585Zm4.1,0v-1.06c0-1.6-.745-2.393-2.463-2.393-1.661,0-2.488.8-2.488,2.393v1.06c0,1.6.757,2.393,2.488,2.393A2.148,2.148,0,0,0,991.722-459.622Z" transform="translate(-184.78 -304.845)" fill="#fff" fill-rule="evenodd"/>
    <path id="Path_34" data-name="Path 34" d="M1006.961-464.049v-1.06c0-1.129.419-1.584,1.627-1.584s1.628.455,1.628,1.584v1.06c0,1.128-.418,1.585-1.628,1.585s-1.627-.456-1.627-1.585Zm4.1.011v-5.344c0-.308-.078-.365-.361-.365h-.123c-.305,0-.362.057-.362.365v2.711a1.823,1.823,0,0,0-1.764-.831,2.1,2.1,0,0,0-2.34,2.4v1.06c0,1.6.791,2.381,2.475,2.381C1010.239-461.656,1011.063-462.454,1011.063-464.038Z" transform="translate(-197.613 -300.418)" fill="#fff" fill-rule="evenodd"/>
    <path id="Path_35" data-name="Path 35" d="M1030.075-462.738h-.124c-.282,0-.362.08-.362.365v3.236c0,.946-.385,1.322-1.5,1.322s-1.514-.4-1.514-1.322v-3.236c0-.284-.057-.365-.361-.365h-.124c-.283,0-.362.08-.362.365v3.236c0,1.425.791,2.131,2.362,2.131,1.628,0,2.351-.718,2.351-2.131v-3.236C1030.437-462.658,1030.38-462.738,1030.075-462.738Z" transform="translate(-210.624 -305.068)" fill="#fff" fill-rule="evenodd"/>
    <path id="Path_36" data-name="Path 36" d="M1044.807-467.14h-.08c-.261,0-.328.069-.339.308l-.123,1.173-.645.091c-.238.034-.306.091-.306.354v.056c0,.263.046.308.306.308h.645v2.895q0,2.018,1.9,2.018a3.757,3.757,0,0,0,.983-.115c.271-.08.35-.182.35-.41v-.1c0-.285-.078-.354-.338-.3a3.516,3.516,0,0,1-1,.114c-.692,0-1.04-.354-1.04-1.208v-2.895h1.83c.284,0,.351-.069.351-.353v-.1c0-.285-.067-.354-.351-.354h-1.83v-1.173C1045.112-467.071,1045.043-467.14,1044.807-467.14Z" transform="translate(-222.295 -302.147)" fill="#fff" fill-rule="evenodd"/>
    <path id="Path_37" data-name="Path 37" d="M1060.177-459.622v-1.06c0-1.129.418-1.584,1.639-1.584s1.616.455,1.616,1.584v1.06c0,1.128-.407,1.585-1.616,1.585s-1.639-.456-1.639-1.585Zm4.1,0v-1.06c0-1.6-.746-2.393-2.463-2.393-1.662,0-2.487.8-2.487,2.393v1.06c0,1.6.757,2.393,2.487,2.393A2.148,2.148,0,0,0,1064.279-459.622Z" transform="translate(-232.921 -304.845)" fill="#fff" fill-rule="evenodd"/>
    <path id="Path_38" data-name="Path 38" d="M1081.3-463.052c-.135-.011-.261-.022-.361-.022a1.726,1.726,0,0,0-1.933,1.971v3.4c0,.307.079.364.361.364h.125c.3,0,.361-.057.361-.364v-3.351c0-.854.283-1.208,1.086-1.208.056,0,.17.011.35.022.281.046.351-.011.351-.3v-.114C1081.639-462.937,1081.583-463.018,1081.3-463.052Z" transform="translate(-245.976 -304.845)" fill="#fff" fill-rule="evenodd"/>
    <path id="Path_39" data-name="Path 39" d="M1091.235-460.92c0-.923.509-1.39,1.525-1.39s1.525.467,1.525,1.39v.377h-3.05v-.377Zm3.412,1.1c.306,0,.373-.069.408-.355a4.343,4.343,0,0,0,.033-.615,2.058,2.058,0,0,0-2.317-2.278,2.113,2.113,0,0,0-2.385,2.4v1.06c0,1.675.813,2.381,2.611,2.381a5.2,5.2,0,0,0,1.548-.217c.3-.091.35-.171.35-.41v-.1c0-.285-.091-.376-.362-.3a5.578,5.578,0,0,1-1.537.216c-1.254,0-1.763-.411-1.763-1.447v-.341Z" transform="translate(-253.527 -304.846)" fill="#fff" fill-rule="evenodd"/>
    <path id="Path_40" data-name="Path 40" d="M1113.012-458.7c0-.775-.317-1.151-1.131-1.527l-1.436-.661a.849.849,0,0,1-.6-.753c0-.455.316-.637,1.141-.637a4.356,4.356,0,0,1,1.413.215c.261.081.361.011.361-.273v-.1c0-.261-.067-.329-.339-.421a4.123,4.123,0,0,0-1.413-.216c-1.369,0-2,.444-2,1.434,0,.765.293,1.118,1.051,1.483l1.379.661c.554.273.735.455.735.82,0,.49-.34.649-1.232.649a6.328,6.328,0,0,1-1.663-.227c-.27-.057-.362.011-.362.3v.092c0,.239.079.341.362.421a5.8,5.8,0,0,0,1.595.216C1112.333-457.228,1113.012-457.684,1113.012-458.7Z" transform="translate(-265.823 -304.846)" fill="#fff" fill-rule="evenodd"/>
    <path id="Path_41" data-name="Path 41" d="M1140.152-464.049c0,1.128-.418,1.585-1.627,1.585s-1.627-.456-1.627-1.585v-1.06c0-1.129.418-1.584,1.627-1.584s1.627.455,1.627,1.584v1.06Zm.848.011v-5.344c0-.308-.08-.365-.362-.365h-.125c-.3,0-.361.057-.361.365v2.711a1.822,1.822,0,0,0-1.764-.831,2.1,2.1,0,0,0-2.339,2.4v1.06c0,1.6.791,2.381,2.476,2.381C1140.174-461.656,1141-462.454,1141-464.038Z" transform="translate(-283.824 -300.418)" fill="#fff" fill-rule="evenodd"/>
    <path id="Path_42" data-name="Path 42" d="M1156.371-460.92c0-.923.509-1.39,1.526-1.39s1.526.467,1.526,1.39v.377h-3.052v-.377Zm3.413,1.1c.3,0,.373-.069.407-.355a4.285,4.285,0,0,0,.033-.615,2.058,2.058,0,0,0-2.317-2.278,2.113,2.113,0,0,0-2.385,2.4v1.06c0,1.675.813,2.381,2.611,2.381a5.2,5.2,0,0,0,1.549-.217c.305-.091.349-.171.349-.41v-.1c0-.285-.09-.376-.361-.3a5.581,5.581,0,0,1-1.537.216c-1.254,0-1.763-.411-1.763-1.447v-.341Z" transform="translate(-296.744 -304.846)" fill="#fff" fill-rule="evenodd"/>
    <path id="Path_43" data-name="Path 43" d="M1185.987-462.044a2.657,2.657,0,0,1-.407-1.641v-1.664a2.612,2.612,0,0,1,.407-1.641,1.968,1.968,0,0,1,1.593-.513,1.966,1.966,0,0,1,1.594.513,2.6,2.6,0,0,1,.407,1.641v1.664a2.643,2.643,0,0,1-.407,1.641,2,2,0,0,1-1.594.5,2.006,2.006,0,0,1-1.593-.5Zm1.719,1.322.915,1.015a.952.952,0,0,0,.836.363h.147c.4,0,.43-.068.147-.353l-1.141-1.116c1.321-.273,1.852-1.185,1.852-2.872v-1.664a3.391,3.391,0,0,0-.632-2.234,2.86,2.86,0,0,0-2.25-.74,2.856,2.856,0,0,0-2.248.74,3.389,3.389,0,0,0-.634,2.234v1.664c0,1.835.621,2.723,2.284,2.894A3.477,3.477,0,0,0,1187.706-460.723Z" transform="translate(-316.102 -301.363)" fill="#fff" fill-rule="evenodd"/>
    <path id="Path_44" data-name="Path 44" d="M1211.54-459.137v-3.236c0-.284-.055-.365-.361-.365h-.125c-.281,0-.361.08-.361.365v3.236c0,.946-.385,1.322-1.5,1.322s-1.514-.4-1.514-1.322v-3.236c0-.284-.057-.365-.362-.365h-.124c-.283,0-.362.08-.362.365v3.236c0,1.425.791,2.131,2.362,2.131C1210.817-457.006,1211.54-457.724,1211.54-459.137Z" transform="translate(-330.784 -305.068)" fill="#fff" fill-rule="evenodd"/>
    <path id="Path_45" data-name="Path 45" d="M1229.495-460.545h-3.052v-.376c0-.923.509-1.39,1.525-1.39s1.527.467,1.527,1.39v.376Zm-1.515-2.529a2.114,2.114,0,0,0-2.385,2.4v1.06c0,1.675.814,2.381,2.611,2.381a5.177,5.177,0,0,0,1.549-.217c.306-.091.35-.171.35-.41v-.1c0-.285-.091-.376-.361-.3a5.577,5.577,0,0,1-1.538.216c-1.254,0-1.763-.411-1.763-1.447v-.342h3.414c.3,0,.372-.068.405-.354a4.3,4.3,0,0,0,.035-.615A2.059,2.059,0,0,0,1227.979-463.074Z" transform="translate(-343.236 -304.845)" fill="#fff" fill-rule="evenodd"/>
    <path id="Path_46" data-name="Path 46" d="M1245.132-469.612a.559.559,0,0,0-.566.559.55.55,0,0,0,.566.547.537.537,0,0,0,.542-.547A.547.547,0,0,0,1245.132-469.612Z" transform="translate(-355.823 -300.507)" fill="#fff" fill-rule="evenodd"/>
    <path id="Path_47" data-name="Path 47" d="M1245.455-462.738h-.126c-.3,0-.361.08-.361.365v4.888c0,.308.057.365.361.365h.126c.282,0,.361-.057.361-.365v-4.888C1245.816-462.658,1245.737-462.738,1245.455-462.738Z" transform="translate(-356.09 -305.068)" fill="#fff" fill-rule="evenodd"/>
    <path id="Path_48" data-name="Path 48" d="M1253.648-469.612a.557.557,0,0,0-.553.559.547.547,0,0,0,.553.547.54.54,0,0,0,.554-.547A.55.55,0,0,0,1253.648-469.612Z" transform="translate(-361.482 -300.507)" fill="#fff" fill-rule="evenodd"/>
    <path id="Path_49" data-name="Path 49" d="M1251.813-462.738h-.125c-.306,0-.362.08-.362.365v4.137a4.184,4.184,0,0,1-.485,2.177,2.927,2.927,0,0,1-.442.479c-.193.17-.2.25-.057.49l.067.1c.17.239.239.262.431.114a3.467,3.467,0,0,0,.972-1.231,5.293,5.293,0,0,0,.361-2.188v-4.08C1252.174-462.658,1252.094-462.738,1251.813-462.738Z" transform="translate(-359.59 -305.068)" fill="#fff" fill-rule="evenodd"/>
    <path id="Path_50" data-name="Path 50" d="M1265.256-459.622c0,1.128-.407,1.585-1.617,1.585s-1.639-.456-1.639-1.585v-1.06c0-1.129.418-1.584,1.639-1.584s1.617.455,1.617,1.584v1.06Zm-1.617-3.452c-1.66,0-2.486.8-2.486,2.393v1.06c0,1.6.756,2.393,2.486,2.393a2.149,2.149,0,0,0,2.464-2.393v-1.06C1266.1-462.277,1265.356-463.074,1263.639-463.074Z" transform="translate(-366.829 -304.845)" fill="#fff" fill-rule="evenodd"/>
    <path id="Path_51" data-name="Path 51" d="M878.687-429.247l.777-2.838c.169-.626.3-.774.7-.774.372,0,.518.148.688.774l.777,2.838Zm3.053-2.735a3.25,3.25,0,0,0-.574-1.323,1.256,1.256,0,0,0-1-.353,1.292,1.292,0,0,0-1.013.353,3.559,3.559,0,0,0-.575,1.323l-1.509,5.459c-.079.285-.023.376.281.376h.125c.315,0,.406-.068.485-.376l.518-1.914h3.367l.53,1.914c.078.308.168.376.484.376h.112c.3,0,.361-.091.282-.376Z" transform="translate(-111.97 -324.363)" fill="#fff" fill-rule="evenodd"/>
    <path id="Path_52" data-name="Path 52" d="M901.934-428.353c-.136-.012-.26-.024-.36-.024a1.725,1.725,0,0,0-1.926,1.973v3.4c0,.309.078.365.36.365h.124c.3,0,.361-.057.361-.365v-3.35c0-.854.282-1.208,1.081-1.208.056,0,.169.011.349.023.282.046.35-.011.35-.3v-.114C902.272-428.24,902.215-428.319,901.934-428.353Z" transform="translate(-126.974 -327.866)" fill="#fff" fill-rule="evenodd"/>
    <path id="Path_53" data-name="Path 53" d="M913.65-426.159a3.476,3.476,0,0,1-1,.114c-.686,0-1.035-.353-1.035-1.208v-2.894h1.824c.281,0,.349-.069.349-.352v-.1c0-.286-.068-.354-.349-.354h-1.824v-1.173c0-.239-.068-.308-.3-.308h-.079c-.259,0-.326.069-.337.308l-.124,1.173-.642.091c-.237.034-.3.092-.3.353v.057c0,.262.044.308.3.308h.642v2.894q0,2.018,1.892,2.017a3.737,3.737,0,0,0,.981-.113c.27-.08.348-.182.348-.41v-.1C913.988-426.148,913.91-426.216,913.65-426.159Z" transform="translate(-133.724 -325.172)" fill="#fff" fill-rule="evenodd"/>
    <path id="Path_54" data-name="Path 54" d="M929.666-425.845h-3.041v-.377c0-.923.508-1.391,1.521-1.391s1.52.468,1.52,1.391v.377Zm-1.509-2.53a2.11,2.11,0,0,0-2.376,2.405v1.06c0,1.675.811,2.381,2.6,2.381a5.14,5.14,0,0,0,1.543-.216c.3-.092.349-.171.349-.41v-.1c0-.285-.09-.376-.36-.3a5.5,5.5,0,0,1-1.532.217c-1.25,0-1.758-.41-1.758-1.447v-.343h3.4c.3,0,.371-.068.4-.353a4.222,4.222,0,0,0,.034-.616A2.056,2.056,0,0,0,928.157-428.375Z" transform="translate(-144.313 -327.868)" fill="#fff" fill-rule="evenodd"/>
    <path id="Path_55" data-name="Path 55" d="M947.2-425.526l-1.431-.661c-.394-.182-.6-.433-.6-.752,0-.456.316-.638,1.138-.638a4.283,4.283,0,0,1,1.408.216c.26.078.36.011.36-.273v-.1c0-.261-.066-.33-.336-.421a4.131,4.131,0,0,0-1.409-.217c-1.363,0-1.994.445-1.994,1.436,0,.763.293,1.116,1.048,1.482l1.375.66c.551.274.731.457.731.821,0,.49-.337.649-1.227.649a6.22,6.22,0,0,1-1.656-.228c-.27-.057-.36.011-.36.3v.093c0,.239.079.341.36.421a5.753,5.753,0,0,0,1.589.217c1.453,0,2.128-.456,2.128-1.472C948.327-424.774,948.013-425.15,947.2-425.526Z" transform="translate(-156.567 -327.868)" fill="#fff" fill-rule="evenodd"/>
    <path id="Path_56" data-name="Path 56" d="M964.2-424.363c0,.821-.439,1.094-1.521,1.094-.844,0-1.261-.319-1.261-.968,0-.718.439-.991,1.464-.991H964.2v.866Zm-1.521-4.012a5.559,5.559,0,0,0-1.216.114c-.269.057-.337.126-.337.389v.09c0,.274.09.343.36.286a5.545,5.545,0,0,1,1.239-.126c.991,0,1.475.3,1.475,1.038v.683h-1.329c-1.565,0-2.3.49-2.3,1.663,0,1.151.778,1.709,2.118,1.709,1.634,0,2.354-.535,2.354-1.8v-2.256C965.048-427.783,964.26-428.375,962.682-428.375Z" transform="translate(-167.399 -327.868)" fill="#fff" fill-rule="evenodd"/>
    <path id="Path_57" data-name="Path 57" d="M981.167-428.375c-1.565,0-2.354.707-2.354,2.131v3.237c0,.308.078.364.36.364h.125c.3,0,.36-.056.36-.364v-3.237c0-.922.395-1.323,1.509-1.323s1.487.377,1.487,1.323v3.237c0,.308.057.364.361.364h.135c.3,0,.36-.056.36-.364v-3.237C983.51-427.657,982.789-428.375,981.167-428.375Z" transform="translate(-179.499 -327.868)" fill="#fff" fill-rule="evenodd"/>
    <path id="Path_58" data-name="Path 58" d="M1000.943-424.363c0,.821-.439,1.094-1.52,1.094-.846,0-1.262-.319-1.262-.968,0-.718.44-.991,1.464-.991h1.318v.866Zm-1.52-4.012a5.554,5.554,0,0,0-1.217.114c-.27.057-.337.126-.337.389v.09c0,.274.09.343.36.286a5.54,5.54,0,0,1,1.239-.126c.991,0,1.475.3,1.475,1.038v.683h-1.329c-1.566,0-2.3.49-2.3,1.663,0,1.151.778,1.709,2.118,1.709,1.634,0,2.354-.535,2.354-1.8v-2.256C1001.788-427.783,1001-428.375,999.423-428.375Z" transform="translate(-191.776 -327.868)" fill="#fff" fill-rule="evenodd"/>
    <path id="Path_59" data-name="Path 59" d="M1017.13-427.809h-.057c-.384,0-.575-.285-.575-.866v-6.005c0-.308-.079-.365-.36-.365h-.123c-.3,0-.361.057-.361.365v6.153c0,1.014.5,1.528,1.306,1.528a.809.809,0,0,0,.2-.012c.258-.045.315-.137.315-.422v-.08C1017.478-427.775,1017.434-427.809,1017.13-427.809Z" transform="translate(-203.943 -323.441)" fill="#fff" fill-rule="evenodd"/>
    <path id="Path_60" data-name="Path 60" d="M1041.32-429.348c0,1.129-.417,1.585-1.62,1.585s-1.623-.456-1.623-1.585v-1.06c0-1.129.417-1.584,1.623-1.584s1.62.455,1.62,1.584v1.06Zm.484-5.7h-.123c-.3,0-.361.057-.361.365v2.711a1.811,1.811,0,0,0-1.757-.832,2.092,2.092,0,0,0-2.332,2.4v1.06c0,1.594.788,2.381,2.468,2.381a2.144,2.144,0,0,0,2.465-2.381v-5.344C1042.165-434.989,1042.086-435.046,1041.8-435.046Z" transform="translate(-218.26 -323.441)" fill="#fff" fill-rule="evenodd"/>
    <path id="Path_61" data-name="Path 61" d="M1060.729-424.922c0,1.129-.406,1.585-1.611,1.585s-1.633-.456-1.633-1.585v-1.06c0-1.129.416-1.584,1.633-1.584s1.611.455,1.611,1.584v1.06Zm-1.611-3.453c-1.655,0-2.478.8-2.478,2.393v1.06c0,1.6.754,2.393,2.478,2.393a2.145,2.145,0,0,0,2.455-2.393v-1.06C1061.573-427.576,1060.83-428.375,1059.118-428.375Z" transform="translate(-231.137 -327.868)" fill="#fff" fill-rule="evenodd"/>
    <path id="Path_62" data-name="Path 62" d="M1090.944-427.162a4.487,4.487,0,0,1-1.621.3c-1.4,0-1.982-.649-1.982-2.005v-1.824c0-1.47.6-2.131,1.948-2.131a3.955,3.955,0,0,1,1.577.307c.236.1.349.012.349-.261v-.148c0-.239-.066-.33-.326-.433a4.253,4.253,0,0,0-1.566-.3c-1.914,0-2.873.992-2.873,2.963v1.824c0,1.948.913,2.838,2.9,2.838a3.715,3.715,0,0,0,1.6-.286c.27-.125.338-.215.338-.456v-.136C1091.282-427.2,1091.2-427.264,1090.944-427.162Z" transform="translate(-250.915 -324.363)" fill="#fff" fill-rule="evenodd"/>
    <path id="Path_63" data-name="Path 63" d="M1108.976-425.845h-3.042v-.377c0-.923.507-1.391,1.52-1.391s1.521.468,1.521,1.391v.377Zm-1.51-2.53a2.11,2.11,0,0,0-2.375,2.405v1.06c0,1.675.81,2.381,2.6,2.381a5.136,5.136,0,0,0,1.543-.216c.3-.092.348-.171.348-.41v-.1c0-.285-.089-.376-.359-.3a5.506,5.506,0,0,1-1.533.217c-1.25,0-1.757-.41-1.757-1.447v-.343h3.4c.3,0,.371-.068.4-.353a4.328,4.328,0,0,0,.034-.616A2.056,2.056,0,0,0,1107.466-428.375Z" transform="translate(-263.283 -327.868)" fill="#fff" fill-rule="evenodd"/>
    <path id="Path_64" data-name="Path 64" d="M1126.247-428.353c-.135-.012-.26-.024-.36-.024a1.725,1.725,0,0,0-1.927,1.973v3.4c0,.309.078.365.36.365h.126c.3,0,.36-.057.36-.365v-3.35c0-.854.281-1.208,1.082-1.208.056,0,.169.011.348.023.282.046.35-.011.35-.3v-.114C1126.585-428.24,1126.528-428.319,1126.247-428.353Z" transform="translate(-275.803 -327.866)" fill="#fff" fill-rule="evenodd"/>
    <path id="Path_65" data-name="Path 65" d="M1137.924-428.353c-.135-.012-.26-.024-.36-.024a1.726,1.726,0,0,0-1.927,1.973v3.4c0,.309.079.365.36.365h.125c.3,0,.36-.057.36-.365v-3.35c0-.854.283-1.208,1.082-1.208.057,0,.169.011.348.023.281.046.35-.011.35-.3v-.114C1138.262-428.24,1138.205-428.319,1137.924-428.353Z" transform="translate(-283.55 -327.866)" fill="#fff" fill-rule="evenodd"/>
    <path id="Path_66" data-name="Path 66" d="M1149.4-424.363c0,.821-.439,1.094-1.52,1.094-.846,0-1.263-.319-1.263-.968,0-.718.439-.991,1.464-.991h1.318v.866Zm-1.52-4.012a5.555,5.555,0,0,0-1.218.114c-.27.057-.337.126-.337.389v.09c0,.274.091.343.361.286a5.527,5.527,0,0,1,1.238-.126c.991,0,1.475.3,1.475,1.038v.683h-1.329c-1.566,0-2.3.49-2.3,1.663,0,1.151.778,1.709,2.117,1.709,1.634,0,2.354-.535,2.354-1.8v-2.256C1150.248-427.783,1149.46-428.375,1147.884-428.375Z" transform="translate(-290.278 -327.868)" fill="#fff" fill-rule="evenodd"/>
    <path id="Path_67" data-name="Path 67" d="M1167.767-429.348c0,1.129-.416,1.585-1.622,1.585s-1.622-.456-1.622-1.585v-1.06c0-1.129.417-1.584,1.622-1.584s1.622.455,1.622,1.584v1.06Zm.484-5.7h-.124c-.3,0-.36.057-.36.365v2.711a1.813,1.813,0,0,0-1.757-.832,2.093,2.093,0,0,0-2.332,2.4v1.06c0,1.594.789,2.381,2.468,2.381a2.145,2.145,0,0,0,2.466-2.381v-5.344C1168.612-434.989,1168.532-435.046,1168.251-435.046Z" transform="translate(-302.155 -323.441)" fill="#fff" fill-rule="evenodd"/>
    <path id="Path_68" data-name="Path 68" d="M1187.177-424.922c0,1.129-.4,1.585-1.61,1.585s-1.635-.456-1.635-1.585v-1.06c0-1.129.417-1.584,1.635-1.584s1.61.455,1.61,1.584v1.06Zm-1.61-3.453c-1.657,0-2.478.8-2.478,2.393v1.06c0,1.6.754,2.393,2.478,2.393a2.145,2.145,0,0,0,2.455-2.393v-1.06C1188.022-427.576,1187.278-428.375,1185.567-428.375Z" transform="translate(-315.034 -327.868)" fill="#fff" fill-rule="evenodd"/>
    <path id="Path_69" data-name="Path 69" d="M778.468-432.029c-.077-1.105-.495-1.526-1.385-1.526-.811,0-1.206.421-1.351,1.526l-.632,4.775c-.044.354-.113.445-.292.445s-.248-.08-.293-.445l-.631-4.775c-.147-1.128-.54-1.526-1.351-1.526-.891,0-1.306.421-1.385,1.526l-.407,5.563c-.009.307.057.387.361.387h.113c.3,0,.373-.068.407-.387l.4-5.641c.033-.49.18-.65.508-.65.281,0,.427.148.507.65l.71,4.968c.1.763.416,1.06,1.058,1.06.686,0,.957-.285,1.059-1.06l.709-4.968c.078-.49.215-.65.495-.65.35,0,.486.148.519.65l.4,5.641c.033.319.1.387.406.387h.123c.3,0,.371-.08.36-.387Z" transform="translate(-41.445 -324.431)" fill="#fff" fill-rule="evenodd"/>
    <path id="Path_70" data-name="Path 70" d="M800.34-428.036h-.124c-.3,0-.36.08-.36.365v4.889c0,.308.056.365.36.365h.124c.283,0,.361-.057.361-.365v-4.889C800.7-427.956,800.623-428.036,800.34-428.036Z" transform="translate(-60.763 -328.093)" fill="#fff" fill-rule="evenodd"/>
    <path id="Path_71" data-name="Path 71" d="M800.018-434.91a.559.559,0,0,0-.564.558.548.548,0,0,0,.564.547.537.537,0,0,0,.541-.547A.548.548,0,0,0,800.018-434.91Z" transform="translate(-60.497 -323.532)" fill="#fff" fill-rule="evenodd"/>
    <path id="Path_72" data-name="Path 72" d="M810.408-428.375c-1.566,0-2.354.707-2.354,2.131v3.237c0,.308.078.364.361.364h.124c.3,0,.36-.056.36-.364v-3.237c0-.922.4-1.323,1.509-1.323s1.486.377,1.486,1.323v3.237c0,.308.057.364.361.364h.136c.3,0,.361-.056.361-.364v-3.237C812.752-427.657,812.03-428.375,810.408-428.375Z" transform="translate(-66.203 -327.868)" fill="#fff" fill-rule="evenodd"/>
    <path id="Path_73" data-name="Path 73" d="M830.183-424.363c0,.821-.439,1.094-1.52,1.094-.845,0-1.263-.319-1.263-.968,0-.718.439-.991,1.465-.991h1.318v.866Zm-1.52-4.012a5.568,5.568,0,0,0-1.218.114c-.27.057-.337.126-.337.389v.09c0,.274.089.343.36.286a5.546,5.546,0,0,1,1.239-.126c.99,0,1.476.3,1.476,1.038v.683h-1.329c-1.566,0-2.3.49-2.3,1.663,0,1.151.778,1.709,2.118,1.709,1.634,0,2.355-.535,2.355-1.8v-2.256C831.029-427.783,830.239-428.375,828.663-428.375Z" transform="translate(-78.479 -327.868)" fill="#fff" fill-rule="evenodd"/>
    <path id="Path_74" data-name="Path 74" d="M847.342-425.526l-1.431-.661a.846.846,0,0,1-.6-.752c0-.456.315-.638,1.138-.638a4.278,4.278,0,0,1,1.407.216c.26.078.36.011.36-.273v-.1c0-.261-.067-.33-.336-.421a4.135,4.135,0,0,0-1.409-.217c-1.364,0-1.994.445-1.994,1.436,0,.763.292,1.116,1.047,1.482l1.375.66c.551.274.731.457.731.821,0,.49-.336.649-1.227.649a6.229,6.229,0,0,1-1.656-.228c-.27-.057-.36.011-.36.3v.093c0,.239.079.341.36.421a5.757,5.757,0,0,0,1.588.217c1.454,0,2.129-.456,2.129-1.472C848.469-424.774,848.153-425.15,847.342-425.526Z" transform="translate(-90.312 -327.868)" fill="#fff" fill-rule="evenodd"/>
    <circle id="Ellipse_2" data-name="Ellipse 2" cx="35.445" cy="35.445" r="35.445" transform="matrix(0.956, -0.292, 0.292, 0.956, 753.467, -890.751)" fill="#faac18"/>
    <path id="Path_75" data-name="Path 75" d="M818.164-850.287c-2.153,5.883.558,10.158,4.369,15,2.1,2.662-6.714,7.068,6.037,14.82l4.825,2.934c.6.364-2.714.075-5.592.077-3.838,0-8.447.146-9.426.206-.527.033-6.517.011-6.756-.129-.031-.9-.261-2.042.113-2.679-.414-1,2.691-6.672,2.072-10.022-.389-2.1,1.422-4.647-1.509-8.6-1.228-1.658-2.85-5.224-4.988-6.747-2.109-1.5-5.3-5.888-8.3-6.731-2.983-.837-6.243-4.547-7.81-7.112-.272-.445-2.278-1.979-2.376-2.148-.159-.022-5.352-3.788-6.8-4-1.729-.246.7-1.418-4.4-.561-3.214.54-6.5-.344-7.625-3.5-.717-2.018-.963-1.961-2.923-2.231a4.887,4.887,0,0,0-.455-.289,9.571,9.571,0,0,0-.823,1.064c-.392.839-2.442,2.26-3.034,2.123a4.026,4.026,0,0,0-3.137.524c2.169-2.1,5.318-1.213,6.624-4.423a5.509,5.509,0,0,0-2.664-1.239,10.026,10.026,0,0,0-4.8.456c-1.62.85-2.846-1.9-6.856-1.2-2.548.446-4.753.15-6.031,2.526-1.112,2.067-7.8-.535-10.214-.869-.818-.113,1.651-.346,3.219-.13,1.4.194,5.062,1.422,5.637,1.058,2.294-1.451-1.218-1.5,5.062-3.139,5.082-1.327,3.272-2.053,8.083.008-.687-1.026-1.989-3.162-2.161-3.471a4.551,4.551,0,0,0-.259-.413c-1.385.5-2.586,1.066-4.451,1.667-1.909.614-9.3-1.156-4.109-.324a31.429,31.429,0,0,0,6.7-1.308c.489-.3.853-.569,1.17-.8-1.872-1.631-4.626-1.223-4.653-2.175a3.775,3.775,0,0,0-.853-2.21,4.809,4.809,0,0,1-1.054.244c-1.337.05-1.99,1.715-3.114,1.923-.108.46-.1.115-.327.467-2.935,4.488-6.046,1.485-6.679,2.6-1.63,2.883-5.631,3.52-8.543,4.157-1.093.239,7.015-3.677,7.057-3.739,1.924-2.773,4.551-.553,4.841-1.312,1.137.073,3.446-3.994,7.361-4.875a14.415,14.415,0,0,0-2.761-2.092c-.005.035-.013.072-.023.115-1.695.032-4.167,3.954-6.783,2.264-2.353-1.521-3.738.125-4.511-.672-2.066-2.134,1.045-4.619-1.822-5.015-1.746-.241-1.876-3.253-1.86-3.226,1.1,1.876,4.367,2.6,4.3,3.682-.4,6.195.5,1.292,3.395,3.309,2.354,1.638,4.309.34,6.42-1a22.693,22.693,0,0,1-2.211-1.44c-2.243-1.77-6.605-3.319-6.374-7.463.225-4.04.391-2.735-.113-6.751-.1-.841-4.48-3.017-3.14-2.915,1.449.681.767-.392,2.8,1.016,2.955,2.044,1.407,5.325,2.3,8.16,2.259,7.211,5.549,5.867,10.081,9.331,1.135-.593.214-.965,2.487-.594,1.158.189,1.717-3.309,2.45-3.384,1.952-.2.789-1.413,1.007-2.985a6.853,6.853,0,0,0,.666,2.294c1.151.16,1.7-.466,2.728.552,1.209,1.2,4.252-.8,5.742-.383-1.571,1.328-4.654,2.383-6.485.879-.22-.18-2.042-.752-2.425-.212-.343.484-1.693,2.906-2.146,2.828-1.021-.175-.01,1.722-2.454,1.384-.268-.037-.391.218-.746.293.251.209.221.192.479.434,2.8,2.634,1.138,4.085,5.133,5a2.942,2.942,0,0,1,1.022.841,5.206,5.206,0,0,1,2.49.1c.547.112,3.784-.269,5.031-.211,3.571.166,2.1,1.658,7.276.326,1.277-.329,5.323-.166,6.12,1.053a36.536,36.536,0,0,1,2.687,3.735c.726,1.356,3.862,1.555,5.073.848,1.629-.951,3.111.892,4.13,1.93,1.039,1.058.552,1.292,1.953,2.56.786.712-1.05,1.7-1.592,1.942-1.309.575-1.213,1.328-1.382,2.448a6.876,6.876,0,0,0,1.115.279c3.234.554,2.566,5.929,7.267,6.374,1.611.153,3.56,2.922,5.576,3.547,1.3.4.885-.407,1.2-2.682a4.477,4.477,0,0,0-4.781-5.019c-4.33.12-6.645-5.235-4.068-7.527.607-.54-.016-2.664,4.328-4.693,2.856-1.334.133-4.674,4.55-5.092,1.275-.121,5.472-5.715.526-4.381-5.038,1.359-4.5,2.438-6.555,3.27-2.982,1.2-5.454-3.056-8.615-.711a2.766,2.766,0,0,1-2.591-.949c-.721-.957-2.011-3.716-3.018-3.856-1.845-.255-3.263-2.513-3.005-4.524.378-2.953-5.553.7-8.18.3-3-.459-7.416-1.444-7.8-5.162-.238-2.3-.37,1.589,1.321,2.16a11.87,11.87,0,0,0,2.883.978,1.011,1.011,0,0,0,.388-.588c.128-1.015-.428-1.095-.858-2.094a7.849,7.849,0,0,1-.713-3.794l.023-.257.113.2c.035.063,0,.152,0,.234a1.112,1.112,0,0,0,.095.565c.15.266.379,1.44.863,2.456a13.875,13.875,0,0,0,.939,1.381c.249.8.5,1.38.033,1.962l.444.01c4.565.108,3.146,2.076,8.064-1.191.371-.246,5.185-.159,4.714,3.245-.5,3.654,3.672,2.573,3.631,4.914-.019,1.052,3.135,2.556,5.3,1.293,2.068-1.21,3.571.983,6.237-.154,1.455-.621,2.935-.65,5.4-1.881,3.553-1.775,10.426,4.235,1.789,7.27-2.19.77-3.818,5.65-6.141,8.352-.6.7-2.083,4.4.1,5.032,4.156,1.195,5.456,2.136,6.721,6.465a15.265,15.265,0,0,1-.269,2.877c3.435,2.541.938-1.616,2.49-3.128,1.752-1.708,2.416-6.312.862-8.546-.76-1.093-2.1-6.059-.054-6.143,1.523-.063,1.727-5.75.819-7.268-.756-1.267,1.593-4.716-2.337-5.885-4.329-1.287-1.868-.178-4.558-3.565-.953-1.2-2.822.278-3.708-1.636-.585-1.265-3.017-4.732-4.49-4.587-2.7.264-3.981,5.111-9.239-1.093-1.79-2.112-4.3,1.983-7.063-2.141-.879-1.312-.741-2.99-2.808-3.636-1.767-.552-8.984-11.746-7.889-10.186,1.352,1.927,7.651,9.409,9.359,10,2.042.705,1.041,3.887,4.48,4.362,2.09.288,3.384.18,5.277.442,1.761,1.84,2.887,2.753,5.79,1.574,5.2-2.112,6.892,4.87,9.093,5.174,3.69.509,2.588.865,3.51,2.437a.493.493,0,0,1,.127-.111c.126-.079.655-.456.611-.586.088-.635.816-3.239.417-3.6-3.192-2.87-1.073-2.6-1.778-5.783-.854-3.854-5.3-3.065-5.4-4.735-.2-3.218.68-1.893-1.494-3.918-1.848-1.722-3.5-.135-2.923-4.314.47-3.4-5.318-2.059.977-8.458,2.662,1.749-2.234.983-.779,4.825,1.211,3.2-.16,3.293,2.1,6.219.662.857,2.022-1.131,3.57,4.378a1.825,1.825,0,0,0,.883,1.084c.056-2.394,2.006-.877,1.99-3.671,0-.779-1.1-1.759-1.025-4.164.068-2.307.032-1.251.547.232.359,1.036-.584.4.841,2.637.593.932.188,1.76,1.782-.572.854-1.249-.537-2.3,1.92-2.747,1.191-.216-.605-.811-.957,2.513a4.152,4.152,0,0,1-2.237,2.767c-1.135.492-.915,2.942-1.358,3.759a6.2,6.2,0,0,1,2.639,2.4c.965,1.58.5,1.423.707,3.257a3.776,3.776,0,0,0,.537,1.556c1.622.919.612,3.182.994,3.97.869,1.791.634,1.8.778,3.788a5.522,5.522,0,0,1-.055.847,2.662,2.662,0,0,1,1.323,1.34c.078.156.046.17.163.214,2.1-.033.7.768,1.7,2.078.405.532-.182,1.686.768,3.277a3.316,3.316,0,0,1,1.913-.258c.682.125,1.253-1.35,1.343-2.1a1.327,1.327,0,0,1,.737-.982c-.215-2.126-1.874-3.62-1.339-5.2s1.856-2.266,1.532-3.168c-.985-2.742.37-3.577.651-5.615.211-1.528-1.192-2.641-.24-4.007,1.336-1.918,1.26-1.62,1.614-3.86.28-1.774-3.57-4.7-4.754-5.128-1.377-.5-3.148-5.287-3.5-6.5a22.345,22.345,0,0,1,1.5,2.984c1.071,1.99,3.335,2.564,5.048,4.611,1.582,1.888,2.722,2.156,3.05,3.653.47-.062,1.176.447,2.246.261,2.316-.4-.056-5.862,2.232-5.553,2.461.333.178-3.207,4.734-3.6a5.68,5.68,0,0,0,2.739-.678c.356.126-2.33,1.953-3.858,1.9-1.8-.057-.536,3.083-2.932,3.142s1.309,5.112-2.267,5.815c-1.187.234-2.592.161-2.88,1.757l-.065.087a3.553,3.553,0,0,0-.356.489c-.814,1.18-2.553,1.832-1.307,3.731a6.266,6.266,0,0,1,.635,2.526c-.425,3.084-.606,2.116-1.455,4.647a34.673,34.673,0,0,0-.788,3.626c.166.039-.125.839.186,1.549a5.49,5.49,0,0,1,.515,2.006,2.523,2.523,0,0,0,1.243-2.93c-.254-1.864,2.3-.947,1.546-4.579-.931-4.489,1.6-1.873,5.273-5.076.836-.729-.375.138-.878,1.05-1.868,3.387-5.545.656-3.633,5.447.7,1.748-1.628,2.658-1.789,3.818-.565,4.092-1.191,2.475-2.655,4.725-.7,1.072.618,3.2-3.3,2.657l-.637-.089c-.293,1.094-1.217,2.6-.493,4.984.331,1.092-1.1,3.964,1.313,7.921.016.026-.352,6.591-1.042,7.333-5.43,5.832,1.02.827,1.6.052,3.1-4.109.474-3.974,4.33-7.084,2.855-2.3-2.833-5.391,2.843-9.038,2.655-1.706,3.057-5.463,2.489-8.315-.474-2.385,1.744-10.337,4.292-11.034a20.533,20.533,0,0,0,5-2.029c1.043.756-7.328,2.647-7.018,6.851.2,2.673-1.978,1.946-1.032,5.73.611,2.442-.594,9.282-2.661,10.945-.952.767-1.173,5.285-1.373,5.326,1.123-2.67,5.4-.078,7.554-2,3.286-2.936,6.113-2.81,7.952-5.175,2.188-2.814,2.109-3.4,4.881-4.5a.413.413,0,0,0-.05-.055c-.339-.313-.086-2.071.044-2.147a4.99,4.99,0,0,1,.785-2.1c2.373-3.294.915-8.225,2.376-9.119,2.393-1.464,1.739-.617,3.689-3.02a11.948,11.948,0,0,1,1.44-1.519h0c-.188-.026-.018-.522.042-.641a1.551,1.551,0,0,0-.023-1.507,1.313,1.313,0,0,0-.515-.506c-.421-1.357-4.311.853-3.214-5.095,1.593-8.634-.733,2.849,2.451,3.17,4.086.413,1.378,2.515,2.473,3.751,2.04-1.012,3.662.1,6.435-.242,5.522-.691,4.588-1.53,2.053.147-4.334,2.867-5.834-.986-8.916,2.041l-.1.1c.709.045.833-.226,2.366,1.109.494.43,3.878.089,4.844.449.149.055,3.511,1.024,3.526,1.025,1.913.264,2.107-.42,2.883-.419.005,0,.478.431-.441.417-.634-.009-.071.856-3.57.373-1.074-.148-3.142-.257-4.013-.785-.889-.54-2.581.64-4.388.391-1.62-.224-.553-1.142-2.263-1.575-3.136,2.8-3.553,2.076-4.336,7.746-.537,3.891-2.773,5.184-2.389,7.568l.022-.008c2.286-.816.756-1.551,3.952-.428,1.126.4,3.195.07,5.281-.573-.076-.2-.153-.406-.231-.628-.313-.891-1.779-3.812-1.125-4.679.5-.669.336,1.555.411,1.784a16.448,16.448,0,0,0,.757,1.828,5.16,5.16,0,0,0,.663,1.542c2.389-.791,4.707-1.963,5.557-2.912.254.989-1.944,2.956-4.356,4.452,1.011,1.1,2.2,2.112,3.024,3.124.17,0-.013-1.148.541-1.147a3.126,3.126,0,0,0,2.172-1.34c.363-.5,3.334-3.232,3.517-2.757.567,1.469-.172.082-1.388,1.328-.58.594-.324.809-1.222,1.715-1.292,1.3-.946,1.683-2.805,2.641-1.05.539-.79,3.762.641,4.56.818.456-1.525,1.382-1.83,1.5-.853.318-1.452,1.533-2.311,2.489A9.016,9.016,0,0,0,857.6-870.4c1.919-.925,4.161-1.347,5.9-2.663-2.608,1.974-5.079,4.987-9.136,5.375-7.569.725-3.224-.944-10.092,3.17-2.406,1.441-4.556-1.661-7.9,1.512-.492.467-13.485,7.557-14.287,7.712-.479.093-1.508,2.5-1.8,2.894-.55-.028-1.967,1.954-2.117,2.111Zm-61.57-29.276a26.342,26.342,0,0,1,3.013,4.6c1.852-.247,5.133-1.053,6.661-.842,3.665.506.128,3.635,4.215,4.029,1.542.149,1.087,2.256,3.966,2.654,1.336.184,4.686-.5,7.775-.075a4.131,4.131,0,0,1,3.228,1.7c.04-1.079-.176-.277,1.757-1.721.569-.425.2-1.944-.463-2.6-1.893-1.889-.738-3.063-4.734-.981-2.045,1.065-3.592-2.357-4.525-3.7-1.047-1.506-.819-1.448-2.8-2.49-1.32-.694-1.874-1.594-3.7-.076-2.2,1.83-8.145-1.87-12.373-1.006-.768.156-1.427.324-2.023.5Zm94.906-1.43a9.9,9.9,0,0,1-3.968,1.472c-1.75.011-2.248.756-4.568-.6-2.141-1.25-4.771,3.98-8.564,5.67-3.286,1.465.58,4.273-6.845,5.487-4.029.659-9.094,2.35-11.808,5.583-.878,1.047-.93,3.149-4.065,6.371-2.995,3.079-2.733.613-3.429,5.655-.009.063,6.507,5.819,6.607,4.847.615-5.934,2.513-11.678,8.906-13.18,3.929-.922,6.076-6.539,9.4-6.011,2.706.429,3.06-1.025,6.692-.791a8.34,8.34,0,0,0,6.8-2.357c1.645-1.619,2.9-1.126,4.638-.748a7.028,7.028,0,0,1,1.63-.777c.016-.006,2.856-2.98,2.581-3.407-.8-1.234-.021-3.232-.628-4.175C853.957-879.4,852.891-878.532,851.5-880.993Z" transform="translate(-13.916)" fill="#fff" fill-rule="evenodd"/>
    <path id="Path_76" data-name="Path 76" d="M1063.469-892.872c-.794.143-1.854-.424-1.382.892.169.471.913-.708.253.823-.15.345-.808.361-.274,1.865.16.449.718-.41.837.556.052.423,1.137-.76,1.137.018s.5,0,1.488.49,1.753.225,2.982.428c.4.067.033-2.032.3-2.348.5-.584,2.588-.92,2.494-2.543a1.585,1.585,0,0,1-1.2-1.129c-.775-2.207.365-1-2.7-1.215-1.227-.087-.914.262-1.867-.417-.272-.194-3.242-1.039-2.362.235.061.089-1.357.271-.251,1.431.759.795.3.48.485.848Z" transform="translate(-234.6 -17.666)" fill="#fcb614" fill-rule="evenodd"/>
  </g>
</svg>
