<?xml version="1.0" encoding="utf-8"?>
<!-- Generator: Adobe Illustrator 23.0.1, SVG Export Plug-In . SVG Version: 6.00 Build 0)  -->
<svg version="1.1" id="Layer_1" xmlns="http://www.w3.org/2000/svg" xmlns:xlink="http://www.w3.org/1999/xlink" x="0px" y="0px"
	 viewBox="0 0 338.61 110.11" style="enable-background:new 0 0 338.61 110.11;" xml:space="preserve">
<style type="text/css">
	.st0{fill-rule:evenodd;clip-rule:evenodd;fill:#562E0E;}
	.st1{fill-rule:evenodd;clip-rule:evenodd;fill:#FAAC18;}
	.st2{fill-rule:evenodd;clip-rule:evenodd;fill:#FCB614;}
</style>
<g>
	<path class="st0" d="M151.68,51.42c0.75-2.79,1.02-2.79,1.91-2.79c0.89,0,1.11,0,1.86,2.8l2.54,9.31h-8.84L151.68,51.42
		L151.68,51.42z M159.67,67l1.61,5.88c0.64,2.08,1.49,2.71,3.62,2.71h0.67c0.91,0,1.82-0.09,2.33-0.76
		c0.54-0.69,0.36-1.62,0.14-2.45l-5.92-21.33c-0.91-3.26-1.87-5.43-2.92-6.63c-1.15-1.37-2.99-2.03-5.63-2.03
		c-2.61,0-4.46,0.66-5.66,2.01c-1.06,1.21-2.02,3.38-2.93,6.64l-5.93,21.35c-0.21,0.81-0.39,1.74,0.15,2.43
		c0.51,0.66,1.43,0.76,2.33,0.76h0.68c2.14,0,2.98-0.63,3.63-2.74l1.61-5.85H159.67z"/>
	<path class="st0" d="M184.98,58.34h-7.03v-8.1c0-0.63,0.16-0.94,1.01-0.94h6.02c3.5,0,4.62,1.1,4.62,4.52
		C189.6,57.24,188.48,58.34,184.98,58.34L184.98,58.34z M196.39,53.82c0-7.29-3.84-10.99-11.41-10.99h-7.46
		c-4.34,0-6.36,2-6.36,6.31v23.38c0,2.24,0.84,3.07,3.09,3.07h0.63c2.25,0,3.08-0.83,3.08-3.07v-7.72h7.03
		C192.45,64.81,196.39,61.01,196.39,53.82z"/>
	<path class="st0" d="M206.7,50.24c0-0.63,0.16-0.94,1.01-0.94h6.16c3.81,0,4.48,1.29,4.48,4c0,2.56-0.71,3.95-4.48,3.95h-7.17
		V50.24L206.7,50.24z M203.61,75.59c2.25,0,3.08-0.83,3.08-3.07v-8.82h4.87l6.06,9.39c1.28,1.93,2.31,2.49,4.58,2.49h0.82
		c0.98,0,2.06-0.07,2.51-0.89c0.44-0.82-0.09-1.75-0.62-2.55L218.93,63c4.18-1.27,6.21-4.46,6.21-9.71
		c0-7.04-3.69-10.46-11.27-10.46h-7.61c-4.34,0-6.36,2-6.36,6.31v23.38c0,2.23,0.84,3.07,3.08,3.07H203.61z"/>
	<path class="st0" d="M249.11,62.7c0,2.49-0.46,4.33-1.34,5.46c-0.83,1.02-2.66,1.54-5.44,1.54c-2.78,0-4.61-0.52-5.43-1.53
		c-0.9-1.15-1.36-2.99-1.36-5.48v-6.82c0-2.54,0.46-4.42,1.35-5.46c0.83-1.02,2.66-1.54,5.44-1.54c2.78,0,4.61,0.52,5.45,1.55
		c0.87,1.03,1.33,2.92,1.33,5.45V62.7L249.11,62.7z M242.33,42.4c-4.99,0-8.57,1.19-10.62,3.54c-2.02,2.32-3.01,5.56-3.01,9.93v6.82
		c0,4.4,0.98,7.66,3.01,9.97c2.06,2.35,5.53,3.5,10.62,3.5c5.06,0,8.52-1.14,10.57-3.5c2.03-2.32,3.06-5.67,3.06-9.97v-6.82
		c0-4.37-0.98-7.61-3.01-9.93C250.89,43.59,247.32,42.4,242.33,42.4z"/>
	<path class="st1" d="M279.71,75.11c1.6-0.61,2.53-1.35,2.53-3.29V71.1c0-1.91-1.13-2.59-2.1-2.59c-0.32,0-0.66,0.07-1.04,0.21
		c-1.47,0.62-3.45,0.93-5.87,0.93c-4.96,0-6.98-1.84-6.98-6.34v-7.64c0-4.87,1.97-6.86,6.79-6.86c2.1,0,4.09,0.35,5.94,1.05
		c0.57,0.19,0.98,0.27,1.34,0.27c1.78,0,1.78-1.94,1.78-2.67v-0.72c0-2.01-0.66-2.47-2.56-3.29c-1.73-0.71-3.88-1.07-6.4-1.07
		c-9.04,0-13.82,4.59-13.82,13.28v7.64c0,8.61,4.52,12.8,13.82,12.8C275.63,76.12,277.83,75.78,279.71,75.11z"/>
	<path class="st1" d="M308.78,72.58v-0.43c0-2.2-0.82-3.02-3.04-3.02h-12.18c-0.85,0-1.01-0.32-1.01-0.94v-6.24h11.26
		c2.21,0,3.04-0.82,3.04-3.02V58.5c0-2.2-0.82-3.02-3.04-3.02h-11.26v-5.24c0-0.63,0.16-0.94,1.01-0.94h12.18
		c2.21,0,3.04-0.82,3.04-3.02v-0.43c0-2.2-0.82-3.02-3.04-3.02h-13.63c-4.34,0-6.36,2-6.36,6.31v20.14c0,4.31,2.02,6.31,6.36,6.31
		h13.63C307.95,75.59,308.78,74.77,308.78,72.58z"/>
	<path class="st1" d="M326.78,57.24h-7.17v-7c0-0.63,0.15-0.94,1.01-0.94h6.16c3.81,0,4.48,1.29,4.48,4
		C331.26,55.86,330.54,57.24,326.78,57.24L326.78,57.24z M337.81,72.15l-5.97-9.14c4.23-1.27,6.21-4.39,6.21-9.71
		c0-7.04-3.69-10.46-11.27-10.46h-7.61c-4.34,0-6.36,2.01-6.36,6.31v23.39c0,2.23,0.84,3.06,3.08,3.06h0.63
		c2.25,0,3.09-0.83,3.09-3.06v-8.82h4.87l6.06,9.39c1.28,1.93,2.31,2.49,4.58,2.49h0.82c0.98,0,2.06-0.07,2.51-0.89
		C338.88,73.88,338.34,72.95,337.81,72.15z"/>
	<path class="st0" d="M140.69,85.87l0.82-2.97c0.18-0.66,0.32-0.81,0.73-0.81c0.39,0,0.54,0.16,0.72,0.81l0.82,2.97H140.69
		L140.69,85.87z M143.9,83c-0.18-0.68-0.38-1.14-0.6-1.38c-0.21-0.25-0.57-0.37-1.05-0.37c-0.49,0-0.84,0.12-1.06,0.37
		c-0.21,0.24-0.41,0.7-0.6,1.38l-1.58,5.71c-0.08,0.3-0.02,0.39,0.29,0.39h0.13c0.33,0,0.43-0.07,0.51-0.39l0.54-2H144l0.56,2
		c0.08,0.32,0.18,0.39,0.51,0.39h0.12c0.32,0,0.38-0.09,0.3-0.39L143.9,83z"/>
	<path class="st0" d="M148.85,89.23c1.53,0,2.23-0.48,2.23-1.54c0-0.81-0.33-1.21-1.18-1.6l-1.5-0.69
		c-0.41-0.19-0.63-0.45-0.63-0.79c0-0.48,0.33-0.67,1.19-0.67c0.53,0,1.03,0.07,1.48,0.23c0.27,0.08,0.38,0.01,0.38-0.29v-0.11
		c0-0.28-0.07-0.35-0.35-0.44c-0.43-0.16-0.92-0.23-1.48-0.23c-1.43,0-2.09,0.46-2.09,1.5c0,0.8,0.31,1.17,1.1,1.55l1.44,0.69
		c0.58,0.29,0.77,0.48,0.77,0.86c0,0.51-0.35,0.68-1.29,0.68c-0.59,0-1.17-0.08-1.74-0.24c-0.28-0.06-0.38,0.01-0.38,0.31v0.1
		c0,0.25,0.08,0.36,0.38,0.44C147.72,89.15,148.28,89.23,148.85,89.23z"/>
	<path class="st0" d="M154.8,88.39c-0.59,0-1.17-0.08-1.74-0.24c-0.28-0.06-0.38,0.01-0.38,0.31v0.09c0,0.25,0.08,0.36,0.38,0.44
		c0.54,0.15,1.1,0.23,1.67,0.23c1.52,0,2.23-0.48,2.23-1.54c0-0.81-0.33-1.2-1.18-1.6l-1.5-0.69c-0.41-0.19-0.62-0.45-0.62-0.79
		c0-0.48,0.33-0.67,1.19-0.67c0.53,0,1.03,0.07,1.48,0.23c0.27,0.08,0.38,0.01,0.38-0.29v-0.11c0-0.27-0.07-0.35-0.35-0.44
		c-0.43-0.16-0.92-0.23-1.48-0.23c-1.43,0-2.09,0.46-2.09,1.5c0,0.8,0.31,1.17,1.1,1.55l1.44,0.69c0.58,0.29,0.77,0.48,0.77,0.86
		C156.09,88.23,155.74,88.39,154.8,88.39z"/>
	<path class="st0" d="M162.88,86.72c0,1.18-0.43,1.66-1.69,1.66c-1.27,0-1.72-0.48-1.72-1.66v-1.11c0-1.18,0.44-1.66,1.72-1.66
		c1.26,0,1.69,0.48,1.69,1.66V86.72L162.88,86.72z M163.77,86.72v-1.11c0-1.67-0.78-2.5-2.58-2.5c-1.74,0-2.6,0.83-2.6,2.5v1.11
		c0,1.67,0.79,2.5,2.6,2.5C162.91,89.23,163.77,88.39,163.77,86.72z"/>
	<path class="st0" d="M169.55,88.64v-0.12c0-0.3-0.08-0.39-0.35-0.3c-0.3,0.11-0.65,0.15-1.06,0.15c-1.32,0-1.84-0.44-1.84-1.63
		v-1.16c0-1.14,0.48-1.63,1.77-1.63c0.37,0,0.71,0.06,1.02,0.17c0.28,0.1,0.35,0.01,0.35-0.29v-0.12c0-0.27-0.07-0.36-0.35-0.45
		c-0.3-0.11-0.65-0.15-1.04-0.15c-1.76,0-2.64,0.88-2.64,2.47v1.18c0,1.68,0.86,2.47,2.67,2.47c0.41,0,0.78-0.05,1.1-0.15
		C169.47,88.99,169.55,88.89,169.55,88.64z"/>
	<path class="st0" d="M171.53,80.81c-0.33,0-0.59,0.26-0.59,0.58s0.26,0.57,0.59,0.57c0.32,0,0.57-0.25,0.57-0.57
		S171.85,80.81,171.53,80.81z"/>
	<path class="st0" d="M171.59,83.23h-0.13c-0.32,0-0.38,0.08-0.38,0.38v5.11c0,0.32,0.06,0.38,0.38,0.38h0.13
		c0.3,0,0.38-0.06,0.38-0.38v-5.11C171.97,83.32,171.89,83.23,171.59,83.23z"/>
	<path class="st0" d="M174.6,87.44c0-0.75,0.46-1.04,1.54-1.04h1.38v0.9c0,0.86-0.46,1.14-1.6,1.14
		C175.04,88.45,174.6,88.12,174.6,87.44L174.6,87.44z M178.41,87.34v-2.36c0-1.25-0.83-1.87-2.48-1.87c-0.48,0-0.91,0.03-1.28,0.12
		c-0.28,0.06-0.35,0.13-0.35,0.41v0.1c0,0.29,0.09,0.36,0.38,0.3c0.37-0.08,0.79-0.13,1.3-0.13c1.04,0,1.55,0.31,1.55,1.08v0.72
		h-1.4c-1.64,0-2.41,0.51-2.41,1.74c0,1.2,0.82,1.79,2.22,1.79C177.65,89.23,178.41,88.67,178.41,87.34z"/>
	<path class="st0" d="M182.06,89.81c-0.05,0.2-0.02,0.24,0.2,0.2C182.32,90,182.4,90,182.51,90c0.39,0,0.53,0.11,0.53,0.41
		c0,0.34-0.15,0.44-0.58,0.44c-0.13,0-0.26-0.01-0.38-0.04c-0.15-0.04-0.23,0.04-0.23,0.19v0.07c0,0.18,0.04,0.23,0.21,0.26
		c0.15,0.04,0.32,0.06,0.47,0.06c0.8,0,1.17-0.29,1.17-0.99c0-0.61-0.35-0.88-1.06-0.8l0.09-0.38c0.43-0.01,0.78-0.07,1.06-0.15
		c0.3-0.08,0.38-0.18,0.38-0.43v-0.12c0-0.3-0.08-0.39-0.35-0.3c-0.3,0.11-0.65,0.16-1.06,0.16c-1.32,0-1.84-0.44-1.84-1.63v-1.16
		c0-1.14,0.48-1.63,1.77-1.63c0.37,0,0.71,0.06,1.02,0.17c0.28,0.1,0.35,0.01,0.35-0.29v-0.12c0-0.27-0.07-0.36-0.35-0.45
		c-0.3-0.11-0.65-0.15-1.04-0.15c-1.76,0-2.64,0.88-2.64,2.47v1.18c0,1.53,0.7,2.31,2.18,2.44L182.06,89.81z"/>
	<path class="st0" d="M189.33,81.15c-0.2,0-0.26,0.05-0.27,0.23c-0.03,0.3-0.18,0.45-0.4,0.45c-0.13,0-0.37-0.13-0.71-0.38
		c-0.34-0.25-0.65-0.38-0.91-0.38c-0.63,0-0.97,0.36-1.03,1.07c-0.01,0.18,0.05,0.23,0.25,0.23h0.08c0.2,0,0.26-0.05,0.27-0.23
		c0.04-0.3,0.18-0.45,0.4-0.45c0.13,0,0.35,0.13,0.7,0.38c0.34,0.25,0.65,0.38,0.91,0.38c0.64,0,0.98-0.36,1.03-1.07
		c0.01-0.18-0.05-0.23-0.25-0.23H189.33z"/>
	<path class="st0" d="M189.24,87.31c0,0.86-0.46,1.14-1.6,1.14c-0.89,0-1.32-0.33-1.32-1.01c0-0.75,0.46-1.04,1.54-1.04h1.38V87.31
		L189.24,87.31z M187.65,83.11c-0.48,0-0.91,0.03-1.28,0.12c-0.28,0.06-0.36,0.13-0.36,0.41v0.09c0,0.29,0.09,0.36,0.38,0.3
		c0.37-0.08,0.79-0.13,1.3-0.13c1.04,0,1.55,0.31,1.55,1.08v0.72h-1.39c-1.64,0-2.41,0.51-2.41,1.74c0,1.2,0.82,1.79,2.22,1.79
		c1.71,0,2.47-0.56,2.47-1.88v-2.36C190.13,83.73,189.3,83.11,187.65,83.11z"/>
	<path class="st0" d="M196.05,86.72c0,1.18-0.43,1.66-1.69,1.66c-1.27,0-1.71-0.48-1.71-1.66v-1.11c0-1.18,0.44-1.66,1.71-1.66
		c1.26,0,1.69,0.48,1.69,1.66V86.72L196.05,86.72z M196.94,86.72v-1.11c0-1.67-0.78-2.5-2.58-2.5c-1.74,0-2.6,0.83-2.6,2.5v1.11
		c0,1.67,0.79,2.5,2.6,2.5C196.08,89.23,196.94,88.39,196.94,86.72z"/>
	<path class="st0" d="M206.5,86.72c0,1.18-0.44,1.66-1.7,1.66c-1.28,0-1.7-0.48-1.7-1.66v-1.11c0-1.18,0.44-1.66,1.7-1.66
		c1.27,0,1.7,0.48,1.7,1.66V86.72L206.5,86.72z M207.01,80.76h-0.13c-0.32,0-0.38,0.06-0.38,0.38v2.84
		c-0.32-0.58-0.93-0.87-1.84-0.87c-1.63,0-2.45,0.83-2.45,2.51v1.11c0,1.67,0.83,2.49,2.59,2.49c1.73,0,2.59-0.83,2.59-2.49v-5.59
		C207.38,80.82,207.3,80.76,207.01,80.76z"/>
	<path class="st0" d="M213.35,86.72c0,1.18-0.43,1.66-1.69,1.66c-1.27,0-1.71-0.48-1.71-1.66v-1.11c0-1.18,0.44-1.66,1.71-1.66
		c1.26,0,1.69,0.48,1.69,1.66V86.72L213.35,86.72z M214.24,86.72v-1.11c0-1.67-0.78-2.5-2.58-2.5c-1.74,0-2.6,0.83-2.6,2.5v1.11
		c0,1.67,0.79,2.5,2.6,2.5C213.37,89.23,214.24,88.39,214.24,86.72z"/>
	<path class="st0" d="M220.12,87.69c0-0.81-0.33-1.2-1.18-1.6l-1.5-0.69c-0.41-0.19-0.63-0.45-0.63-0.79c0-0.48,0.33-0.67,1.19-0.67
		c0.53,0,1.03,0.07,1.48,0.23c0.27,0.08,0.38,0.01,0.38-0.29v-0.11c0-0.27-0.07-0.34-0.35-0.44c-0.43-0.16-0.92-0.23-1.48-0.23
		c-1.43,0-2.09,0.46-2.09,1.5c0,0.8,0.31,1.17,1.1,1.55l1.44,0.69c0.58,0.29,0.77,0.48,0.77,0.86c0,0.51-0.35,0.68-1.29,0.68
		c-0.59,0-1.17-0.08-1.74-0.24c-0.28-0.06-0.38,0.01-0.38,0.31v0.1c0,0.25,0.08,0.36,0.38,0.44c0.54,0.16,1.1,0.23,1.67,0.23
		C219.41,89.23,220.12,88.75,220.12,87.69z"/>
	<path class="st0" d="M228.73,85.41h-2.11v-2.62c0-0.39,0.17-0.56,0.56-0.56h1.55c1.22,0,1.64,0.45,1.64,1.58
		C230.38,84.97,229.98,85.41,228.73,85.41L228.73,85.41z M231.3,83.82c0-1.67-0.76-2.45-2.57-2.45h-1.75c-0.9,0-1.28,0.39-1.28,1.29
		v6.05c0,0.32,0.08,0.4,0.4,0.4h0.12c0.32,0,0.4-0.08,0.4-0.4v-2.43h2.11C230.53,86.27,231.3,85.47,231.3,83.82z"/>
	<path class="st0" d="M233.38,89.11c0.32,0,0.38-0.06,0.38-0.38v-3.5c0-0.89,0.3-1.26,1.13-1.26c0.06,0,0.18,0.01,0.37,0.02
		c0.29,0.05,0.37-0.01,0.37-0.31v-0.12c0-0.3-0.06-0.38-0.35-0.42c-0.14-0.01-0.27-0.02-0.38-0.02c-1.35,0-2.02,0.69-2.02,2.06v3.55
		c0,0.32,0.08,0.38,0.38,0.38H233.38z"/>
	<path class="st0" d="M237.76,86.72v-1.11c0-1.18,0.44-1.66,1.71-1.66c1.26,0,1.69,0.48,1.69,1.66v1.11c0,1.18-0.43,1.66-1.69,1.66
		C238.21,88.38,237.76,87.9,237.76,86.72L237.76,86.72z M242.05,86.72v-1.11c0-1.67-0.78-2.5-2.58-2.5c-1.74,0-2.6,0.83-2.6,2.5
		v1.11c0,1.67,0.79,2.5,2.6,2.5C241.19,89.23,242.05,88.39,242.05,86.72z"/>
	<path class="st0" d="M244.57,86.72v-1.11c0-1.18,0.44-1.66,1.7-1.66c1.27,0,1.7,0.48,1.7,1.66v1.11c0,1.18-0.44,1.66-1.7,1.66
		C244.99,88.38,244.57,87.9,244.57,86.72L244.57,86.72z M248.86,86.74v-5.59c0-0.32-0.08-0.38-0.38-0.38h-0.13
		c-0.32,0-0.38,0.06-0.38,0.38v2.84c-0.32-0.58-0.93-0.87-1.84-0.87c-1.63,0-2.45,0.83-2.45,2.51v1.11c0,1.67,0.83,2.49,2.59,2.49
		C247.99,89.23,248.86,88.39,248.86,86.74z"/>
	<path class="st0" d="M255.13,83.23H255c-0.29,0-0.38,0.08-0.38,0.38V87c0,0.99-0.4,1.38-1.57,1.38c-1.17,0-1.58-0.42-1.58-1.38
		v-3.38c0-0.3-0.06-0.38-0.38-0.38h-0.13c-0.3,0-0.38,0.08-0.38,0.38V87c0,1.49,0.83,2.23,2.47,2.23c1.7,0,2.46-0.75,2.46-2.23
		v-3.38C255.51,83.32,255.45,83.23,255.13,83.23z"/>
	<path class="st0" d="M258.33,81.68h-0.08c-0.27,0-0.34,0.07-0.35,0.32l-0.13,1.23l-0.67,0.1c-0.25,0.04-0.32,0.09-0.32,0.37v0.06
		c0,0.28,0.05,0.32,0.32,0.32h0.67v3.03c0,1.41,0.66,2.11,1.99,2.11c0.38,0,0.72-0.04,1.03-0.12c0.28-0.08,0.37-0.19,0.37-0.43
		v-0.11c0-0.3-0.08-0.37-0.35-0.31c-0.27,0.08-0.62,0.12-1.05,0.12c-0.72,0-1.09-0.37-1.09-1.26v-3.03h1.91
		c0.3,0,0.37-0.07,0.37-0.37V83.6c0-0.3-0.07-0.37-0.37-0.37h-1.91V82C258.65,81.75,258.58,81.68,258.33,81.68z"/>
	<path class="st0" d="M263.29,86.72v-1.11c0-1.18,0.44-1.66,1.71-1.66c1.26,0,1.69,0.48,1.69,1.66v1.11c0,1.18-0.43,1.66-1.69,1.66
		C263.74,88.38,263.29,87.9,263.29,86.72L263.29,86.72z M267.58,86.72v-1.11c0-1.67-0.78-2.5-2.58-2.5c-1.74,0-2.6,0.83-2.6,2.5
		v1.11c0,1.67,0.79,2.5,2.6,2.5C266.72,89.23,267.58,88.39,267.58,86.72z"/>
	<path class="st0" d="M271.73,83.14c-0.14-0.01-0.27-0.02-0.38-0.02c-1.35,0-2.02,0.69-2.02,2.06v3.55c0,0.32,0.08,0.38,0.38,0.38
		h0.13c0.32,0,0.38-0.06,0.38-0.38v-3.5c0-0.89,0.3-1.26,1.14-1.26c0.06,0,0.18,0.01,0.37,0.02c0.29,0.05,0.37-0.01,0.37-0.31v-0.12
		C272.09,83.26,272.03,83.17,271.73,83.14z"/>
	<path class="st0" d="M274.22,85.36c0-0.97,0.53-1.45,1.59-1.45c1.06,0,1.6,0.49,1.6,1.45v0.39h-3.19V85.36L274.22,85.36z
		 M277.79,86.51c0.32,0,0.39-0.07,0.43-0.37c0.02-0.15,0.03-0.37,0.03-0.64c0-1.56-0.85-2.38-2.42-2.38c-1.67,0-2.49,0.83-2.49,2.51
		v1.11c0,1.75,0.85,2.49,2.73,2.49c0.58,0,1.12-0.07,1.62-0.23c0.32-0.09,0.37-0.18,0.37-0.43v-0.11c0-0.3-0.09-0.39-0.38-0.31
		c-0.54,0.15-1.08,0.23-1.61,0.23c-1.31,0-1.84-0.43-1.84-1.51v-0.36H277.79z"/>
	<path class="st0" d="M284.14,87.69c0-0.81-0.33-1.2-1.18-1.6l-1.5-0.69c-0.41-0.19-0.63-0.45-0.63-0.79c0-0.48,0.33-0.67,1.19-0.67
		c0.53,0,1.03,0.07,1.48,0.23c0.27,0.08,0.38,0.01,0.38-0.29v-0.11c0-0.27-0.07-0.34-0.35-0.44c-0.42-0.16-0.92-0.23-1.48-0.23
		c-1.43,0-2.09,0.46-2.09,1.5c0,0.8,0.31,1.17,1.1,1.55l1.44,0.69c0.58,0.29,0.77,0.48,0.77,0.86c0,0.51-0.36,0.68-1.29,0.68
		c-0.59,0-1.17-0.08-1.74-0.24c-0.28-0.06-0.38,0.01-0.38,0.31v0.1c0,0.25,0.08,0.36,0.38,0.44c0.54,0.16,1.1,0.23,1.67,0.23
		C283.43,89.23,284.14,88.75,284.14,87.69z"/>
	<path class="st0" d="M293.7,86.72c0,1.18-0.44,1.66-1.7,1.66c-1.28,0-1.7-0.48-1.7-1.66v-1.11c0-1.18,0.44-1.66,1.7-1.66
		c1.26,0,1.7,0.48,1.7,1.66V86.72L293.7,86.72z M294.58,86.74v-5.59c0-0.32-0.08-0.38-0.38-0.38h-0.13c-0.32,0-0.38,0.06-0.38,0.38
		v2.84c-0.32-0.58-0.93-0.87-1.84-0.87c-1.63,0-2.45,0.83-2.45,2.51v1.11c0,1.67,0.83,2.49,2.59,2.49
		C293.72,89.23,294.58,88.39,294.58,86.74z"/>
	<path class="st0" d="M297.15,85.36c0-0.97,0.53-1.45,1.6-1.45c1.06,0,1.6,0.49,1.6,1.45v0.39h-3.19V85.36L297.15,85.36z
		 M300.72,86.51c0.32,0,0.39-0.07,0.43-0.37c0.02-0.15,0.03-0.37,0.03-0.64c0-1.56-0.85-2.38-2.42-2.38c-1.67,0-2.49,0.83-2.49,2.51
		v1.11c0,1.75,0.85,2.49,2.73,2.49c0.58,0,1.12-0.07,1.62-0.23c0.32-0.09,0.37-0.18,0.37-0.43v-0.11c0-0.3-0.09-0.39-0.38-0.31
		c-0.54,0.15-1.08,0.23-1.61,0.23c-1.31,0-1.84-0.43-1.84-1.51v-0.36H300.72z"/>
	<path class="st0" d="M307.87,87.83c-0.28-0.36-0.43-0.93-0.43-1.72v-1.74c0-0.8,0.14-1.37,0.43-1.72c0.28-0.36,0.84-0.54,1.67-0.54
		c0.83,0,1.38,0.18,1.67,0.54c0.28,0.35,0.43,0.92,0.43,1.72v1.74c0,0.79-0.14,1.36-0.43,1.72c-0.28,0.35-0.84,0.52-1.67,0.52
		C308.71,88.36,308.16,88.18,307.87,87.83L307.87,87.83z M309.67,89.21l0.96,1.06c0.28,0.3,0.46,0.38,0.87,0.38h0.15
		c0.41,0,0.45-0.07,0.15-0.37l-1.19-1.17c1.38-0.29,1.94-1.24,1.94-3v-1.74c0-1.04-0.22-1.82-0.66-2.34
		c-0.44-0.51-1.23-0.77-2.35-0.77c-1.12,0-1.91,0.26-2.35,0.77c-0.44,0.51-0.66,1.3-0.66,2.34v1.74c0,1.92,0.65,2.85,2.39,3.03
		C309.14,89.19,309.39,89.21,309.67,89.21z"/>
	<path class="st0" d="M319.24,87v-3.38c0-0.3-0.06-0.38-0.38-0.38h-0.13c-0.29,0-0.38,0.08-0.38,0.38V87c0,0.99-0.4,1.38-1.57,1.38
		c-1.17,0-1.58-0.42-1.58-1.38v-3.38c0-0.3-0.06-0.38-0.38-0.38h-0.13c-0.3,0-0.38,0.08-0.38,0.38V87c0,1.49,0.83,2.23,2.47,2.23
		C318.49,89.23,319.24,88.48,319.24,87z"/>
	<path class="st0" d="M325,85.76h-3.19v-0.39c0-0.96,0.53-1.45,1.6-1.45c1.06,0,1.6,0.49,1.6,1.45V85.76L325,85.76z M323.41,83.11
		c-1.67,0-2.49,0.83-2.49,2.51v1.11c0,1.75,0.85,2.49,2.73,2.49c0.58,0,1.12-0.07,1.62-0.23c0.32-0.09,0.37-0.18,0.37-0.43v-0.11
		c0-0.3-0.1-0.39-0.38-0.31c-0.54,0.15-1.08,0.23-1.61,0.23c-1.31,0-1.84-0.43-1.84-1.51v-0.36h3.57c0.32,0,0.39-0.07,0.42-0.37
		c0.02-0.15,0.04-0.37,0.04-0.64C325.84,83.94,324.99,83.11,323.41,83.11z"/>
	<path class="st0" d="M328.19,80.81c-0.33,0-0.59,0.26-0.59,0.58s0.26,0.57,0.59,0.57c0.32,0,0.57-0.25,0.57-0.57
		S328.51,80.81,328.19,80.81z"/>
	<path class="st0" d="M328.25,83.23h-0.13c-0.32,0-0.38,0.08-0.38,0.38v5.11c0,0.32,0.06,0.38,0.38,0.38h0.13
		c0.3,0,0.38-0.06,0.38-0.38v-5.11C328.62,83.32,328.54,83.23,328.25,83.23z"/>
	<path class="st0" d="M331.18,80.81c-0.32,0-0.58,0.26-0.58,0.58s0.26,0.57,0.58,0.57c0.33,0,0.58-0.25,0.58-0.57
		S331.51,80.81,331.18,80.81z"/>
	<path class="st0" d="M331.24,83.23h-0.13c-0.32,0-0.38,0.08-0.38,0.38v4.33c0,1.04-0.24,1.89-0.51,2.28
		c-0.12,0.17-0.27,0.33-0.46,0.5c-0.2,0.18-0.21,0.26-0.06,0.51l0.07,0.11c0.18,0.25,0.25,0.27,0.45,0.12
		c0.44-0.35,0.77-0.77,1.02-1.29c0.25-0.52,0.38-1.29,0.38-2.29v-4.27C331.61,83.32,331.53,83.23,331.24,83.23z"/>
	<path class="st0" d="M337.72,86.72c0,1.18-0.43,1.66-1.69,1.66c-1.26,0-1.71-0.48-1.71-1.66v-1.11c0-1.18,0.44-1.66,1.71-1.66
		c1.27,0,1.69,0.48,1.69,1.66V86.72L337.72,86.72z M336.03,83.11c-1.74,0-2.6,0.83-2.6,2.5v1.11c0,1.67,0.79,2.5,2.6,2.5
		c1.71,0,2.58-0.83,2.58-2.5v-1.11C338.61,83.95,337.83,83.11,336.03,83.11z"/>
	<path class="st0" d="M199.98,98.08l0.81-2.97c0.18-0.66,0.32-0.81,0.73-0.81c0.39,0,0.54,0.15,0.72,0.81l0.81,2.97H199.98
		L199.98,98.08z M203.18,95.22c-0.18-0.68-0.38-1.14-0.6-1.38c-0.21-0.25-0.57-0.37-1.05-0.37c-0.48,0-0.84,0.12-1.06,0.37
		c-0.21,0.24-0.41,0.7-0.6,1.38l-1.58,5.71c-0.08,0.3-0.02,0.39,0.29,0.39h0.13c0.33,0,0.42-0.07,0.51-0.39l0.54-2h3.52l0.55,2
		c0.08,0.32,0.18,0.39,0.51,0.39h0.12c0.32,0,0.38-0.09,0.29-0.39L203.18,95.22z"/>
	<path class="st0" d="M208.6,95.35c-0.14-0.01-0.27-0.03-0.38-0.03c-1.34,0-2.01,0.69-2.01,2.06v3.55c0,0.32,0.08,0.38,0.38,0.38
		h0.13c0.32,0,0.38-0.06,0.38-0.38v-3.5c0-0.89,0.29-1.26,1.13-1.26c0.06,0,0.18,0.01,0.37,0.02c0.29,0.05,0.37-0.01,0.37-0.31
		v-0.12C208.96,95.47,208.9,95.38,208.6,95.35z"/>
	<path class="st0" d="M213.8,100.46c-0.27,0.08-0.61,0.12-1.05,0.12c-0.72,0-1.08-0.37-1.08-1.26v-3.03h1.91
		c0.29,0,0.36-0.07,0.36-0.37v-0.11c0-0.3-0.07-0.37-0.36-0.37h-1.91v-1.23c0-0.25-0.07-0.32-0.32-0.32h-0.08
		c-0.27,0-0.34,0.07-0.35,0.32l-0.13,1.23l-0.67,0.1c-0.25,0.04-0.32,0.1-0.32,0.37v0.06c0,0.27,0.05,0.32,0.32,0.32h0.67v3.03
		c0,1.41,0.66,2.11,1.98,2.11c0.38,0,0.72-0.03,1.03-0.12c0.28-0.08,0.36-0.19,0.36-0.43v-0.11
		C214.15,100.47,214.07,100.4,213.8,100.46z"/>
	<path class="st0" d="M219.47,97.97h-3.18v-0.39c0-0.97,0.53-1.45,1.59-1.45c1.06,0,1.59,0.49,1.59,1.45V97.97L219.47,97.97z
		 M217.89,95.32c-1.66,0-2.48,0.84-2.48,2.52v1.11c0,1.75,0.85,2.49,2.72,2.49c0.58,0,1.12-0.07,1.61-0.23
		c0.32-0.1,0.37-0.18,0.37-0.43v-0.11c0-0.3-0.09-0.39-0.38-0.31c-0.54,0.16-1.07,0.23-1.6,0.23c-1.31,0-1.84-0.43-1.84-1.51v-0.36
		h3.56c0.32,0,0.39-0.07,0.42-0.37c0.02-0.16,0.04-0.37,0.04-0.64C220.31,96.15,219.46,95.32,217.89,95.32z"/>
	<path class="st0" d="M224.99,98.3l-1.5-0.69c-0.41-0.19-0.62-0.45-0.62-0.79c0-0.48,0.33-0.67,1.19-0.67
		c0.53,0,1.03,0.07,1.47,0.23c0.27,0.08,0.38,0.01,0.38-0.29v-0.11c0-0.27-0.07-0.35-0.35-0.44c-0.42-0.15-0.92-0.23-1.47-0.23
		c-1.43,0-2.09,0.47-2.09,1.5c0,0.8,0.31,1.17,1.1,1.55l1.44,0.69c0.58,0.29,0.76,0.48,0.76,0.86c0,0.51-0.35,0.68-1.28,0.68
		c-0.59,0-1.17-0.08-1.73-0.24c-0.28-0.06-0.38,0.01-0.38,0.31v0.1c0,0.25,0.08,0.36,0.38,0.44c0.54,0.15,1.1,0.23,1.66,0.23
		c1.52,0,2.23-0.48,2.23-1.54C226.17,99.09,225.84,98.7,224.99,98.3z"/>
	<path class="st0" d="M231.45,99.52c0,0.86-0.46,1.14-1.59,1.14c-0.88,0-1.32-0.33-1.32-1.01c0-0.75,0.46-1.04,1.53-1.04h1.38V99.52
		L231.45,99.52z M229.86,95.32c-0.48,0-0.91,0.04-1.27,0.12c-0.28,0.06-0.35,0.13-0.35,0.41v0.09c0,0.29,0.09,0.36,0.38,0.3
		c0.37-0.08,0.79-0.13,1.3-0.13c1.04,0,1.54,0.31,1.54,1.09v0.71h-1.39c-1.64,0-2.4,0.51-2.4,1.74c0,1.2,0.81,1.79,2.21,1.79
		c1.71,0,2.46-0.56,2.46-1.88V97.2C232.33,95.94,231.51,95.32,229.86,95.32z"/>
	<path class="st0" d="M236.53,95.32c-1.64,0-2.46,0.74-2.46,2.23v3.39c0,0.32,0.08,0.38,0.38,0.38h0.13c0.32,0,0.38-0.06,0.38-0.38
		v-3.39c0-0.96,0.41-1.38,1.58-1.38c1.17,0,1.56,0.39,1.56,1.38v3.39c0,0.32,0.06,0.38,0.38,0.38h0.14c0.32,0,0.38-0.06,0.38-0.38
		v-3.39C238.98,96.08,238.23,95.32,236.53,95.32z"/>
	<path class="st0" d="M244.38,99.52c0,0.86-0.46,1.14-1.59,1.14c-0.88,0-1.32-0.33-1.32-1.01c0-0.75,0.46-1.04,1.53-1.04h1.38V99.52
		L244.38,99.52z M242.79,95.32c-0.48,0-0.91,0.04-1.27,0.12c-0.28,0.06-0.35,0.13-0.35,0.41v0.09c0,0.29,0.09,0.36,0.38,0.3
		c0.36-0.08,0.79-0.13,1.3-0.13c1.04,0,1.54,0.31,1.54,1.09v0.71h-1.39c-1.64,0-2.4,0.51-2.4,1.74c0,1.2,0.81,1.79,2.22,1.79
		c1.71,0,2.46-0.56,2.46-1.88V97.2C245.26,95.94,244.44,95.32,242.79,95.32z"/>
	<path class="st0" d="M248.58,100.54h-0.06c-0.4,0-0.6-0.3-0.6-0.91v-6.28c0-0.32-0.08-0.38-0.38-0.38h-0.13
		c-0.32,0-0.38,0.06-0.38,0.38v6.43c0,1.06,0.52,1.6,1.37,1.6c0.11,0,0.18,0,0.21-0.01c0.27-0.05,0.33-0.14,0.33-0.44v-0.08
		C248.94,100.58,248.9,100.54,248.58,100.54z"/>
	<path class="st0" d="M258.91,98.94c0,1.18-0.44,1.66-1.69,1.66c-1.27,0-1.7-0.48-1.7-1.66v-1.11c0-1.18,0.44-1.66,1.7-1.66
		c1.26,0,1.69,0.48,1.69,1.66V98.94L258.91,98.94z M259.41,92.98h-0.13c-0.32,0-0.38,0.06-0.38,0.38v2.84
		c-0.32-0.58-0.93-0.87-1.84-0.87c-1.63,0-2.44,0.84-2.44,2.51v1.11c0,1.67,0.82,2.49,2.58,2.49c1.72,0,2.58-0.83,2.58-2.49v-5.59
		C259.79,93.04,259.71,92.98,259.41,92.98z"/>
	<path class="st0" d="M265.74,98.94c0,1.18-0.42,1.66-1.68,1.66c-1.26,0-1.71-0.48-1.71-1.66v-1.11c0-1.18,0.44-1.66,1.71-1.66
		c1.26,0,1.68,0.48,1.68,1.66V98.94L265.74,98.94z M264.05,95.32c-1.73,0-2.59,0.84-2.59,2.5v1.11c0,1.67,0.79,2.5,2.59,2.5
		c1.71,0,2.57-0.83,2.57-2.5v-1.11C266.62,96.16,265.84,95.32,264.05,95.32z"/>
	<path class="st0" d="M276.65,100.26c-0.53,0.2-1.09,0.31-1.7,0.31c-1.46,0-2.07-0.68-2.07-2.1v-1.91c0-1.54,0.62-2.23,2.04-2.23
		c0.6,0,1.15,0.11,1.65,0.32c0.25,0.11,0.36,0.01,0.36-0.27v-0.15c0-0.25-0.07-0.35-0.34-0.45c-0.52-0.2-1.06-0.31-1.64-0.31
		c-2,0-3,1.04-3,3.1v1.91c0,2.04,0.95,2.97,3.03,2.97c0.7,0,1.25-0.1,1.67-0.3c0.28-0.13,0.35-0.23,0.35-0.48v-0.14
		C277,100.22,276.92,100.15,276.65,100.26z"/>
	<path class="st0" d="M282.57,97.97h-3.18v-0.39c0-0.97,0.53-1.45,1.59-1.45c1.06,0,1.59,0.49,1.59,1.45V97.97L282.57,97.97z
		 M281,95.32c-1.66,0-2.48,0.84-2.48,2.52v1.11c0,1.75,0.85,2.49,2.72,2.49c0.58,0,1.12-0.07,1.61-0.23
		c0.32-0.1,0.36-0.18,0.36-0.43v-0.11c0-0.3-0.09-0.39-0.38-0.31c-0.54,0.16-1.07,0.23-1.6,0.23c-1.31,0-1.84-0.43-1.84-1.51v-0.36
		h3.56c0.32,0,0.39-0.07,0.42-0.37c0.02-0.16,0.04-0.37,0.04-0.64C283.41,96.15,282.56,95.32,281,95.32z"/>
	<path class="st0" d="M287.54,95.35c-0.14-0.01-0.27-0.03-0.38-0.03c-1.34,0-2.01,0.69-2.01,2.06v3.55c0,0.32,0.08,0.38,0.38,0.38
		h0.13c0.32,0,0.38-0.06,0.38-0.38v-3.5c0-0.89,0.29-1.26,1.13-1.26c0.06,0,0.18,0.01,0.36,0.02c0.3,0.05,0.37-0.01,0.37-0.31v-0.12
		C287.9,95.47,287.84,95.38,287.54,95.35z"/>
	<path class="st0" d="M291.65,95.35c-0.14-0.01-0.27-0.03-0.38-0.03c-1.34,0-2.01,0.69-2.01,2.06v3.55c0,0.32,0.08,0.38,0.38,0.38
		h0.13c0.32,0,0.38-0.06,0.38-0.38v-3.5c0-0.89,0.3-1.26,1.13-1.26c0.06,0,0.18,0.01,0.36,0.02c0.29,0.05,0.37-0.01,0.37-0.31v-0.12
		C292.01,95.47,291.95,95.38,291.65,95.35z"/>
	<path class="st0" d="M296.62,99.52c0,0.86-0.46,1.14-1.59,1.14c-0.88,0-1.32-0.33-1.32-1.01c0-0.75,0.46-1.04,1.53-1.04h1.38V99.52
		L296.62,99.52z M295.03,95.32c-0.48,0-0.91,0.04-1.27,0.12c-0.28,0.06-0.35,0.13-0.35,0.41v0.09c0,0.29,0.09,0.36,0.38,0.3
		c0.36-0.08,0.79-0.13,1.3-0.13c1.04,0,1.54,0.31,1.54,1.09v0.71h-1.39c-1.64,0-2.4,0.51-2.4,1.74c0,1.2,0.81,1.79,2.21,1.79
		c1.71,0,2.46-0.56,2.46-1.88V97.2C297.51,95.94,296.68,95.32,295.03,95.32z"/>
	<path class="st0" d="M303.41,98.94c0,1.18-0.44,1.66-1.7,1.66c-1.27,0-1.7-0.48-1.7-1.66v-1.11c0-1.18,0.44-1.66,1.7-1.66
		c1.26,0,1.7,0.48,1.7,1.66V98.94L303.41,98.94z M303.91,92.98h-0.13c-0.32,0-0.38,0.06-0.38,0.38v2.84
		c-0.32-0.58-0.93-0.87-1.84-0.87c-1.63,0-2.44,0.84-2.44,2.51v1.11c0,1.67,0.82,2.49,2.58,2.49c1.72,0,2.58-0.83,2.58-2.49v-5.59
		C304.29,93.04,304.21,92.98,303.91,92.98z"/>
	<path class="st0" d="M310.24,98.94c0,1.18-0.42,1.66-1.68,1.66c-1.26,0-1.71-0.48-1.71-1.66v-1.11c0-1.18,0.44-1.66,1.71-1.66
		c1.26,0,1.68,0.48,1.68,1.66V98.94L310.24,98.94z M308.55,95.32c-1.73,0-2.59,0.84-2.59,2.5v1.11c0,1.67,0.79,2.5,2.59,2.5
		c1.71,0,2.57-0.83,2.57-2.5v-1.11C311.12,96.16,310.34,95.32,308.55,95.32z"/>
	<path class="st0" d="M168.93,95.1c-0.08-1.16-0.52-1.6-1.45-1.6c-0.85,0-1.26,0.44-1.41,1.6l-0.66,4.99
		c-0.05,0.37-0.12,0.47-0.31,0.47c-0.2,0-0.26-0.08-0.31-0.47l-0.66-4.99c-0.15-1.18-0.56-1.6-1.41-1.6c-0.93,0-1.37,0.44-1.45,1.6
		l-0.43,5.82c-0.01,0.32,0.06,0.4,0.38,0.4h0.12c0.32,0,0.39-0.07,0.43-0.4l0.42-5.9c0.03-0.51,0.19-0.68,0.53-0.68
		c0.29,0,0.45,0.16,0.53,0.68l0.74,5.2c0.11,0.8,0.43,1.11,1.11,1.11c0.72,0,1-0.3,1.11-1.11l0.74-5.2
		c0.08-0.51,0.22-0.68,0.52-0.68c0.37,0,0.51,0.16,0.54,0.68l0.41,5.9c0.03,0.33,0.11,0.4,0.42,0.4h0.13c0.32,0,0.39-0.08,0.38-0.4
		L168.93,95.1z"/>
	<path class="st0" d="M171.6,95.44h-0.13c-0.32,0-0.38,0.08-0.38,0.38v5.11c0,0.32,0.06,0.38,0.38,0.38h0.13
		c0.3,0,0.38-0.06,0.38-0.38v-5.11C171.98,95.53,171.89,95.44,171.6,95.44z"/>
	<path class="st0" d="M171.54,93.02c-0.33,0-0.59,0.26-0.59,0.58c0,0.32,0.26,0.57,0.59,0.57c0.32,0,0.57-0.25,0.57-0.57
		C172.11,93.29,171.86,93.02,171.54,93.02z"/>
	<path class="st0" d="M176.44,95.32c-1.64,0-2.46,0.74-2.46,2.23v3.39c0,0.32,0.08,0.38,0.38,0.38h0.13c0.32,0,0.38-0.06,0.38-0.38
		v-3.39c0-0.96,0.41-1.38,1.58-1.38c1.17,0,1.55,0.39,1.55,1.38v3.39c0,0.32,0.06,0.38,0.38,0.38h0.14c0.32,0,0.38-0.06,0.38-0.38
		v-3.39C178.89,96.08,178.14,95.32,176.44,95.32z"/>
	<path class="st0" d="M184.28,99.52c0,0.86-0.46,1.14-1.59,1.14c-0.88,0-1.32-0.33-1.32-1.01c0-0.75,0.46-1.04,1.53-1.04h1.38V99.52
		L184.28,99.52z M182.69,95.32c-0.48,0-0.91,0.04-1.27,0.12c-0.28,0.06-0.35,0.13-0.35,0.41v0.09c0,0.29,0.09,0.36,0.38,0.3
		c0.37-0.08,0.79-0.13,1.3-0.13c1.04,0,1.54,0.31,1.54,1.09v0.71h-1.39c-1.64,0-2.4,0.51-2.4,1.74c0,1.2,0.81,1.79,2.21,1.79
		c1.71,0,2.46-0.56,2.46-1.88V97.2C185.17,95.94,184.34,95.32,182.69,95.32z"/>
	<path class="st0" d="M189.85,98.3l-1.5-0.69c-0.41-0.19-0.62-0.45-0.62-0.79c0-0.48,0.33-0.67,1.19-0.67
		c0.53,0,1.02,0.07,1.47,0.23c0.27,0.08,0.38,0.01,0.38-0.29v-0.11c0-0.27-0.07-0.35-0.35-0.44c-0.43-0.15-0.92-0.23-1.47-0.23
		c-1.43,0-2.08,0.47-2.08,1.5c0,0.8,0.31,1.17,1.09,1.55l1.44,0.69c0.58,0.29,0.76,0.48,0.76,0.86c0,0.51-0.35,0.68-1.28,0.68
		c-0.59,0-1.17-0.08-1.73-0.24c-0.28-0.06-0.38,0.01-0.38,0.31v0.1c0,0.25,0.08,0.36,0.38,0.44c0.54,0.15,1.1,0.23,1.66,0.23
		c1.52,0,2.23-0.48,2.23-1.54C191.03,99.09,190.7,98.7,189.85,98.3z"/>
	<g>
		
			<ellipse transform="matrix(0.9563 -0.2923 0.2923 0.9563 -13.1471 27.7157)" class="st1" cx="86.17" cy="57.85" rx="37.07" ry="37.07"/>
		<path class="st0" d="M92.99,75.55c-2.25,6.15,0.58,10.62,4.57,15.68c2.19,2.78-7.02,7.39,6.31,15.5l5.05,3.07
			c0.63,0.38-2.84,0.08-5.85,0.08c-4.01,0-8.83,0.15-9.86,0.22c-0.55,0.03-6.82,0.01-7.07-0.13c-0.03-0.94-0.27-2.13,0.12-2.8
			c-0.43-1.04,2.81-6.98,2.17-10.48c-0.41-2.2,1.49-4.86-1.58-9c-1.28-1.73-2.98-5.46-5.22-7.06c-2.21-1.57-5.54-6.16-8.68-7.04
			c-3.12-0.87-6.53-4.75-8.17-7.44c-0.28-0.47-2.38-2.07-2.48-2.25c-0.17-0.02-5.6-3.96-7.12-4.18c-1.81-0.26,0.74-1.48-4.6-0.59
			c-3.36,0.57-6.8-0.36-7.97-3.66c-0.75-2.11-1.01-2.05-3.06-2.33c-0.19-0.13-0.34-0.23-0.48-0.3c-0.33,0.4-0.76,0.91-0.86,1.11
			c-0.41,0.88-2.55,2.36-3.17,2.22c-1.94-0.45-3.29,0.56-3.28,0.55c2.27-2.2,5.56-1.27,6.93-4.63c-0.3-0.1-0.64-0.83-2.79-1.3
			c-0.88-0.19-3.75-0.19-5.01,0.48c-1.69,0.89-2.98-1.98-7.17-1.25c-2.66,0.47-4.97,0.16-6.31,2.64c-1.16,2.16-8.16-0.56-10.68-0.91
			c-0.86-0.12,1.73-0.36,3.37-0.14c1.47,0.2,5.29,1.49,5.9,1.11c2.4-1.52-1.27-1.57,5.29-3.28c5.31-1.39,3.42-2.15,8.45,0.01
			c-0.72-1.07-2.08-3.31-2.26-3.63c-0.09-0.15-0.18-0.3-0.27-0.43c-1.45,0.53-2.7,1.11-4.65,1.74c-2,0.64-9.73-1.21-4.3-0.34
			c0.8,0.13,6.42-1.01,7.01-1.37c0.51-0.31,0.89-0.59,1.22-0.83c-1.96-1.71-4.84-1.28-4.87-2.27c-0.02-0.86-0.36-1.62-0.89-2.31
			c-0.39,0.14-0.93,0.25-1.1,0.26c-1.4,0.05-2.08,1.79-3.26,2.01c-0.11,0.48-0.1,0.12-0.34,0.49c-3.07,4.69-6.32,1.55-6.99,2.72
			c-1.7,3.02-5.89,3.68-8.93,4.35c-1.14,0.25,7.34-3.84,7.38-3.91c2.01-2.9,4.76-0.58,5.06-1.37c1.19,0.08,3.6-4.18,7.7-5.1
			c-0.79-0.82-1.84-1.54-2.89-2.19c-0.01,0.04-0.01,0.08-0.02,0.12c-1.77,0.03-4.36,4.14-7.09,2.37c-2.46-1.59-3.91,0.13-4.72-0.7
			c-2.16-2.23,1.09-4.83-1.91-5.24c-1.83-0.25-1.96-3.4-1.95-3.37c1.15,1.96,4.57,2.72,4.49,3.85c-0.42,6.48,0.52,1.35,3.55,3.46
			c2.46,1.71,4.51,0.36,6.71-1.05c-0.87-0.53-1.69-1.02-2.31-1.51c-2.35-1.85-6.91-3.47-6.67-7.8c0.24-4.23,0.41-2.86-0.12-7.06
			c-0.11-0.88-4.69-3.16-3.28-3.05c1.51,0.71,0.8-0.41,2.93,1.06c3.09,2.14,1.47,5.57,2.4,8.53c2.36,7.54,5.8,6.14,10.54,9.76
			c1.19-0.62,0.22-1.01,2.6-0.62c1.21,0.2,1.8-3.46,2.56-3.54c2.04-0.21,0.83-1.48,1.05-3.12c-0.05,0.33,0.53,2.38,0.7,2.4
			c1.2,0.17,1.78-0.49,2.85,0.58c1.26,1.25,4.45-0.84,6.01-0.4c-1.64,1.39-4.87,2.49-6.78,0.92c-0.23-0.19-2.14-0.79-2.54-0.22
			c-0.36,0.51-1.77,3.04-2.24,2.96c-1.07-0.18-0.01,1.8-2.57,1.45c-0.28-0.04-0.41,0.23-0.78,0.31c0.26,0.22,0.23,0.2,0.5,0.45
			c2.93,2.75,1.19,4.27,5.37,5.23c0.23,0.05,0.61,0.38,1.07,0.88c0.58-0.17,1.32-0.16,2.6,0.1c0.57,0.12,3.96-0.28,5.26-0.22
			c3.73,0.17,2.2,1.73,7.61,0.34c1.34-0.34,5.57-0.17,6.4,1.1c0.9,1.38,1.82,2.06,2.81,3.91c0.76,1.42,4.04,1.63,5.3,0.89
			c1.7-0.99,3.25,0.93,4.32,2.02c1.09,1.11,0.58,1.35,2.04,2.68c0.82,0.74-1.1,1.78-1.67,2.03c-1.37,0.6-1.27,1.39-1.44,2.56
			c0.33,0.11,0.71,0.21,1.17,0.29c3.38,0.58,2.68,6.2,7.6,6.67c1.69,0.16,3.72,3.06,5.83,3.71c1.36,0.42,0.93-0.43,1.25-2.81
			c0.4-2.87-1.89-5.33-5-5.25c-4.53,0.13-6.95-5.48-4.25-7.87c0.63-0.56-0.02-2.79,4.53-4.91c2.99-1.4,0.14-4.89,4.76-5.33
			c1.33-0.13,5.72-5.98,0.55-4.58c-5.27,1.42-4.7,2.55-6.86,3.42c-3.12,1.26-5.7-3.2-9.01-0.74c-0.36,0.26-2.02-0.08-2.71-0.99
			c-0.75-1-2.1-3.89-3.16-4.03c-1.93-0.27-3.41-2.63-3.14-4.73c0.4-3.09-5.81,0.73-8.55,0.31c-3.14-0.48-7.76-1.51-8.16-5.4
			c-0.25-2.4-0.39,1.66,1.38,2.26c1.21,0.41,1.45,0.78,3.02,1.02c0.2-0.17,0.38-0.39,0.41-0.61c0.13-1.06-0.45-1.14-0.9-2.19
			c-0.54-1.25-0.87-2.61-0.75-3.97l0.02-0.27l0.12,0.21c0.04,0.07,0,0.16,0,0.25c0,0.2,0,0.42,0.1,0.59c0.16,0.28,0.4,1.51,0.9,2.57
			c0.35,0.73,0.92,1.25,0.98,1.44c0.26,0.84,0.52,1.44,0.03,2.05l0.46,0.01c4.77,0.11,3.29,2.17,8.43-1.25
			c0.39-0.26,5.42-0.17,4.93,3.39c-0.53,3.82,3.84,2.69,3.8,5.14c-0.02,1.1,3.28,2.67,5.54,1.35c2.16-1.27,3.73,1.03,6.52-0.16
			c1.52-0.65,3.07-0.68,5.65-1.97c3.72-1.86,10.9,4.43,1.87,7.6c-2.29,0.81-3.99,5.91-6.42,8.73c-0.63,0.73-2.18,4.61,0.11,5.26
			c4.35,1.25,5.71,2.23,7.03,6.76c0.13,0.43-0.2,2.44-0.28,3.01c3.59,2.66,0.98-1.69,2.6-3.27c1.83-1.79,2.53-6.6,0.9-8.94
			c-0.79-1.14-2.19-6.34-0.06-6.42c1.59-0.07,1.81-6.01,0.86-7.6c-0.79-1.33,1.67-4.93-2.44-6.15c-4.53-1.35-1.95-0.19-4.77-3.73
			c-1-1.25-2.95,0.29-3.88-1.71c-0.61-1.32-3.16-4.95-4.7-4.8c-2.82,0.28-4.16,5.35-9.66-1.14c-1.87-2.21-4.5,2.07-7.39-2.24
			c-0.92-1.37-0.78-3.13-2.94-3.8c-1.85-0.58-9.4-12.28-8.25-10.65c1.41,2.02,8,9.84,9.79,10.46c2.14,0.74,1.09,4.06,4.69,4.56
			c2.19,0.3,3.54,0.19,5.52,0.46c1.84,1.92,3.02,2.88,6.06,1.65c5.44-2.21,7.21,5.09,9.51,5.41c3.86,0.53,2.71,0.9,3.67,2.55
			c0.03-0.04,0.08-0.08,0.13-0.12c0.13-0.08,0.69-0.48,0.64-0.61c0.09-0.66,0.85-3.39,0.44-3.76c-3.34-3-1.12-2.72-1.86-6.05
			c-0.89-4.03-5.54-3.21-5.65-4.95c-0.21-3.37,0.71-1.98-1.56-4.1c-1.93-1.8-3.66-0.14-3.06-4.51c0.49-3.56-5.56-2.15,1.02-8.85
			c2.78,1.83-2.34,1.03-0.81,5.05c1.27,3.34-0.17,3.44,2.2,6.5c0.69,0.9,2.12-1.18,3.73,4.58c0.15,0.53,0.48,0.86,0.92,1.13
			c0.06-2.5,2.1-0.92,2.08-3.84c0-0.81-1.15-1.84-1.07-4.35C75.5,6.66,75.46,7.76,76,9.31c0.38,1.08-0.61,0.42,0.88,2.76
			c0.62,0.97,0.2,1.84,1.86-0.6c0.89-1.31-0.56-2.41,2.01-2.87c1.25-0.23-0.63-0.85-1,2.63c-0.12,1.13-1.34,2.46-2.34,2.89
			c-1.19,0.51-0.96,3.08-1.42,3.93c0.91,0.47,1.92,1.13,2.76,2.51c1.01,1.65,0.52,1.49,0.74,3.41c-0.02,0.13,0.31,1.49,0.56,1.63
			c1.7,0.96,0.64,3.33,1.04,4.15c0.91,1.87,0.66,1.88,0.81,3.96c0.01,0.13-0.01,0.57-0.06,0.89c0.51,0.22,1,0.63,1.38,1.4
			c0.08,0.16,0.05,0.18,0.17,0.22c2.2-0.03,0.73,0.8,1.78,2.17c0.42,0.56-0.19,1.76,0.8,3.43c0.6-0.14,0.94-0.46,2-0.27
			c0.71,0.13,1.31-1.41,1.4-2.19c0.06-0.49,0.37-0.78,0.77-1.03c-0.22-2.22-1.96-3.79-1.4-5.44c0.55-1.64,1.94-2.37,1.6-3.31
			c-1.03-2.87,0.39-3.74,0.68-5.87c0.22-1.6-1.25-2.76-0.25-4.19c1.4-2.01,1.32-1.69,1.69-4.04c0.29-1.85-3.73-4.91-4.97-5.36
			c-1.44-0.52-3.29-5.53-3.66-6.8c0.24,0.06,1.31,2.63,1.57,3.12c1.12,2.08,3.49,2.68,5.28,4.82c1.65,1.98,2.85,2.25,3.19,3.82
			c0.49-0.06,1.23,0.47,2.35,0.27c2.42-0.42-0.06-6.13,2.33-5.81c2.57,0.35,0.19-3.35,4.95-3.76c0.75-0.06,2.31-0.18,2.86-0.71
			c0.37,0.13-2.44,2.04-4.03,1.99c-1.88-0.06-0.56,3.22-3.07,3.29c-2.51,0.06,1.37,5.35-2.37,6.08c-1.24,0.24-2.71,0.17-3.01,1.84
			l-0.07,0.09c-0.16,0.14-0.24,0.35-0.37,0.51c-0.85,1.23-2.67,1.92-1.37,3.9c0.22,0.34,0.76,1.98,0.66,2.64
			c-0.44,3.23-0.63,2.21-1.52,4.86c-0.23,0.69-0.72,3.03-0.82,3.79c0.17,0.04-0.13,0.88,0.19,1.62c0.24,0.56,0.53,1.36,0.54,2.1
			c0.82-0.48,1.55-1.2,1.3-3.06c-0.27-1.95,2.41-0.99,1.62-4.79c-0.97-4.69,1.67-1.96,5.51-5.31c0.87-0.76-0.39,0.14-0.92,1.1
			c-1.95,3.54-5.8,0.69-3.8,5.7c0.73,1.83-1.7,2.78-1.87,3.99c-0.59,4.28-1.25,2.59-2.78,4.94c-0.73,1.12,0.65,3.34-3.45,2.78
			l-0.67-0.09c-0.31,1.14-1.27,2.72-0.52,5.21c0.35,1.14-1.15,4.15,1.37,8.28c0.02,0.03-0.37,6.89-1.09,7.67
			c-5.68,6.1,1.07,0.87,1.68,0.05c3.24-4.3,0.5-4.16,4.53-7.41c2.99-2.41-2.96-5.64,2.97-9.45c2.78-1.78,3.2-5.71,2.6-8.7
			c-0.5-2.49,1.82-10.81,4.49-11.54c1.8-0.49,3.62-1.17,5.23-2.12c1.09,0.79-7.66,2.77-7.34,7.16c0.21,2.8-2.07,2.03-1.08,5.99
			c0.64,2.55-0.62,9.71-2.78,11.45c-1,0.8-1.23,5.53-1.44,5.57c1.17-2.79,5.65-0.08,7.9-2.1c3.44-3.07,6.39-2.94,8.32-5.41
			c2.29-2.94,2.21-3.55,5.1-4.71c-0.02-0.02-0.03-0.04-0.05-0.06c-0.35-0.33-0.09-2.17,0.05-2.25c0.1-0.74,0.39-1.61,0.82-2.2
			c2.48-3.44,0.96-8.6,2.48-9.54c2.5-1.53,1.82-0.65,3.86-3.16c0.54-0.67,1.04-1.18,1.51-1.59h0c-0.2-0.03-0.02-0.55,0.04-0.67
			c0.25-0.49,0.27-1.1-0.02-1.58c-0.18-0.29-0.28-0.36-0.54-0.53c-0.44-1.42-4.51,0.89-3.36-5.33c1.67-9.03-0.77,2.98,2.56,3.32
			c4.27,0.43,1.44,2.63,2.59,3.92c2.13-1.06,3.83,0.11,6.73-0.25c5.77-0.72,4.8-1.6,2.15,0.15c-4.53,3-6.1-1.03-9.32,2.13
			l-0.11,0.11c0.74,0.05,0.87-0.24,2.47,1.16c0.52,0.45,4.06,0.09,5.07,0.47c0.16,0.06,3.67,1.07,3.69,1.07
			c2,0.28,2.2-0.44,3.01-0.44c0.01,0,0.5,0.45-0.46,0.44c-0.66-0.01-0.07,0.9-3.73,0.39c-1.12-0.15-3.29-0.27-4.2-0.82
			c-0.93-0.56-2.7,0.67-4.59,0.41c-1.69-0.23-0.58-1.19-2.37-1.65c-3.28,2.93-3.72,2.17-4.54,8.1c-0.56,4.07-2.9,5.42-2.5,7.91
			l0.02-0.01c2.39-0.85,0.79-1.62,4.13-0.45c1.18,0.41,3.34,0.07,5.52-0.6c-0.08-0.21-0.16-0.43-0.24-0.66
			c-0.33-0.93-1.86-3.99-1.18-4.89c0.53-0.7,0.35,1.63,0.43,1.87c0.27,0.83,0.53,1.3,0.79,1.91c0.13,0.57,0.38,1.1,0.69,1.61
			c2.5-0.83,4.92-2.05,5.81-3.05c0.27,1.03-2.03,3.09-4.56,4.66c1.06,1.15,2.3,2.21,3.16,3.27c0.18,0-0.01-1.2,0.57-1.2
			c0.05-0.08,1.24,0.02,2.27-1.4c0.38-0.52,3.49-3.38,3.68-2.88c0.59,1.54-0.18,0.09-1.45,1.39c-0.61,0.62-0.34,0.85-1.28,1.79
			c-1.35,1.36-0.99,1.76-2.93,2.76c-1.1,0.56-0.83,3.93,0.67,4.77c0.86,0.48-1.6,1.45-1.91,1.56c-0.89,0.33-1.52,1.6-2.42,2.6
			c1.35,0.13,3-0.02,5.17-1.07c2.01-0.97,4.35-1.41,6.17-2.79c-2.73,2.06-5.31,5.22-9.55,5.62c-7.92,0.76-3.37-0.99-10.55,3.31
			c-2.52,1.51-4.76-1.74-8.26,1.58c-0.52,0.49-14.1,7.9-14.94,8.06c-0.5,0.1-1.58,2.61-1.88,3.03
			C94.63,73.32,93.14,75.39,92.99,75.55L92.99,75.55z M28.6,44.94c1.26,1.57,2.68,3.72,3.15,4.82c1.94-0.26,5.37-1.1,6.97-0.88
			c3.83,0.53,0.13,3.8,4.41,4.21c1.61,0.16,1.14,2.36,4.15,2.78c1.4,0.19,4.9-0.52,8.13-0.08c2.12,0.29,2.79,1.02,3.38,1.78
			c0.04-1.13-0.18-0.29,1.84-1.8c0.6-0.44,0.2-2.03-0.48-2.72c-1.98-1.98-0.77-3.2-4.95-1.03c-2.14,1.11-3.76-2.47-4.73-3.87
			c-1.1-1.57-0.86-1.51-2.93-2.6c-1.38-0.73-1.96-1.67-3.87-0.08c-2.3,1.91-8.52-1.96-12.94-1.05
			C29.91,44.58,29.22,44.75,28.6,44.94L28.6,44.94z M127.85,43.44c-1.59,0.9-3.16,1.53-4.15,1.54c-1.83,0.01-2.35,0.79-4.78-0.63
			c-2.24-1.31-4.99,4.16-8.96,5.93c-3.44,1.53,0.61,4.47-7.16,5.74c-4.21,0.69-9.51,2.46-12.35,5.84c-0.92,1.09-0.97,3.29-4.25,6.66
			c-3.13,3.22-2.86,0.64-3.59,5.91c-0.01,0.07,6.81,6.09,6.91,5.07c0.64-6.21,2.63-12.21,9.31-13.78c4.11-0.96,6.35-6.84,9.83-6.29
			c2.83,0.45,3.2-1.07,7-0.83c2.8,0.18,5.14-0.52,7.12-2.47c1.72-1.69,3.04-1.18,4.85-0.78c0.33-0.23,0.86-0.5,1.7-0.81
			c0.02-0.01,2.99-3.12,2.7-3.56c-0.83-1.29-0.02-3.38-0.66-4.37C130.42,45.11,129.3,46.01,127.85,43.44z"/>
		<path class="st2" d="M118.73,12.54c-0.83,0.15-1.94-0.44-1.44,0.93c0.18,0.49,0.96-0.74,0.26,0.86c-0.16,0.36-0.85,0.38-0.29,1.95
			c0.17,0.47,0.75-0.43,0.88,0.58c0.05,0.44,1.19-0.79,1.19,0.02c0,0.8,0.52,0,1.56,0.51c1.04,0.51,1.83,0.24,3.12,0.45
			c0.42,0.07,0.03-2.12,0.32-2.46c0.52-0.61,2.71-0.96,2.61-2.66c0-0.05-0.85-0.04-1.25-1.18c-0.81-2.31,0.38-1.05-2.82-1.27
			c-1.28-0.09-0.96,0.27-1.95-0.44c-0.28-0.2-3.39-1.09-2.47,0.25c0.06,0.09-1.42,0.28-0.26,1.5c0.79,0.83,0.32,0.5,0.51,0.89
			L118.73,12.54z"/>
	</g>
</g>
</svg>
