<svg id="Layer_1" data-name="Layer 1" xmlns="http://www.w3.org/2000/svg" viewBox="0 0 50 50.1">
  <title>logo-vazada</title>
  <g>
    <path d="M48.13,25h0c-.26-.05-.5-.08-.7-.1l-1.07-.1-3-.29-1.11-.11h-.11c-.7-.08-1.5-.16-2.3-.2a2.94,2.94,0,0,0-.64-.09h-.09l-1.7-.17h-.29l-1.8-.18h-.16l-.5-.05h-.19l-.2,0-2.53-.25h-.28a.85.85,0,0,0-.23,0l-.91-.11L32.5,21c.6-.53,1.18-1.09,1.67-1.62L35.63,18c1.11-1.07,2.25-2.18,3.38-3.3.61-.62,1.21-1.27,1.78-1.9l.61-.66.12-.11,2-1.92a1.43,1.43,0,0,0,.16-1.85A1.5,1.5,0,0,0,43.45,8,28.22,28.22,0,0,0,40.7,5.47,24.59,24.59,0,0,0,20.85.37,25,25,0,0,0,15.5,1.85a.56.56,0,0,0-.34.56c0,.16,0,.32,0,.47a3.77,3.77,0,0,0,.07.83,44.31,44.31,0,0,1,.89,14.55,2.63,2.63,0,0,0,.46,2.18,2.54,2.54,0,0,0,2.13.47c5.32-.55,9-3.08,11-7.53.52-1.15.88-1.23,1.65-.89.24.11.36.21.38.27v0c0,.12-.11.34-.33.68-.1.16-.2.32-.28.47-2.61,5.5-7,8.33-12.91,8.44-2,0-2.71.62-3.12,2.52a45.05,45.05,0,0,1-5.3,14,.55.55,0,0,0,.56.83c5.45-.85,9.85-.65,13.84.63a2,2,0,0,0,2.18-.92l.17-.19c2.79-3.11,3.41-6.76,1.87-10.85-.06-.14-.11-.27-.16-.4v0c-.19-.47-.39-.94-.28-1.19a1.25,1.25,0,0,1,.66-.44.89.89,0,0,1,.62-.06c.15.08.24.4.35.81a3.48,3.48,0,0,0,.29.86,10.13,10.13,0,0,1,.86,5c0,.47,0,1,0,1.42a.54.54,0,0,0,.22.42.58.58,0,0,0,.46.11c4.19-.93,7.57-.12,10.32,2.47l.29.25c.34.28.53.47.54.6s-.09.25-.34.47c-.54.49-.81.53-1.49-.13A8.37,8.37,0,0,0,34.93,36a10.4,10.4,0,0,0-4.18,1,5.26,5.26,0,0,0-2.91,3.65c-.29,1.19.93,1.75,1.73,2.12a5.79,5.79,0,0,1,.79.4,25.29,25.29,0,0,1,5.16,4.22.55.55,0,0,0,.66.14A25.09,25.09,0,0,0,43.5,42,24.53,24.53,0,0,0,50,27.46,2.1,2.1,0,0,0,48.13,25Zm.74,2.39a23.4,23.4,0,0,1-6.2,13.9,23.59,23.59,0,0,1-6.54,5l-.06,0,0,0a27.36,27.36,0,0,0-5-4,7,7,0,0,0-.94-.5c-.7-.31-1.18-.56-1.12-.84A4.19,4.19,0,0,1,31.2,38a9.24,9.24,0,0,1,3.72-.87A7.19,7.19,0,0,1,40,39.38a2,2,0,0,0,3,.16,1.78,1.78,0,0,0,.7-1.32,2,2,0,0,0-.93-1.44l-.24-.21A11.55,11.55,0,0,0,32,33.67l-.1,0v-.11c0-.16,0-.32,0-.49V33a11.22,11.22,0,0,0-1-5.57,3.36,3.36,0,0,1-.18-.58,2.15,2.15,0,0,0-.89-1.53,1.85,1.85,0,0,0-1.52,0,2.06,2.06,0,0,0-1.32,1,2.61,2.61,0,0,0,.27,2.07q.07.21.15.39c1.41,3.72.87,6.9-1.65,9.71l-.19.22c-.47.55-.65.69-1,.58a29.16,29.16,0,0,0-13-.86l-.18,0,.09-.16a46.79,46.79,0,0,0,4.76-13.15c.31-1.4.57-1.62,2.05-1.65,6.41-.11,11.09-3.16,13.9-9.07a2.64,2.64,0,0,1,.2-.33,2,2,0,0,0,.47-1.63,1.66,1.66,0,0,0-1-1c-1.82-.81-2.62.35-3.12,1.46C26.88,17,23.58,19.29,18.61,19.8c-.63.07-1.06,0-1.22-.14s-.22-.6-.14-1.29.11-1.24.15-1.86a45.59,45.59,0,0,0-1.06-13,3.28,3.28,0,0,1-.05-.6V2.74l.06,0A23.85,23.85,0,0,1,21,1.47,23.57,23.57,0,0,1,40,6.35a26.9,26.9,0,0,1,2.63,2.44.32.32,0,0,1,.08.09.31.31,0,0,1,0,.41l-2,1.94-.12.1L40,12c-.57.63-1.15,1.27-1.75,1.87C37,15.06,35.8,16.26,34.8,17.22l-1.43,1.39a22.55,22.55,0,0,1-1.63,1.59l-3.12,3.06a.59.59,0,0,0-.14.58.55.55,0,0,0,.46.37,7,7,0,0,0,.94.08h.19l1,.12h.07l.11,0,.09,0h.21l2.28.22.28,0h.23l.36,0,.31,0h.1l.23,0L37,25a.81.81,0,0,0,.22,0h0l1.7.18h.18a1.24,1.24,0,0,1,.36.05.45.45,0,0,0,.16,0c.78,0,1.55.12,2.3.19h.08c.39.05.79.09,1.18.12l2.92.28,1.16.11c.19,0,.39,0,.59.08h0C48.72,26.23,49,26.56,48.87,27.35Z" fill="#fff"/>
    <path d="M11.81,25.26a5.19,5.19,0,0,0-4-2.17c-.7-.07-1.4-.17-1.61-.46a.89.89,0,0,1-.06-.72c.11-.57.3-.63,1.36-.43a5.93,5.93,0,0,0,.72.1c1.66.12,3,1.07,4.61,2.29a.54.54,0,0,0,.52.09.54.54,0,0,0,.36-.37,33.05,33.05,0,0,0,1.07-8.68l0-.59a1.58,1.58,0,0,0-1.55-1.74,3,3,0,0,1-.44-.12A11.93,11.93,0,0,1,7.38,8.3.58.58,0,0,0,7,8.07h0a.55.55,0,0,0-.41.18l-.19.21c-.19.21-.38.43-.56.65A24.17,24.17,0,0,0,.5,29.81a24.5,24.5,0,0,0,5.09,11.1.57.57,0,0,0,.77.08,6.09,6.09,0,0,0,1.52-1.76,48.59,48.59,0,0,0,4.25-9.14A5.5,5.5,0,0,0,11.81,25.26Zm-.74,4.48a46.39,46.39,0,0,1-4.16,8.92,5.73,5.73,0,0,1-.74,1l-.08.08L6,39.66A23.34,23.34,0,0,1,1.6,29.6a23.08,23.08,0,0,1,5-19.78l.19-.23.08-.08L7,9.59a13.32,13.32,0,0,0,5.45,3.9,3.25,3.25,0,0,0,.64.18c.6.12.67.15.66.61l0,.6a35.88,35.88,0,0,1-.78,7.48l0,.13-.12-.08a8.62,8.62,0,0,0-4.44-1.94,5,5,0,0,1-.59-.09C6.91,20.23,5.4,20,5.06,21.7a2,2,0,0,0,.26,1.59,3.21,3.21,0,0,0,2.39.91,4.07,4.07,0,0,1,3.16,1.67A4.44,4.44,0,0,1,11.07,29.74Z" fill="#fff"/>
    <path d="M42,14.07l-6.08,6.05-.48.48a1,1,0,0,0-.34.32,1,1,0,0,0-.12.85.87.87,0,0,0,.74.62l3.93.38a.87.87,0,0,0,.59-.24L45,17.9a1.29,1.29,0,0,0,.58-1.16v-.12c0-.24,0-.72.05-1.26l.1-2c0-.88-.08-1.18-.25-1.37l-.13-.12-.08,0a.82.82,0,0,0-.45-.12A1,1,0,0,0,44,12L43,13.11Zm2.49-1,.16-.16v.23a.81.81,0,0,0,0,.16h0l-.09,2c0,.54,0,1-.06,1.27v.13a1.41,1.41,0,0,1,0,.24v0l-.08,0-4.79,4.69-3.41-.34.19-.18,6.4-6.38,1-1Z" fill="#fff"/>
    <path d="M13.56,11.15h0a.55.55,0,0,0,.47,0,.54.54,0,0,0,.29-.37,11,11,0,0,0-.22-4.94c-.13-.66-.25-1.28-.32-1.91a4.15,4.15,0,0,0-.1-.48.55.55,0,0,0-.32-.36.54.54,0,0,0-.22,0,.54.54,0,0,0-.27.07A23.44,23.44,0,0,0,8.45,6.29a.55.55,0,0,0-.1.7A11,11,0,0,0,13.56,11.15Zm-1-6.6.12-.07,0,.14c.07.47.16.94.26,1.4v0a11.9,11.9,0,0,1,.36,3.65v.13l-.12-.06A9.75,9.75,0,0,1,9.61,6.86l0-.07.06,0" fill="#fff"/>
    <path d="M11,42.08a23,23,0,0,0-2.47.69.57.57,0,0,0-.36.42.55.55,0,0,0,.18.53,27.35,27.35,0,0,0,5.38,3.65A23.87,23.87,0,0,0,24.84,50.1a26.53,26.53,0,0,0,4.74-.43,26,26,0,0,0,3.16-.77.56.56,0,0,0,.38-.41A.54.54,0,0,0,33,48,23.42,23.42,0,0,0,11,42.08Zm20.29,6.08c-.62.16-1.26.3-1.89.42a26.24,26.24,0,0,1-4.54.41,22.6,22.6,0,0,1-10.61-2.61A27.69,27.69,0,0,1,10,43.64l-.14-.12.17-.05c.41-.11.82-.22,1.22-.3,7.71-1.69,14.28-.11,20.09,4.83l.14.11Z" fill="#fff"/>
  </g>
</svg>
