<svg xmlns="http://www.w3.org/2000/svg" xmlns:xlink="http://www.w3.org/1999/xlink" width="716.001" height="972.519" viewBox="0 0 716.001 972.519">
  <defs>
    <linearGradient id="linear-gradient" y1="0.5" x2="1" y2="0.5" gradientUnits="objectBoundingBox">
      <stop offset="0" stop-color="#ffb922"/>
      <stop offset="0.45" stop-color="#feb621"/>
      <stop offset="0.69" stop-color="#fcae20"/>
      <stop offset="0.879" stop-color="#f9a11e"/>
      <stop offset="1" stop-color="#f7941d"/>
    </linearGradient>
    <clipPath id="clip-path">
      <path id="Path_185" data-name="Path 185" d="M368.137,3669.394h1.221c1.163-1.568,3.3-3.2,4.855-5.1,3.934-4.814,1.85-7.809,8.472-11.634,12.35-7.133,12.033-20.2,15.339-24.4,1.94-2.465,5.814-4.918,7.929-6.875.815-.754.818-1.636,1.388-2.77,3.478-6.917-2.014-21.743,3.2-27.052,1.7-1.736,1.245-.381,2.827-2.476.9-1.195.72-1.414,2.164-2.561,1.724-1.37,4.029-2.726,5.466-4.038,3.14-2.864,1.064-2.7,5.927-4.2,3.958-1.216.334-2.616,7.441-1.92,1.618-2.193,2.62-3.311,5.822-3.794,3.792-.571.593.243,3.177-1.633,3.623-2.631,7.818-1.762,12.117-2.17a24.127,24.127,0,0,1,4.247-.466c1.949.115,2.051,1,3.566-.166.618-.619.654-2.742.914-3.246,1-1.936,5.221-2.648,7.255-3.894-.405-10.123,3.685-7.83,5.642-14.021.539-1.7.6-3.584,1.4-4.909,2.222-3.664,4.949-.089,4.5-8.162-.345-6.191-.573-6.667,3.438-9.3.252-2.859.212-4.848.536-7.632.31-2.666.8-3.677,1.3-6.306.848-4.435-.6-9.928-.061-14.843a57.2,57.2,0,0,0,.431-7.489c.021-3.181.632-3.9,2.971-5.139,2.571-1.366,2.529-.755,4.727-3.233a34.907,34.907,0,0,0,3.032-4.341c2.5-3.854,2.428-7.693,5.942-10.011a30.206,30.206,0,0,0,4.651-3.255c1.577-1.471,2.087-2.879,3.36-4.547,2.68-3.507,5.15-4.887,6.969-8.956a35.8,35.8,0,0,0,2.346-12.867c-.279-4.8-2.34-8.388-3.134-12.683-1.168-6.316-4.55-4.587-10.551-5.215-5.171-.542-5.059-2.587-8.485-3.783-2.411-.841-.669.67-2.361-1.4-4.451-5.43-11.534-10.367-17.76-13.387-2.891-1.4-8.877,1.174-13.689.508-2.6-.361-2.277-.939-6.373-1.405-2.264-.257-3.566-1.526-5.607-2.509-3.042-1.464-11.844-1.595-12.914-2.285-2.152-1.475-.413-.272-1.074-2.108-2.01-5.582-4.557-2.346-6.336-1.421-.546-1.1-.134-1.83.048-3.086a27.065,27.065,0,0,1-3.929-1.389c-2-1.129.632-1.052-3.224-1.654-2.795-.435-1.31.667-3.109-.492-1.663-1.072-.393-.806-3.207-1.584a20.673,20.673,0,0,0-8.721-.572c-6.1,1.1-3.646.695-3.9-3.691l-6.753-1.138c-.31-2-.335-1.123-.919-2.3-.051-.1-.137-.254-.183-.345l-.5-1.069c-2.705.328-1.381.945-4.219.536-2.824-11.074,1.8-4.743,1.406-11.6l-4.818-.9a88.039,88.039,0,0,1-4.636-11.642c-1.322-4.792-.617-10.439-4.669-12.012-5.717,3.215-7.538,13.7-12.311,16.992-2.395,1.649-2.83,1.3-6.217,1.118-2.684-.141-4.126.768-6.331.9-2.544.155-4.654-.987-6.607-.517-4.018.969-1.606.589-5.732.287l.055,4.5a16.532,16.532,0,0,1-3.385-.18c-3.328-.212-1.337.035-2.547.707-3.054,1.695-2.448.225-4.562-1.427-2.3.658-1.194.914-2.891,1.842-2.374,1.3-5.169,1.017-6.562,1.921-1.9,1.234-.656.773-1.662,2.595-2.163-.006-2.068-.318-3.536-1.212-7.213-4.393-3.741-5.9-5.348-8.379-1.751-2.7-3.766.406-1.474-6.618.509-1.562.258-2.59.876-3.887.868-1.821.895-.268,1.721-2.644-.373-3.815-1.762-2.786-4.278-4.763,0-4.715,2.754-5.607-4.37-5.781-1.447,2.409.39,2.536-2.409,3.926-1.267.629-3.117.907-4.057,1.739-1.952,1.727.261,1.738-3.248,2.548-2.074.478-3.782.216-5.539.5-3.64.592-1.984,3.859-8.721,2.662-3.576-.635-4.424-3.319-8.108-3.291-.073,4.72,3.5,1.081,2.852,6.025-.363,2.766-2.158,4.683-.657,8.312,2.446,2.91,3.363.608,6.671,1.77-.909,2.186.359.587-2.34,1.646-7.71,3.024,1.669,3.062-10.944,7-2.664.832-4.064.276-5.148,3.259-2.763.077-5.322.95-7.291-.388-5.112-3.47-.741-1.5-5.521-1.86-.144-2.6.114-5.152-1.706-6.425-2.726-1.907-1.72,1.123-4.17,2.307-3.028-1.144-.336-1.33-3.176-2.876-1.379.472-1.639,1.916-1.857,1.484-.048-.094-.162.243-.261.349-2.133.037-8.535-.582-9.79.721-.719.748-1.182,2.7-.147,3.75,1,1.009,2.607.594,4.284,1.221l-.4,3.97c-3.543.026-1.682-2.321-5.816.779-.376,4.773-1.238,5.534,1.65,8.615,1.778,1.9.446,1.688,1.374,3.875.532,1.253,1.238,1.31,2.221,2.33.006,3.608-1.7,8.907-2.194,12.737l-2.829,12.96c-1.84-.267-3.17-.916-5.3-1.021-3.931-.2-2.483.425-4.653,1.407-2.269,1.03-3.9.189-8.851,2.7-2.834,1.439-5.326,2.112-6.388,5.291a24.075,24.075,0,0,1-1.5,4.32c-1.164,2.412-.373,2.243-1.046,4.818-2.136,1.162-3.322,1.221-4.341,3.549-.652,1.491-.434,2.19-.869,3.317-.915,2.371-.282-.243-1.666,2.317.845,3.069,3.246,6,5.39,8.054,5.087,4.872,1.164,5.57,1.981,9.116,4.049.4,4.091-1.284,6.627,1.9,1.754,2.2,1.893,3.011,5.612,2.374,3.435-.588,3.369-1.357,4.664-3.692.619-1.116,2.357-3.539,3.824-3.835-.048,1.966-.638,1.425-.251,3.368.291,1.462.519.6.944,2.868.651,3.474.028,3,1.613,5.731,3.059.165,1.838-.781,4.73-1.2,8.758-1.259,9.248,3.507,12.714,3.723,1.5-1.6,1.307-3.886,3.706-5.1,2.425-1.223,5.441-.028,8.036-1.088,1.95-.8,3.187-2.627,6.24-2.779a31.874,31.874,0,0,1,7.59.96c-.013,14.352,3.384,12.623,7.1,16.257,2.953,2.886,5.017,1.216,8.726,2.925,2.4,1.107,2.574.045,4.478,1.358,1.216.838,1.066,1.555,3.135,2.695a10.859,10.859,0,0,1,3.448,2.32c3.093,2.692,10.58-.016,12.895,4.575,1.383,2.744.8,7.554,1.041,10.765.227,3.073,1.314,6.6,1.976,9.516,7.154,1.959,8.944-.319,15.064,1.279.324,13.755.732,7.478,4.577,12.4,3.372,4.317.846,7.584-.77,12.32-1.674,4.909-.546,3.49-.565,6.965-.02,3.744-1.908.516.679,5.795,2.746,5.6-2.763,10.1.154,13.038,2.552,2.042,13.137-.179,17.184.833,4.015,1,2.693,10.413,3.486,14.694,2.332,1.043,3.312,1.046,5.046-.051,2.443-1.544,2.288-.53,4.839.525-.1,3.575-3.107,11.052-2.4,14.568l2.5.871a25.752,25.752,0,0,0,2.64.363c1.644,4.131.94,3.737,1.387,8.067.408,3.947.972,5.39-2.376,7.085-15.609,7.9-10.613,4.3-19.842,17.223-2.757,3.86-8.652,5.784-8.2,9.861,6.151.2,3.657.67,7.327,2.792,3.507,2.029,2.373,2.961,4.631,5.067,1.928-.288,3.031-1.9,4.9-.374,3.147,2.57,6.641,7.169,10.374,9.27,2.478,1.395,1.948.434,3.975,2.895,4.632,5.624,3.281,2.716,2.027,8.235-.45,1.979-.23,3.625-.694,5.7" transform="translate(-195.971 -3332.812)" fill="url(#linear-gradient)" clip-rule="evenodd"/>
    </clipPath>
  </defs>
  <g id="mapa-mobile" transform="translate(-542.443 -3011.737)">
    <path id="Path_145" data-name="Path 145" d="M775.761,3673.975l-4.239-4.608-8.11,12.718,6.082-2.212,3.133-.368q1.291,3.041,2.581,6.082l6.82.552q2.3,1.752,4.608,3.5l4.239,3.871,8.294-1.106,9.216-2.212,3.318,1.659,4.793,6.729q.646,3.134,1.29,6.267l3.039,4.424,5.161.552,3.225,4.24q-.6,2.948-1.2,5.9l-1.106,1.935,7.373,2.948q2.258,2.074,4.516,4.147.046,2.719.092,5.437l3.133.553,3.687-1.844,3.5-3.594,4.423,1.475,5.345,5.621,2.58,8.294q-1.336,5.254-2.673,10.507-.137,3.041-.276,6.083,1.752,3.041,3.5,6.081l8.662,7.374,6.637,6.819c-9.285,11.145-9.278,12.212-8.3,26.635l5.437,11.428q-.69,1.982-1.381,3.963.506,2.028,1.013,4.055l4.424,1.474q-2.027,3.041-4.055,6.083c-10.586,5.036-14.633,3.726-11.613,14.742l-2.949,4.885q.046,3.549.092,7.1l-7.926,7.74-3.41,4.148c3.564,8.048,2.931,8.977-3.961,13.916l3.871,5.806,7.649-2.027c7.173-2.5,11.59-4.4,13.547,3.87v6.082c4.578,2.718,4.749-.31,8.663-4.792l3.594-2.212c5.154,5.154,7.148,6.557,12.995.553l5.713,4.055,14.47,7.925,6.082-.829,9.216,1.015q-.369,2.533-.737,5.068l4.884,2.3,6.175-1.382s11.428,9.676,10.506,9.953,2.487,3.594,2.487,3.594h7.834l2.672,3.685,4.7,1.751,30.044-26.266q.83-4.24,1.659-8.479l4.976,1.29c7.6-.507,6.581-1.307,12.349-6.451l5.161-6.451-2.949-5.714-3.133-5.9,1.475-6.082,9.586-10.875,4.792,3.687,6.82,2.211,4.608-1.106,2.58-4.239q.186,3.686.369,7.373l11.98,5.161q5.068-5.162,10.138-10.323c8.175-1.431,6.659.052,10.505-7.188h6.083q3.133-5.531,6.267-11.06l5.161-2.212c7.726,4.578,23.253,15.52,20.367,25.619q3.272,4.561,6.543,9.124-2.718,3.87-5.438,7.741l-9.953,1.843c-4.7,3.047-3.309,2.542-1.563,8.385l-5.161,7.74-7.65-.737c-7.323,7.324-8,4.963-5.069,14.376l7.926,10.506q.46,4.883.922,9.769l7.188,8.663,4.423-1.658c9.325,2.026,15.114,4.352,15.114,14.93l7,11.8,12.718-1.475,9.769-6.452,5.53,14.377,6.082-1.659,6.452,7,5.9-7.373,18.616-.184,7,5.161,1.29,5.714q3.041.37,6.082.737-1.107,4.055-2.212,8.11l-4.238,2.579,6.083,2.95q.461,1.474.921,2.947l-4.976,2.581-4.239,4.239,6.082,5.162,3.133,9.585,2.4,4.054,8.848,1.843q.552,2.3,1.105,4.607.921,2.306,1.843,4.609l7-2.765,6.82,2.4,12.718-6.082,6.451-9.216q2.581-5.16,5.161-10.322l6.636-8.479q1.015-3.133,2.028-6.266l2.4-6.267c-8.908-8.909-.3-15.663.184-28.2q5.805-8.941,11.612-17.879l4.608-9.77,6.82-9.953q-.09-7-.179-14.009l8.11-15.85q4.607-11.428,9.216-22.855l9.585-6.267q-.461-5.438-.922-10.875l5.345-.369-6.266-6.45q4.331-5.531,8.663-11.06l6.635-6.82-.553-16.219h6.635q.369-5.069.74-10.139l2.027-7c-13.421-2.8-26.64-7.63-13.27-22.487l5.161-.368q.553-3.227,1.106-6.452l7-2.581,1.474-8.293q-.553-4.609-1.106-9.216c6.687-10.308,4.827-15.948.74-27.187l-4.887-3.5q-.368-5.529-.737-11.059l5.161-4.424,1.105-5.345,18.987-16.957,7.557-1.844,9.768-8.478c26.018,5.915,23.046,4.661,42.026-14.93q6.82-6.91,13.639-13.823l9.769,4.239q2.212-3.963,4.424-7.926l9.216-9.584q-.736-3.5-1.474-7l-9.4-3.133,6.451-6.451,13.455,8.11,5.345-9.031-10.691-12.9,6.453-2.395c7.447-12.413-7.378-29-18.616-13.64l-23.409-13.823-.922-11.428-8.294,1.843-4.239-2.027-5.9,2.4q-5.9,2.4-11.8,4.792l-4.608-4.976-4.239-.922,9.032-13.272-19.537-.183-16.589,12.533q.646,2.58,1.291,5.161l-5.9,4.793q.092,4.055.184,8.109l-7,3.5,3.686,4.424q-1.658,2.3-3.318,4.608l-8.847,1.291-.922,7.188,4.792,4.424q-2.672,3.779-5.345,7.557l-8.11,7.373q1.2,2.488,2.4,4.979l-7,2.58q-.921,3.317-1.843,6.635l-6.636-.185q-.461-2.3-.921-4.608l-6.636,5.9-12.165,3.132h-7.188l-5.345,3.687q.461,1.935.921,3.87c-11.458,9.207-18.483,15.764-22.855,30.228l-6.636-1.29-4.423,2.4-11.981.369-6.635-1.474q1.2-14.745,2.4-29.491l-22.117-22.487.736-7.926-4.977-5.9-7.741.922c-16.839-3.139-25.813-2.779-40-13.178l-4.239-6.083,4.608-4.055-4.608-2.949q-1.658-3.872-3.318-7.742l4.238-8.478q.092-3.963.184-7.926l-4.792-8.847-5.714-12.534q-.553-3.964-1.106-7.926l-7.372-8.11,6.267-4.608q-1.2-3.318-2.4-6.635l-12.9,14.008,4.423,6.451q.369,4.24.737,8.478l-2.4,5.715-8.478-.553-5.9-4.054-3.87,4.608q1.2,3.5,2.4,7l6.083,4.424q.368,3.041.737,6.083l-14.654,10.69-7,3.134q-.921,1.8-1.843,3.594l-2.3-3.41-9.861,7.557-14.008-8.294-6.082,3.41,10.046,10.876-11.152-.553-9.677-12.807-4.516-5.991-4.331,3.319-5.161-5.714q-.23-6.083-.461-12.166l5.345-6.082,4.239-5.714,1.566-7.465q2.12-4.607,4.24-9.215l9.4-3.687,3.318-4.608-4.239-1.843H1068.2q-2.3-2.212-4.608-4.423l6.082-7.741q-.921-5.254-1.844-10.507l-6.635-8.847,13.824-9.584-2.027-10.412-2.764-7.373q2.58-3.779,5.161-7.557-1.244-3.964-2.489-7.925l-4.976-4.885,5.9-3.871q-.969-7.28-1.935-14.56l-16.127,12.81-13.824,2.027-3.41,3.687c-.782,16.258-26.974,26.125-41.562,20.183q-3.594-2.3-7.188-4.608-4.424,7.28-8.847,14.561l-8.479,15.3-4.791,9.032q-2.765,6.452-5.529,12.9-1.29,6.82-2.581,13.639l-7.742,2.948c-1.03,24.729-6.052,41.919-33.545,30.6l-8.11,8.478-9.216,13.639q-3.87,4.793-7.742,9.585l-12.533,1.474-7,6.635q.551,6.451,1.105,12.9H863.7l-5.532,3.317-3.687,4.424-2.58,6.451H843.8l-2.95,6.267-11.243,4.239-8.11,5.9-6.819,2.948-7.926,2.949q-.921,4.332-1.843,8.663-1.383-5.529-2.764-11.059l-7.558,4.424-6.636,7.925-6.081,6.821q-1.291,3.041-2.581,6.083l-4.055-.553,4.792,6.82q1.2,2.487,2.4,4.977l-6.657,2.853" transform="translate(-220.968 -52.725)" fill="#fff" fill-rule="evenodd"/>
    <g id="Group_33" data-name="Group 33" transform="translate(610.674 3455.646)">
      <path id="Path_146" data-name="Path 146" d="M1526.034,3819.95c-6.707.547-6.822-.022-13.339-2.273-6.274-2.167-9.17,12.886-11.138,5.1-1.364-5.4-14.951-5.474-12.855-11.164,1.3-3.542.322-.075.322-4.746,0-7.01,5.937-4.268,6.315-6.714,1.839-11.908-9.492,1.173-15.684-3.9-10.279-8.426-5.956-.767-9.152-2.443-7.06-3.7-6.052,1.609-7.758,1.753-.351.031-8.981-9.5-11.49-6.225-5.457,7.123-13.3-4.128-16.172-8.383-1.44-2.135-13.861-4.539-14.257-8.5,8.317,7.288,2.854,6.55-.735,10.12-8.452,8.406-4.363.083-5.466,9.554-.42,3.609-10.442,1.238-11.8,7.056-1.824,7.835-6.667.446-6.667,4.613,0,4.587-10.679-.794-1.011,6.636,5.434,4.176-5.584,6.79,1.59,15.513,2.961,3.6-6.447,7.529,10.848,5.1,2.772,2.506-1.4,6.22,8.784,1.7,7.017-3.118.294,16.741,15.272.948,10.108-10.659,4.138,8.447,19.843,8.447,9.863,0,25.46,11.356,23.529.707-.864-4.768,10.1,5.392,5.5-8.268-3.458-10.273,7.065-6.9,2.675-16.8-1.079-2.432,3.158-4.145,3.992-4.023" transform="translate(-1012.851 -3611.639)" fill="none" stroke="#42210b" stroke-miterlimit="22.926" stroke-width="1.923"/>
      <path id="Path_147" data-name="Path 147" d="M1384.415,4235.1c10.75-3.913,13.376,7.635,27.231.416,1.041-.543-.812-5.093,6.351-4.551,2.917.22,7.537-5.59,3.265-7.067-.634-1.83,3.425-3.973,6.666-7.215,7.143-7.143,2.41-4.592,14.588-3.843.036,0,7.563,3.432,8.174,3.379" transform="translate(-1010.921 -3738.472)" fill="none" stroke="#42210b" stroke-miterlimit="22.926" stroke-width="1.923"/>
      <path id="Path_148" data-name="Path 148" d="M1474.781,4109.188c-6.636.242-17.32-11.706-17.32.255,0,9.007-16.72-1.725-16.588,6.488.154,9.633,1.291,26.371-14.282,17.758-5.537-3.063-6.37-7.57-14.345-8.2-6.167-.491-22.256-20.863-24.394-11.554-1.759,7.666,3.608,4.737-5.013,10.111-3.051,1.9,1.756,9.285-3.128,11.427-3.207,12.273,7.755,19.935,7.856,20.212-3.617,3.36-10.507-2.123-10.1,10.627.05,1.595-1.325,4.726-4.069,4.812" transform="translate(-1007.741 -3707.389)" fill="none" stroke="#42210b" stroke-miterlimit="22.926" stroke-width="1.923"/>
      <path id="Path_149" data-name="Path 149" d="M1398.06,4074.624c2.411-.158,1.651-3.876,9.846-6.036,3.69-.972,2.495-5.319,7.889,8.911,2.3,6.08,4.152,2.087,5.224,12.345.2,1.916,10.3,11.433,11.86,12.016,0-10.6,7.512-.169,10.29-14.1.743-3.723,15.6.35,22.087.094,2.448-.1,8.007,3.943,8.642,7.911" transform="translate(-1014.861 -3696.733)" fill="none" stroke="#42210b" stroke-miterlimit="22.926" stroke-width="1.923"/>
      <path id="Path_150" data-name="Path 150" d="M1353.855,4046.5c16.884-2.688,8.051-.948,16.834-12.619,2.154-2.861,1.383-6.515,8.563-13.66,12.78-12.718.8-4.249,6.373,6.172,3.137,5.862,8.272-.032,16.43-.032" transform="translate(-1002.099 -3681.324)" fill="none" stroke="#42210b" stroke-miterlimit="22.926" stroke-width="1.923"/>
      <path id="Path_151" data-name="Path 151" d="M1411.9,4018.808c5.116-11-3.749-10.189,5.468-22.055,4.122-5.308-5.179-14.174,10.9-20.433,10.746-4.183,13.149-23.79,13.028-33.3-.121-9.574,7.645-20.711,18.705-19.96,1.926.13,2.584-1.657,3.044-2.211-5.181-9.378,5.807-2.264,5.807-17.569v-8.51" transform="translate(-1018.857 -3646.952)" fill="none" stroke="#42210b" stroke-miterlimit="22.926" stroke-width="1.923"/>
      <path id="Path_152" data-name="Path 152" d="M969.925,3592.882c7.92,2.836,1.885,11.859-1.538,15.516-7.2,7.691,2.966,5.6,1.443,17.969-.528,4.289,11.174,11.1,10.017,1.813,0-.032-2.244-2.344-2.244,2.948,0,9.977,12.08,15.512,10.722,22.181-1.534,7.537-5.168-.58.243,13.977,1.446,3.889-2.616,14.715,14.84,12.565,3.236-.4,11.549-10.152,12.565-1.876.758,6.17,2.76,10.384,10.448,4.6,1.416-1.063,4.635-16.432,4.635-20.485,0-10.52,6.452-8.134,6.972-19.875.261-5.877,7.787-8.941,11.681,1.105,6.69,17.261,8.816-1.061,6.478-3.748-9.455-10.871,4.2-5.506,8.91-18.948,3.924-11.2,7.13-7.758,14.651-17.021,6.419-7.908,6-14.322,11.522-16.778,1.171-.521,1.733-8.283,7.826-12.2,3.815-2.45,10.76-12.515,6.3-16.736-2.647-2.505,2.52-4.518,5.656-4.518,1.353-.844,5.816.278,8.815-5.223a4.547,4.547,0,0,1,1.507-1.78" transform="translate(-890.065 -3546.374)" fill="none" stroke="#42210b" stroke-miterlimit="22.926" stroke-width="1.923"/>
      <path id="Path_153" data-name="Path 153" d="M1055.317,3703.5c1.536,4.515,13.331,5,4.473,9.479-7.107,3.594,7.7,16.4,16.041,15.693,2.383-.2,14.34,12.994,25.309,5.014,2.724-1.982,21.312-3.107,26.2-2.159,9.359,1.814,1.219-3.937,11.606.7,2.387,1.068,10.485-6.476,17.852-7.984,2.591-8.113-4.491-16.45,12.838-26.352,7.477-4.272,4.919-15.563,2.128-22.676-.664-1.691-.8-2.09-2.433-2.949-3.7.266-3.731-4.166-8.231-7.157-4.3-2.861-.311-5.954-3.564-11.459" transform="translate(-915.913 -3577.344)" fill="none" stroke="#42210b" stroke-miterlimit="22.926" stroke-width="1.923"/>
      <path id="Path_154" data-name="Path 154" d="M1056.416,3752.074c-17.763-.19-9.443-1.512-13.093,7.321-6.5.885-14.775-3.6-12.071,7.563,2.406,9.929,12-1.79,10.628,21.159-.186,3.1,8.838,6.673,10.965,1.3,8.317-1.694,1.932,14.164,10.689,17.662,7.34,2.932-6.691,9.823,14.2,14.65,5.949,1.375,5.662.281,10.6,2.581,2.317.9,8,7.434,2.707,7.679-16.916.783.359,12.589-3.782,19.538-4.1,6.886,9.484,10.848,12.5,23.192.286,1.169,9.37,17.733,12.964,17.758,7.753.055-1.668,8.563,9.922,9.215,5.876.331,15.87,9.784,19.779,8.11,2.347,2.737-13.493,10.714-2.117,14.408,1.723-.861-1.768,7.405,4.549,14.5,2.428,2.728,1.349,14.042,1.349,17.937" transform="translate(-908.814 -3605.706)" fill="none" stroke="#42210b" stroke-miterlimit="22.926" stroke-width="1.923"/>
      <path id="Path_155" data-name="Path 155" d="M1131.487,4023.23c-2.086,1.9-15.962-7.726-8.276-10.041,6.649-2-5.134-7.363,11.522-6.909,2.033.056,3.359-10.26,9.7-1.074.935,1.354,16.01-1.617,16.01-11.523,0-2.472-.6-3.786,1.741-4.741" transform="translate(-934.85 -3674.14)" fill="none" stroke="#42210b" stroke-miterlimit="22.926" stroke-width="1.923"/>
      <path id="Path_156" data-name="Path 156" d="M1271.042,4059.122c4.28,9.166-.792,11.3,16.327,12.785,11.934,1.037,13.671-1.664,24.424-4.266,7.31-1.769-5.949-13.665,13.639-11.186,14.259,1.8-6.164-8.794,7.4,4.824,7.56,7.589,10.931,1.734,17.293,7.563,4.133,3.786,17.3-2.528,16.989,10.837-.08,3.421-6.623.052-7.6,17.762" transform="translate(-978.192 -3692.984)" fill="none" stroke="#42210b" stroke-miterlimit="22.926" stroke-width="1.923"/>
      <path id="Path_157" data-name="Path 157" d="M1423.1,3877.477c-1.614,5.536-5.5,6.182-4.129,11.961-.131.113-7.463.61-12.692,3.624-7.874,4.538-7.58-4.713-13.271,9.058-1.078,2.61-5.964-3.95-12.343,6.73-3.564,5.969-13.228-4.817-23.719,5.625-9.808,9.762-2.709-17.76-20.855,5.5-4.607,5.905-4.7-4.761-12.628-4.761-9.814,0-9.086-2.212-21.011-2.212-1.776,0-13.752-1.386-13.851-1.569-6.262-11.668,6.923-17.741-11.217-17.568-3.627.035-.827-5.029-14.777-4.824-18.577.273-10.788-.5-9.616,9.521.8,6.852-45.739,10.5-29.49,19.875.322.187,2.711,6.464-3.623,6.7-3.094.115,11.419,1.391,2.179,11.491l-.768.337c3.63,7.284-16.095,1.385,2.883,6.33,2.647,8.835,1.769,5.847,13.429,7.74,9.646,1.567,11.673-3.681,11.67,6.6,2.826,1.313,16.967-2.952,20.58,3.813,1.813,3.394,24.956-1.271,26.668-4.55,4.639-8.885-2.583-2.92,5.866-5.225,5.352-1.459-.949-11.026,4.172-11.026,9.514,0,15.577-2.305,20.654,4.486,2.781,3.721,6.429-10.6,16.683-12.471,7.6-1.387-3.217-7.466,9.522-8.573,2.128-.185,2.82-7.55,3.865-9.311l.4-.674" transform="translate(-962.243 -3641.961)" fill="none" stroke="#42210b" stroke-miterlimit="22.926" stroke-width="1.923"/>
      <path id="Path_158" data-name="Path 158" d="M1261.837,3990.09c4.927,4.113-2.922,12.445-10.628,10.809-7.907-1.68.114,3.165-10.985-2.7-6.735-3.557-8.552,3.91-7.187,7.664" transform="translate(-967.098 -3674.471)" fill="none" stroke="#42210b" stroke-miterlimit="22.926" stroke-width="1.923"/>
      <path id="Path_159" data-name="Path 159" d="M859.335,3709.575c4.012,4.614,4.343,8.785,10.158,11.34,3.84,1.688-11.951,2.71-1.875,6.878,6.092,2.519,2.7-4.7,19.074,5.688,5.694,3.611-7.647-.368-7.647,7.34,0,7.095,16.823,7.215,5.161,18.526-9,8.731,17.06,14.412,8.51,34.094-1.6,3.677-4.239,16.123-.979,18.863,8.511,7.156,6.109-.151,6.109,14.619,0,5.856-4.585,3.779-8.479,4.15l-.117-1.017" transform="translate(-859.335 -3593.489)" fill="none" stroke="#42210b" stroke-miterlimit="22.926" stroke-width="1.923"/>
      <path id="Path_160" data-name="Path 160" d="M1104.913,3901.081c6.329,10.367-16.01,1.747-16.01,8.014,0,31.581,9.559,7.328,13.639,16.9,4.891,11.465-26.048,16.2,1.875,15.482,4.36-.113,11.3,9.708,6.024,9.89-8.55.295-9.187,16.59-1.359,16.619,4.294.018-4.07,7.205,7.068,13.367l.243-.98,1.021,1.224" transform="translate(-925.609 -3648.775)" fill="none" stroke="#42210b" stroke-miterlimit="22.926" stroke-width="1.923"/>
      <path id="Path_161" data-name="Path 161" d="M921.757,3928.007c8.5-6.239,7.312,5.669,22.036,4.713,6.217-.4,5.108,8.307,13.545.832,10.881-9.638,7.879,8.727,21.749-14.713,5.25-8.874,27.777,1.432,34.062,11.206,1.746,2.715,5.6-2,14.693-1.748,1.477.041,1.5-9.259,14.369-.423" transform="translate(-877.356 -3652.925)" fill="none" stroke="#42210b" stroke-miterlimit="22.926" stroke-width="1.923"/>
      <path id="Path_162" data-name="Path 162" d="M1117.038,3767.487c2.138-.883,12.218-1.635,12.3.842.259,7.543,6.22,10.207,6.266,5.982.011-.958,4.308,5.319,11.734,5.319,1.773,0,11.411,2.376,2,5.771-1.813.655,8.542,14.125,12.47,9.647,5.958-6.791,1.677,4.293,11.976,1.728,7.985-1.988,4.44,4.884,12.228,6.782,11.067,2.7,1.333,15.678,19.759,10.818,13.664-3.6,4.286,4.622,14.988,5.866,6.233.724,9.108,6.829,16.714,4.6,4.4,3.507-1.323,7.068,7.4,6.331,1.734,2.141-5.451,7.782,3.866,18.063,1.81-12.113,1.355-10.2,13.766-16.314,12.61-6.21,9.633,8.38,11.333-11.913.082-.974,11.537,4.1,9.068,7.152-2.455,3.031.543,9.326,3.739,4.9,10.636-14.741,8.463-5.509,23.719-5.509,4.2,0,3.43.093,7.326.943" transform="translate(-933.732 -3609.965)" fill="none" stroke="#42210b" stroke-miterlimit="22.926" stroke-width="1.923"/>
    </g>
    <path id="Path_163" data-name="Path 163" d="M842.06,3750.956a8.416,8.416,0,1,1-8.415,8.416A8.416,8.416,0,0,1,842.06,3750.956Z" transform="translate(-241.244 -149.79)" fill="#2b0b05" fill-rule="evenodd"/>
    <text id="_1" data-name="1" transform="translate(595.893 3615.092)" fill="#fff" font-size="15" font-family="Arial-BoldMT, Arial" font-weight="700"><tspan x="0" y="0">1</tspan></text>
    <path id="Path_164" data-name="Path 164" d="M984.814,3799.242a8.416,8.416,0,1,1-8.416,8.416A8.416,8.416,0,0,1,984.814,3799.242Z" transform="translate(-282.456 -163.729)" fill="#ee7a04" fill-rule="evenodd"/>
    <path id="Path_165" data-name="Path 165" d="M984.814,3799.242a8.416,8.416,0,1,1-8.416,8.416A8.416,8.416,0,0,1,984.814,3799.242Z" transform="translate(-282.456 -163.729)" fill="#2b0b05"/>
    <text id="_4" data-name="4" transform="translate(697.919 3649.487)" fill="#fff" font-size="15" font-family="Arial-BoldMT, Arial" font-weight="700"><tspan x="0" y="0">4</tspan></text>
    <path id="Path_166" data-name="Path 166" d="M1094.684,3574.322a8.416,8.416,0,1,1-8.415,8.416A8.417,8.417,0,0,1,1094.684,3574.322Z" transform="translate(-314.175 -98.797)" fill="#2b0b05" fill-rule="evenodd"/>
    <text id="_19" data-name="19" transform="translate(773.333 3486.992)" fill="#fff" font-size="11" font-family="Arial-BoldMT, Arial" font-weight="700"><tspan x="0" y="0">19</tspan></text>
    <path id="Path_167" data-name="Path 167" d="M1135.721,3699.881a8.415,8.415,0,1,1-8.415,8.416A8.415,8.415,0,0,1,1135.721,3699.881Z" transform="translate(-326.022 -135.045)" fill="#2b0b05" fill-rule="evenodd"/>
    <text id="_7" data-name="7" transform="translate(805.105 3578.177)" fill="#fff" font-size="15" font-family="Arial-BoldMT, Arial" font-weight="700"><tspan x="0" y="0">7</tspan></text>
    <path id="Path_168" data-name="Path 168" d="M1306.3,3783.96a8.416,8.416,0,1,1-8.415,8.416A8.415,8.415,0,0,1,1306.3,3783.96Z" transform="translate(-375.267 -159.317)" fill="#ee7a04" fill-rule="evenodd"/>
    <path id="Path_169" data-name="Path 169" d="M1306.3,3783.96a8.416,8.416,0,1,1-8.415,8.416A8.415,8.415,0,0,1,1306.3,3783.96Z" transform="translate(-375.267 -159.317)" fill="#2b0b05"/>
    <text id="_12" data-name="12" transform="translate(924.191 3636.707)" fill="#fff" font-size="11" font-family="Arial-BoldMT, Arial" font-weight="700"><tspan x="0" y="0">12</tspan></text>
    <path id="Path_170" data-name="Path 170" d="M1176.568,3830.337a8.416,8.416,0,1,1-8.416,8.416A8.416,8.416,0,0,1,1176.568,3830.337Z" transform="translate(-337.813 -172.706)" fill="#2b0b05" fill-rule="evenodd"/>
    <text id="_10" data-name="10" transform="translate(832.128 3669.811)" fill="#fff" font-size="11" font-family="Arial-BoldMT, Arial" font-weight="700"><tspan x="0" y="0">10</tspan></text>
    <path id="Path_171" data-name="Path 171" d="M1147.546,3972.766a8.415,8.415,0,1,1-8.416,8.416A8.415,8.415,0,0,1,1147.546,3972.766Z" transform="translate(-329.435 -213.825)" fill="#ee7a04" fill-rule="evenodd"/>
    <path id="Path_172" data-name="Path 172" d="M1147.546,3972.766a8.415,8.415,0,1,1-8.416,8.416A8.415,8.415,0,0,1,1147.546,3972.766Z" transform="translate(-329.435 -213.825)" fill="#2b0b05"/>
    <text id="_6" data-name="6" transform="translate(813.187 3772.866)" fill="#fff" font-size="15" font-family="Arial-BoldMT, Arial" font-weight="700"><tspan x="0" y="0">6</tspan></text>
    <path id="Path_173" data-name="Path 173" d="M1009.692,4030.81a8.416,8.416,0,1,1-8.416,8.416A8.415,8.415,0,0,1,1009.692,4030.81Z" transform="translate(-289.638 -230.581)" fill="#2b0b05" fill-rule="evenodd"/>
    <text id="_1-2" data-name="1" transform="translate(713.862 3810.841)" fill="#fff" font-size="9" font-family="Arial-BoldMT, Arial" font-weight="700"><tspan x="0" y="0">1</tspan></text>
    <text id="_1-3" data-name="1" transform="translate(719.3 3810.841)" fill="#fff" font-size="9" font-family="Arial-BoldMT, Arial" font-weight="700"><tspan x="0" y="0">1</tspan></text>
    <path id="Path_174" data-name="Path 174" d="M1169.83,4012.232a8.415,8.415,0,1,1-8.416,8.415A8.416,8.416,0,0,1,1169.83,4012.232Z" transform="translate(-335.869 -225.218)" fill="#ee7a04" fill-rule="evenodd"/>
    <path id="Path_175" data-name="Path 175" d="M1169.83,4012.232a8.415,8.415,0,1,1-8.416,8.415A8.416,8.416,0,0,1,1169.83,4012.232Z" transform="translate(-335.869 -225.218)" fill="#2b0b05"/>
    <text id="_5" data-name="5" transform="translate(829.038 3800.939)" fill="#fff" font-size="15" font-family="Arial-BoldMT, Arial" font-weight="700"><tspan x="0" y="0">5</tspan></text>
    <path id="Path_176" data-name="Path 176" d="M1333.459,4004.836a8.416,8.416,0,1,1-8.415,8.416A8.417,8.417,0,0,1,1333.459,4004.836Z" transform="translate(-383.107 -223.083)" fill="#2b0b05" fill-rule="evenodd"/>
    <text id="_3" data-name="3" transform="translate(945.429 3795.68)" fill="#fff" font-size="15" font-family="Arial-BoldMT, Arial" font-weight="700"><tspan x="0" y="0">3</tspan></text>
    <path id="Path_177" data-name="Path 177" d="M1318.567,4116.839a8.415,8.415,0,1,1-8.416,8.416A8.415,8.415,0,0,1,1318.567,4116.839Z" transform="translate(-378.808 -255.417)" fill="#2b0b05" fill-rule="evenodd"/>
    <text id="_13" data-name="13" transform="translate(932.256 3871.775)" fill="#fff" font-size="11" font-family="Arial-BoldMT, Arial" font-weight="700"><tspan x="0" y="0">13</tspan></text>
    <path id="Path_178" data-name="Path 178" d="M1294.726,3930.27a8.415,8.415,0,1,1-8.415,8.416A8.415,8.415,0,0,1,1294.726,3930.27Z" transform="translate(-371.925 -201.556)" fill="#2b0b05" fill-rule="evenodd"/>
    <text id="_8" data-name="8" transform="translate(917.878 3742.641)" fill="#fff" font-size="15" font-family="Arial-BoldMT, Arial" font-weight="700"><tspan x="0" y="0">8</tspan></text>
    <path id="Path_179" data-name="Path 179" d="M1476.134,3823.084a8.415,8.415,0,1,1-8.416,8.416A8.415,8.415,0,0,1,1476.134,3823.084Z" transform="translate(-424.296 -170.612)" fill="#2b0b05" fill-rule="evenodd"/>
    <text id="_18" data-name="18" transform="translate(1044.567 3663.992)" fill="#fff" font-size="11" font-family="Arial-BoldMT, Arial" font-weight="700"><tspan x="0" y="0">18</tspan></text>
    <path id="Path_180" data-name="Path 180" d="M1508.265,3965.083a8.416,8.416,0,1,1-8.416,8.417A8.416,8.416,0,0,1,1508.265,3965.083Z" transform="translate(-433.572 -211.606)" fill="#2b0b05" fill-rule="evenodd"/>
    <text id="_17" data-name="17" transform="translate(1067.853 3765.516)" fill="#fff" font-size="11" font-family="Arial-BoldMT, Arial" font-weight="700"><tspan x="0" y="0">17</tspan></text>
    <path id="Path_181" data-name="Path 181" d="M1422.6,4104.339a8.416,8.416,0,1,1-8.416,8.416A8.415,8.415,0,0,1,1422.6,4104.339Z" transform="translate(-408.84 -251.808)" fill="#2b0b05" fill-rule="evenodd"/>
    <text id="_9" data-name="9" transform="translate(1008.834 3866.456)" fill="#fff" font-size="15" font-family="Arial-BoldMT, Arial" font-weight="700"><tspan x="0" y="0">9</tspan></text>
    <path id="Path_182" data-name="Path 182" d="M1637.806,3699.739a8.416,8.416,0,1,1-8.416,8.416A8.416,8.416,0,0,1,1637.806,3699.739Z" transform="translate(-470.969 -135.004)" fill="#2b0b05" fill-rule="evenodd"/>
    <text id="_15" data-name="15" transform="translate(1160.473 3576.068)" fill="#fff" font-size="10" font-family="Arial-BoldMT, Arial" font-weight="700"><tspan x="0" y="0">15</tspan></text>
    <path id="Path_183" data-name="Path 183" d="M1385.289,4042.532a8.415,8.415,0,1,1-8.416,8.415A8.415,8.415,0,0,1,1385.289,4042.532Z" transform="translate(-398.07 -233.965)" fill="#2b0b05" fill-rule="evenodd"/>
    <text id="_2" data-name="2" transform="translate(982.295 3822.492)" fill="#fff" font-size="15" font-family="Arial-BoldMT, Arial" font-weight="700"><tspan x="0" y="0">2</tspan></text>
    <g id="Group_36" data-name="Group 36" transform="translate(581.818 3011.737)">
      <path id="Path_184" data-name="Path 184" d="M368.137,3669.394h1.221c1.163-1.568,3.3-3.2,4.855-5.1,3.934-4.814,1.85-7.809,8.472-11.634,12.35-7.133,12.033-20.2,15.339-24.4,1.94-2.465,5.814-4.918,7.929-6.875.815-.754.818-1.636,1.388-2.77,3.478-6.917-2.014-21.743,3.2-27.052,1.7-1.736,1.245-.381,2.827-2.476.9-1.195.72-1.414,2.164-2.561,1.724-1.37,4.029-2.726,5.466-4.038,3.14-2.864,1.064-2.7,5.927-4.2,3.958-1.216.334-2.616,7.441-1.92,1.618-2.193,2.62-3.311,5.822-3.794,3.792-.571.593.243,3.177-1.633,3.623-2.631,7.818-1.762,12.117-2.17a24.127,24.127,0,0,1,4.247-.466c1.949.115,2.051,1,3.566-.166.618-.619.654-2.742.914-3.246,1-1.936,5.221-2.648,7.255-3.894-.405-10.123,3.685-7.83,5.642-14.021.539-1.7.6-3.584,1.4-4.909,2.222-3.664,4.949-.089,4.5-8.162-.345-6.191-.573-6.667,3.438-9.3.252-2.859.212-4.848.536-7.632.31-2.666.8-3.677,1.3-6.306.848-4.435-.6-9.928-.061-14.843a57.2,57.2,0,0,0,.431-7.489c.021-3.181.632-3.9,2.971-5.139,2.571-1.366,2.529-.755,4.727-3.233a34.907,34.907,0,0,0,3.032-4.341c2.5-3.854,2.428-7.693,5.942-10.011a30.206,30.206,0,0,0,4.651-3.255c1.577-1.471,2.087-2.879,3.36-4.547,2.68-3.507,5.15-4.887,6.969-8.956a35.8,35.8,0,0,0,2.346-12.867c-.279-4.8-2.34-8.388-3.134-12.683-1.168-6.316-4.55-4.587-10.551-5.215-5.171-.542-5.059-2.587-8.485-3.783-2.411-.841-.669.67-2.361-1.4-4.451-5.43-11.534-10.367-17.76-13.387-2.891-1.4-8.877,1.174-13.689.508-2.6-.361-2.277-.939-6.373-1.405-2.264-.257-3.566-1.526-5.607-2.509-3.042-1.464-11.844-1.595-12.914-2.285-2.152-1.475-.413-.272-1.074-2.108-2.01-5.582-4.557-2.346-6.336-1.421-.546-1.1-.134-1.83.048-3.086a27.065,27.065,0,0,1-3.929-1.389c-2-1.129.632-1.052-3.224-1.654-2.795-.435-1.31.667-3.109-.492-1.663-1.072-.393-.806-3.207-1.584a20.673,20.673,0,0,0-8.721-.572c-6.1,1.1-3.646.695-3.9-3.691l-6.753-1.138c-.31-2-.335-1.123-.919-2.3-.051-.1-.137-.254-.183-.345l-.5-1.069c-2.705.328-1.381.945-4.219.536-2.824-11.074,1.8-4.743,1.406-11.6l-4.818-.9a88.039,88.039,0,0,1-4.636-11.642c-1.322-4.792-.617-10.439-4.669-12.012-5.717,3.215-7.538,13.7-12.311,16.992-2.395,1.649-2.83,1.3-6.217,1.118-2.684-.141-4.126.768-6.331.9-2.544.155-4.654-.987-6.607-.517-4.018.969-1.606.589-5.732.287l.055,4.5a16.532,16.532,0,0,1-3.385-.18c-3.328-.212-1.337.035-2.547.707-3.054,1.695-2.448.225-4.562-1.427-2.3.658-1.194.914-2.891,1.842-2.374,1.3-5.169,1.017-6.562,1.921-1.9,1.234-.656.773-1.662,2.595-2.163-.006-2.068-.318-3.536-1.212-7.213-4.393-3.741-5.9-5.348-8.379-1.751-2.7-3.766.406-1.474-6.618.509-1.562.258-2.59.876-3.887.868-1.821.895-.268,1.721-2.644-.373-3.815-1.762-2.786-4.278-4.763,0-4.715,2.754-5.607-4.37-5.781-1.447,2.409.39,2.536-2.409,3.926-1.267.629-3.117.907-4.057,1.739-1.952,1.727.261,1.738-3.248,2.548-2.074.478-3.782.216-5.539.5-3.64.592-1.984,3.859-8.721,2.662-3.576-.635-4.424-3.319-8.108-3.291-.073,4.72,3.5,1.081,2.852,6.025-.363,2.766-2.158,4.683-.657,8.312,2.446,2.91,3.363.608,6.671,1.77-.909,2.186.359.587-2.34,1.646-7.71,3.024,1.669,3.062-10.944,7-2.664.832-4.064.276-5.148,3.259-2.763.077-5.322.95-7.291-.388-5.112-3.47-.741-1.5-5.521-1.86-.144-2.6.114-5.152-1.706-6.425-2.726-1.907-1.72,1.123-4.17,2.307-3.028-1.144-.336-1.33-3.176-2.876-1.379.472-1.639,1.916-1.857,1.484-.048-.094-.162.243-.261.349-2.133.037-8.535-.582-9.79.721-.719.748-1.182,2.7-.147,3.75,1,1.009,2.607.594,4.284,1.221l-.4,3.97c-3.543.026-1.682-2.321-5.816.779-.376,4.773-1.238,5.534,1.65,8.615,1.778,1.9.446,1.688,1.374,3.875.532,1.253,1.238,1.31,2.221,2.33.006,3.608-1.7,8.907-2.194,12.737l-2.829,12.96c-1.84-.267-3.17-.916-5.3-1.021-3.931-.2-2.483.425-4.653,1.407-2.269,1.03-3.9.189-8.851,2.7-2.834,1.439-5.326,2.112-6.388,5.291a24.075,24.075,0,0,1-1.5,4.32c-1.164,2.412-.373,2.243-1.046,4.818-2.136,1.162-3.322,1.221-4.341,3.549-.652,1.491-.434,2.19-.869,3.317-.915,2.371-.282-.243-1.666,2.317.845,3.069,3.246,6,5.39,8.054,5.087,4.872,1.164,5.57,1.981,9.116,4.049.4,4.091-1.284,6.627,1.9,1.754,2.2,1.893,3.011,5.612,2.374,3.435-.588,3.369-1.357,4.664-3.692.619-1.116,2.357-3.539,3.824-3.835-.048,1.966-.638,1.425-.251,3.368.291,1.462.519.6.944,2.868.651,3.474.028,3,1.613,5.731,3.059.165,1.838-.781,4.73-1.2,8.758-1.259,9.248,3.507,12.714,3.723,1.5-1.6,1.307-3.886,3.706-5.1,2.425-1.223,5.441-.028,8.036-1.088,1.95-.8,3.187-2.627,6.24-2.779a31.874,31.874,0,0,1,7.59.96c-.013,14.352,3.384,12.623,7.1,16.257,2.953,2.886,5.017,1.216,8.726,2.925,2.4,1.107,2.574.045,4.478,1.358,1.216.838,1.066,1.555,3.135,2.695a10.859,10.859,0,0,1,3.448,2.32c3.093,2.692,10.58-.016,12.895,4.575,1.383,2.744.8,7.554,1.041,10.765.227,3.073,1.314,6.6,1.976,9.516,7.154,1.959,8.944-.319,15.064,1.279.324,13.755.732,7.478,4.577,12.4,3.372,4.317.846,7.584-.77,12.32-1.674,4.909-.546,3.49-.565,6.965-.02,3.744-1.908.516.679,5.795,2.746,5.6-2.763,10.1.154,13.038,2.552,2.042,13.137-.179,17.184.833,4.015,1,2.693,10.413,3.486,14.694,2.332,1.043,3.312,1.046,5.046-.051,2.443-1.544,2.288-.53,4.839.525-.1,3.575-3.107,11.052-2.4,14.568l2.5.871a25.752,25.752,0,0,0,2.64.363c1.644,4.131.94,3.737,1.387,8.067.408,3.947.972,5.39-2.376,7.085-15.609,7.9-10.613,4.3-19.842,17.223-2.757,3.86-8.652,5.784-8.2,9.861,6.151.2,3.657.67,7.327,2.792,3.507,2.029,2.373,2.961,4.631,5.067,1.928-.288,3.031-1.9,4.9-.374,3.147,2.57,6.641,7.169,10.374,9.27,2.478,1.395,1.948.434,3.975,2.895,4.632,5.624,3.281,2.716,2.027,8.235-.45,1.979-.23,3.625-.694,5.7" transform="translate(-195.971 -3332.812)" fill-rule="evenodd" fill="url(#linear-gradient)"/>
      <g id="Group_35" data-name="Group 35" clip-path="url(#clip-path)">
        <rect id="Rectangle_19" data-name="Rectangle 19" width="326.891" height="336.583" transform="translate(0 0)" fill="url(#linear-gradient)"/>
      </g>
    </g>
    <path id="Path_186" data-name="Path 186" d="M501.721,3622.157c2.645,2.962,1.052,2.577,1,6.53-.036,3.027,1.452,4.557,3.106,6.1,4.143-.554,4.459-1.236,6.2-3.909l4.074.541c2.692.167,6.9-1.556,9.821-2.2a34.712,34.712,0,0,1,5.3-.685c2.157-.2,2.56-.82,4.174-1.635l2.1-.013c2.469-.482,2.2-.795,2.615-2.973.692-3.659,1.252-.715,1.7-3.8l-.239-1.572,2.889-.759.017-4.456c2.632-.635,3.3.339,4.192-2.192,1.135-3.222-.02-1.751,2.495-3.976,1.2-.945.659.626.929-1.8a3.055,3.055,0,0,0-.644-2.152c-.966-1.637-1.526-.64-1.172-3.486.859-2,.526-1.406.472-3.977l3.207.085.027-1.861-.063-.75c1.806.313,1.833.943,3.718.394.151-.044.335-.161.46-.206a1.534,1.534,0,0,0,.464-.239l-.073-2c-.1-.115-.285-.409-.343-.306-.026.046-4.9-3.189-.8-6.931,1.824-1.664,1.041-1.427,1.576-2.994.568-1.666,1.3-1.255,1.075-4.126-.606-2.15-8.262-5.066-8.262-5.066-2.233-.258-.087-.208-1.445.263-.107.037-.248.115-.353.156l-1.432.6c-1.261-2.442-1.327-2.816-4.932-5.17-2.292-1.5-1.785.349-4.709-.467-2.143-.6-2.753-2.53-4.737-3.854l-1.987-.91c-1.854-.25-1.9.162-2.727,2.044-.29-.742-3.242-4.032-6.119-4.081-5.222-.088-3.852,2.608-6.742,3.979l-1.124.5c-.074.045-.208.147-.28.195-8.077,5.236-5.336.824-11.443-1.406-.637,1.374-.206,1.4.052,2.8-3.558-.092-.818.257-3.629.97.763,1.939,1.613,3.879,1.374,4.882-.641,2.689-3.052,2.988-5.666,6.676a10.388,10.388,0,0,0,2.562,3.579c-.891,2.173-.818,2-2.651,3.308l-.743.522c2.451,4.561.467,5.683,1.468,8.008l-1.576.187c-1.885,1.193-.219.474-1.479,1.595-.851.757-1.391.46-1.664.609-1.817-1.479-3.282-1.7-5.914-1.757-4.084,4.959-4.6,2.1-8.763,4.417l-1.586,1.061c-2.359-.24-.537-.785-3.05.612-4.53,2.517-3.554,5.91-3.77,6.627-.193.642-.727,1.354-.812,1.668-.8,2.993-.636,1.256.529,2.086.738.764.113,1.494,3.273.694,8.662-2.19,6.39,1.377,10.325,2.357,7.143,1.781,9.4-1.689,15.922-.7.217,2.638-.5,3.534.284,5.025,2.258,4.277,2.827,3.257,3.521,3.311" transform="translate(307.496 -386.759)" fill="#ce8a0f" fill-rule="evenodd"/>
    <path id="Path_187" data-name="Path 187" d="M499.251,3621.587c2.645,2.963,1.052,2.577,1.005,6.53-.036,3.028,1.452,4.558,3.1,6.1,4.143-.553,4.459-1.236,6.2-3.909l4.073.541c2.693.167,6.9-1.557,9.822-2.2a34.721,34.721,0,0,1,5.3-.685c2.157-.2,2.56-.82,4.173-1.635l2.1-.013c2.468-.482,2.2-.8,2.614-2.973.693-3.659,1.253-.716,1.7-3.8l-.24-1.572,2.889-.758.017-4.457c2.632-.634,3.3.339,4.193-2.191,1.135-3.223-.021-1.752,2.494-3.977,1.2-.944.659.626.929-1.8a3.053,3.053,0,0,0-.644-2.152c-.966-1.637-1.526-.64-1.171-3.485.858-2,.526-1.407.471-3.977l3.206.086.029-1.861-.065-.751c1.807.312,1.834.943,3.719.394.152-.044.336-.161.459-.2a1.524,1.524,0,0,0,.465-.24l-.073-2c-.1-.115-.284-.41-.342-.306-.026.046-4.9-3.19-.8-6.931,1.824-1.664,1.041-1.426,1.576-2.994.569-1.666,1.3-1.254,1.075-4.127-.607-2.149-8.263-5.066-8.263-5.066-2.233-.258-.086-.207-1.445.264-.106.037-.248.115-.353.156l-1.432.6c-1.26-2.442-1.327-2.816-4.932-5.17-2.293-1.5-1.785.348-4.708-.467-2.144-.6-2.753-2.531-4.737-3.854l-1.988-.91c-1.854-.25-1.9.162-2.726,2.044-.291-.742-3.243-4.032-6.119-4.081-5.222-.088-3.852,2.608-6.742,3.979l-1.123.5c-.074.045-.208.147-.281.195-8.077,5.236-5.336.824-11.443-1.406-.637,1.374-.206,1.4.052,2.806-3.558-.093-.818.256-3.628.969.762,1.939,1.612,3.88,1.373,4.883-.64,2.689-3.052,2.988-5.666,6.674a10.371,10.371,0,0,0,2.562,3.58c-.891,2.173-.817,2-2.651,3.309l-.742.522c2.451,4.561.466,5.683,1.467,8.008l-1.576.188c-1.885,1.192-.219.475-1.478,1.594-.851.757-1.391.46-1.664.609-1.817-1.48-3.282-1.7-5.914-1.757-4.084,4.96-4.6,2.1-8.763,4.417l-1.585,1.061c-2.359-.24-.539-.784-3.05.612-4.53,2.517-3.555,5.91-3.771,6.627-.194.642-.727,1.353-.812,1.669-.8,2.992-.636,1.255.529,2.085.738.765.113,1.494,3.273.7,8.661-2.19,6.39,1.376,10.325,2.356,7.144,1.781,9.4-1.689,15.922-.7.217,2.638-.5,3.534.284,5.025,2.258,4.277,2.827,3.258,3.521,3.311" transform="translate(308.209 -386.595)" fill="#fae306" fill-rule="evenodd"/>
    <path id="Path_188" data-name="Path 188" d="M501.647,3606.219l.027,0,.154.117c.048.043.094.088.142.13l.279-.037.309-.074.11.055.161.226c.014.07.028.14.042.209.035.05.068.1.1.149l.174.018c.036.049.072.1.108.143-.013.066-.027.131-.04.2l-.037.065c.082.034.164.066.247.1.05.046.1.093.151.139,0,.062,0,.122,0,.183l.105.018.123-.061c.04-.04.079-.08.117-.12l.149.049.179.188c.029.092.058.185.087.278-.03.117-.06.235-.09.351,0,.068-.006.136-.009.2l.117.2.289.247.223.228a.874.874,0,0,0-.278.892c.061.127.122.255.182.383-.015.045-.031.089-.046.132.011.045.023.09.034.136l.148.049-.136.2c-.354.169-.489.125-.388.494l-.1.163c0,.08,0,.159,0,.238-.089.088-.178.173-.265.26l-.115.139c.12.271.1.3-.132.466l.13.2.255-.068c.24-.083.388-.148.454.129v.2c.154.091.159-.01.29-.16l.12-.075c.173.173.24.22.435.019l.192.135.484.266.2-.028.309.034c-.008.056-.016.113-.025.169.055.026.109.052.164.077l.207-.045s.383.324.352.333.083.121.083.121h.262l.09.123.157.058,1.006-.88c.018-.094.038-.189.056-.284l.166.044c.255-.017.221-.044.413-.216.058-.072.115-.144.174-.216l-.1-.192-.1-.2.049-.2.322-.364.16.123.228.074.154-.036.087-.143c0,.083.008.165.012.248l.4.173c.112-.116.226-.23.339-.345.274-.049.223,0,.353-.241h.2c.07-.123.14-.246.21-.37l.174-.074c.258.154.779.52.682.859l.218.3c-.06.087-.121.173-.181.26l-.334.062c-.157.1-.11.085-.053.281l-.173.26-.255-.025c-.245.245-.268.167-.17.482l.265.351c.01.109.021.218.031.327l.241.29.148-.056c.312.068.506.146.506.5.079.131.156.264.235.395l.427-.049.326-.216.186.482.2-.055.217.234.2-.246.624-.007.234.173c.015.064.029.127.043.191l.2.025c-.024.09-.05.181-.074.271l-.142.086.2.1c.011.033.021.066.031.1-.055.03-.11.058-.166.087l-.142.142.2.173c.034.107.07.213.1.32l.081.136.3.062c.012.051.025.1.038.154s.041.1.062.154l.234-.092.228.08c.142-.068.284-.136.426-.2l.216-.31.173-.345c.074-.095.147-.19.222-.284.022-.07.045-.14.068-.21s.053-.139.08-.209c-.3-.3-.011-.525.006-.945l.389-.6.154-.327.228-.333c0-.157,0-.313-.006-.469l.272-.531q.154-.383.308-.765l.321-.211c-.011-.122-.021-.242-.031-.363l.179-.013-.209-.216c.1-.123.193-.247.29-.37l.222-.228q-.01-.272-.018-.542h.221c.009-.114.017-.227.025-.34l.068-.234c-.45-.094-.892-.256-.445-.754l.173-.012c.012-.072.024-.144.037-.217l.235-.085c.016-.093.033-.186.049-.278-.011-.1-.024-.206-.037-.308.223-.346.161-.534.026-.911l-.164-.117c-.009-.123-.017-.246-.025-.371l.172-.147c.013-.06.026-.119.038-.179.212-.188.424-.378.636-.567l.253-.062.327-.283c.871.2.772.156,1.408-.5l.457-.463.327.142c.049-.089.1-.178.149-.266l.308-.321-.049-.234-.315-.1.216-.217.451.272.179-.3-.358-.432c.073-.026.144-.054.217-.08.249-.416-.248-.971-.624-.457l-.784-.463c-.011-.128-.021-.255-.031-.383l-.278.061-.142-.068-.2.081-.395.159c-.053-.055-.1-.11-.155-.166l-.142-.03.3-.445-.654-.006-.555.42.043.172-.2.161c0,.09,0,.181.006.271l-.235.117.124.148-.112.154-.3.044c-.011.079-.021.161-.031.24l.16.148c-.059.084-.119.168-.178.254l-.272.246c.027.056.053.112.08.166l-.235.087-.061.222-.223-.006c-.01-.052-.021-.1-.031-.154l-.222.2-.408.105h-.24l-.179.123c.011.043.021.086.031.129a1.867,1.867,0,0,0-.765,1.012l-.222-.044-.149.081-.4.012-.222-.05q.039-.493.08-.987l-.741-.753c.008-.089.016-.177.025-.266-.056-.066-.112-.131-.166-.2l-.26.03a2.6,2.6,0,0,1-1.339-.441l-.142-.2c.051-.046.1-.091.154-.136l-.154-.1-.112-.259.142-.285c0-.088,0-.177.006-.265l-.16-.3c-.065-.14-.128-.281-.192-.421-.012-.089-.025-.177-.037-.265l-.247-.273.21-.154c-.027-.074-.054-.147-.08-.222l-.432.47.149.216c.008.094.016.189.025.283-.027.064-.054.128-.08.191l-.285-.019-.2-.135-.13.153c.026.079.053.157.08.235l.2.148c.009.068.016.136.025.2l-.491.359-.235.105c-.02.04-.041.081-.062.12l-.078-.114-.33.253-.469-.278-.2.115.336.363-.373-.018-.324-.428c-.051-.068-.1-.135-.151-.2l-.146.112-.173-.192q-.007-.2-.015-.406l.179-.2.142-.192c.018-.083.034-.166.053-.25l.141-.308.316-.124.111-.153-.142-.062h-.173l-.154-.149.2-.259c-.021-.117-.041-.234-.062-.352l-.223-.3.463-.322c-.023-.116-.045-.232-.068-.349-.031-.082-.061-.164-.093-.246l.173-.253c-.028-.088-.056-.177-.083-.266l-.167-.164.2-.129c-.022-.163-.043-.325-.065-.488l-.54.43-.462.067-.115.123c-.026.545-.9.876-1.392.677l-.24-.155-.3.487-.284.512-.161.3c-.062.144-.123.288-.185.432-.029.152-.058.3-.087.458l-.259.1c-.035.828-.2,1.4-1.123,1.025l-.272.284-.309.457-.259.321-.42.049-.235.223c.011.143.024.288.036.432h-.371l-.133.08a3.618,3.618,0,0,0,.29,1.126l-1.576.187c-1.811,1.146-.346.529-1.344,1.471" transform="translate(297.601 -397.381)" fill="#fff" fill-rule="evenodd"/>
    <path id="Path_189" data-name="Path 189" d="M786.812,3703.2a2.377,2.377,0,1,0,2.378,2.378,2.378,2.378,0,0,0-2.378-2.378" transform="translate(58.963 -354.004)" fill="#fff" fill-rule="evenodd"/>
    <line id="Line_4" data-name="Line 4" x2="34.56" y2="141.902" transform="translate(810.94 3210.17)" fill="none" stroke="#fff" stroke-miterlimit="22.926" stroke-width="0.567"/>
  </g>
</svg>
